<svg width="241" height="61" viewBox="0 0 241 61" fill="none" xmlns="http://www.w3.org/2000/svg">
<rect x="0.580078" y="0.490234" width="240.04" height="59.99" rx="18" fill="white" fill-opacity="0.1"/>
<path d="M40.3535 29.1719L28.2676 17.0312L43.6348 25.8906L40.3535 29.1719ZM25.1504 16.3203L39.1504 30.3203L25.1504 44.3203C24.4395 43.9922 23.9473 43.2812 23.9473 42.4062V18.2891C23.9473 17.4141 24.4395 16.7031 25.1504 16.3203ZM48.3926 28.6797C49.4316 29.4453 49.4316 31.25 48.4473 32.0156L45.166 33.875L41.5566 30.3203L45.166 26.8203L48.3926 28.6797ZM28.2676 43.6094L40.3535 31.5234L43.6348 34.8047L28.2676 43.6094Z" fill="white"/>
<a href="https://apusthemes.com/wp-demo/superio/home-19/">
<rect fill="black" fill-opacity="0" y="-2.1" width="28" height="32.2"/>
</a>
<path d="M74.2501 20.6402V19.5202H78.8001C78.8001 20.2016 78.6974 20.8502 78.4921 21.4662C78.2867 22.0729 77.9834 22.6142 77.5821 23.0902C77.1807 23.5662 76.6861 23.9442 76.0981 24.2242C75.5194 24.4949 74.8567 24.6302 74.1101 24.6302C73.4007 24.6302 72.7427 24.5089 72.1361 24.2662C71.5294 24.0142 71.0021 23.6642 70.5541 23.2162C70.1061 22.7589 69.7561 22.2222 69.5041 21.6062C69.2614 20.9902 69.1401 20.3182 69.1401 19.5902C69.1401 18.8622 69.2614 18.1902 69.5041 17.5742C69.7561 16.9582 70.1061 16.4262 70.5541 15.9782C71.0021 15.5209 71.5294 15.1709 72.1361 14.9282C72.7427 14.6762 73.4007 14.5502 74.1101 14.5502C74.7167 14.5502 75.2721 14.6296 75.7761 14.7882C76.2894 14.9469 76.7467 15.1802 77.1481 15.4882C77.5587 15.7962 77.9041 16.1789 78.1841 16.6362L77.3441 17.4062C77.0361 16.8836 76.6067 16.4776 76.0561 16.1882C75.5054 15.8896 74.8567 15.7402 74.1101 15.7402C73.4194 15.7402 72.7941 15.9036 72.2341 16.2302C71.6741 16.5569 71.2261 17.0096 70.8901 17.5882C70.5634 18.1576 70.4001 18.8249 70.4001 19.5902C70.4001 20.3462 70.5634 21.0136 70.8901 21.5922C71.2261 22.1709 71.6741 22.6236 72.2341 22.9502C72.7941 23.2769 73.4194 23.4402 74.1101 23.4402C74.5954 23.4402 75.0294 23.3702 75.4121 23.2302C75.8041 23.0809 76.1401 22.8756 76.4201 22.6142C76.7001 22.3529 76.9287 22.0542 77.1061 21.7182C77.2927 21.3822 77.4281 21.0229 77.5121 20.6402H74.2501ZM82.9775 24.6302C82.3802 24.6302 81.8482 24.4902 81.3815 24.2102C80.9242 23.9209 80.5649 23.5242 80.3035 23.0202C80.0515 22.5162 79.9255 21.9329 79.9255 21.2702C79.9255 20.5982 80.0562 20.0102 80.3175 19.5062C80.5882 19.0022 80.9615 18.6102 81.4375 18.3302C81.9229 18.0502 82.4829 17.9102 83.1175 17.9102C83.7522 17.9102 84.2935 18.0456 84.7415 18.3162C85.1989 18.5776 85.5489 18.9556 85.7915 19.4502C86.0342 19.9449 86.1555 20.5329 86.1555 21.2142C86.1555 21.2796 86.1509 21.3496 86.1415 21.4242C86.1415 21.4896 86.1415 21.5316 86.1415 21.5502H80.6395V20.5982H85.2595L84.8115 21.2422C84.8395 21.1956 84.8675 21.1256 84.8955 21.0322C84.9235 20.9296 84.9375 20.8456 84.9375 20.7802C84.9375 20.3976 84.8582 20.0662 84.6995 19.7862C84.5502 19.5062 84.3402 19.2869 84.0695 19.1282C83.7989 18.9696 83.4815 18.8902 83.1175 18.8902C82.6882 18.8902 82.3195 18.9836 82.0115 19.1702C81.7129 19.3476 81.4795 19.6089 81.3115 19.9542C81.1529 20.2902 81.0689 20.7056 81.0595 21.2002C81.0595 21.7042 81.1389 22.1336 81.2975 22.4882C81.4562 22.8429 81.6895 23.1136 81.9975 23.3002C82.3055 23.4869 82.6789 23.5802 83.1175 23.5802C83.5562 23.5802 83.9435 23.4869 84.2795 23.3002C84.6155 23.1042 84.9002 22.8102 85.1335 22.4182L86.0435 22.9922C85.7075 23.5336 85.2829 23.9442 84.7695 24.2242C84.2655 24.4949 83.6682 24.6302 82.9775 24.6302ZM86.7106 18.0502H89.9306V19.1002H86.7106V18.0502ZM87.7606 15.8102H88.8806V24.4902H87.7606V15.8102ZM95.2512 15.3902C95.2512 15.1756 95.3258 14.9936 95.4752 14.8442C95.6338 14.6949 95.8158 14.6202 96.0212 14.6202C96.2358 14.6202 96.4178 14.6949 96.5672 14.8442C96.7165 14.9936 96.7912 15.1756 96.7912 15.3902C96.7912 15.5956 96.7165 15.7776 96.5672 15.9362C96.4178 16.0856 96.2358 16.1602 96.0212 16.1602C95.8158 16.1602 95.6338 16.0856 95.4752 15.9362C95.3258 15.7776 95.2512 15.5956 95.2512 15.3902ZM95.4612 18.0502H96.5812V24.4902H95.4612V18.0502ZM103.018 20.5702C103.018 20.0382 102.901 19.6369 102.668 19.3662C102.435 19.0956 102.094 18.9602 101.646 18.9602C101.319 18.9602 101.03 19.0302 100.778 19.1702C100.535 19.3009 100.344 19.4876 100.204 19.7302C100.073 19.9729 100.008 20.2529 100.008 20.5702V24.4902H98.8879V18.0502H100.008V19.0582C100.223 18.6662 100.489 18.3769 100.806 18.1902C101.133 18.0036 101.506 17.9102 101.926 17.9102C102.607 17.9102 103.144 18.1389 103.536 18.5962C103.937 19.0442 104.138 19.6556 104.138 20.4302V24.4902H103.018V20.5702ZM109.881 21.2702C109.881 20.6169 110.025 20.0382 110.315 19.5342C110.613 19.0302 111.015 18.6336 111.519 18.3442C112.023 18.0549 112.587 17.9102 113.213 17.9102C113.847 17.9102 114.412 18.0549 114.907 18.3442C115.411 18.6336 115.807 19.0302 116.097 19.5342C116.395 20.0382 116.545 20.6169 116.545 21.2702C116.545 21.9142 116.395 22.4929 116.097 23.0062C115.807 23.5102 115.411 23.9069 114.907 24.1962C114.412 24.4856 113.847 24.6302 113.213 24.6302C112.587 24.6302 112.023 24.4856 111.519 24.1962C111.015 23.9069 110.613 23.5102 110.315 23.0062C110.025 22.4929 109.881 21.9142 109.881 21.2702ZM111.015 21.2702C111.015 21.7182 111.108 22.1149 111.295 22.4602C111.491 22.8056 111.752 23.0809 112.079 23.2862C112.415 23.4822 112.793 23.5802 113.213 23.5802C113.633 23.5802 114.006 23.4822 114.333 23.2862C114.669 23.0809 114.93 22.8056 115.117 22.4602C115.313 22.1149 115.411 21.7182 115.411 21.2702C115.411 20.8222 115.313 20.4256 115.117 20.0802C114.93 19.7256 114.669 19.4502 114.333 19.2542C114.006 19.0582 113.633 18.9602 113.213 18.9602C112.793 18.9602 112.415 19.0582 112.079 19.2542C111.752 19.4502 111.491 19.7256 111.295 20.0802C111.108 20.4256 111.015 20.8222 111.015 21.2702ZM122.213 20.5702C122.213 20.0382 122.097 19.6369 121.863 19.3662C121.63 19.0956 121.289 18.9602 120.841 18.9602C120.515 18.9602 120.225 19.0302 119.973 19.1702C119.731 19.3009 119.539 19.4876 119.399 19.7302C119.269 19.9729 119.203 20.2529 119.203 20.5702V24.4902H118.083V18.0502H119.203V19.0582C119.418 18.6662 119.684 18.3769 120.001 18.1902C120.328 18.0036 120.701 17.9102 121.121 17.9102C121.803 17.9102 122.339 18.1389 122.731 18.5962C123.133 19.0442 123.333 19.6556 123.333 20.4302V24.4902H122.213V20.5702Z" fill="white"/>
<path d="M75.1561 41.8241V40.2241H80.5481C80.5694 41.0454 80.4627 41.8241 80.2281 42.5601C79.9934 43.2854 79.6414 43.9307 79.1721 44.4961C78.7027 45.0614 78.1161 45.5094 77.4121 45.8401C76.7187 46.1601 75.9294 46.3201 75.0441 46.3201C74.2014 46.3201 73.4227 46.1814 72.7081 45.9041C71.9934 45.6161 71.3694 45.2107 70.8361 44.6881C70.3134 44.1654 69.9081 43.5467 69.6201 42.8321C69.3321 42.1174 69.1881 41.3334 69.1881 40.4801C69.1881 39.6267 69.3321 38.8481 69.6201 38.1441C69.9187 37.4294 70.3294 36.8161 70.8521 36.3041C71.3854 35.7814 72.0094 35.3814 72.7241 35.1041C73.4494 34.8267 74.2334 34.6881 75.0761 34.6881C75.8121 34.6881 76.4787 34.7894 77.0761 34.9921C77.6734 35.1841 78.2067 35.4667 78.6761 35.8401C79.1561 36.2027 79.5614 36.6454 79.8921 37.1681L78.3561 38.1921C78.0467 37.6587 77.6147 37.2321 77.0601 36.9121C76.5161 36.5921 75.8547 36.4321 75.0761 36.4321C74.3507 36.4321 73.6947 36.6027 73.1081 36.9441C72.5214 37.2747 72.0521 37.7441 71.7001 38.3521C71.3481 38.9494 71.1721 39.6587 71.1721 40.4801C71.1721 41.2907 71.3427 42.0054 71.6841 42.6241C72.0361 43.2321 72.5054 43.7067 73.0921 44.0481C73.6787 44.3894 74.3401 44.5601 75.0761 44.5601C75.5774 44.5601 76.0254 44.4907 76.4201 44.3521C76.8147 44.2134 77.1561 44.0161 77.4441 43.7601C77.7321 43.5041 77.9721 43.2107 78.1641 42.8801C78.3561 42.5494 78.5001 42.1974 78.5961 41.8241H75.1561ZM81.7803 42.4001C81.7803 41.6427 81.951 40.9761 82.2923 40.4001C82.6443 39.8241 83.119 39.3761 83.7163 39.0561C84.3137 38.7254 84.991 38.5601 85.7483 38.5601C86.5057 38.5601 87.1777 38.7254 87.7643 39.0561C88.3617 39.3761 88.8363 39.8241 89.1883 40.4001C89.5403 40.9761 89.7163 41.6427 89.7163 42.4001C89.7163 43.1467 89.5403 43.8134 89.1883 44.4001C88.8363 44.9761 88.3617 45.4294 87.7643 45.7601C87.1777 46.0801 86.5057 46.2401 85.7483 46.2401C84.991 46.2401 84.3137 46.0801 83.7163 45.7601C83.119 45.4294 82.6443 44.9761 82.2923 44.4001C81.951 43.8134 81.7803 43.1467 81.7803 42.4001ZM83.5563 42.4001C83.5563 42.8587 83.6523 43.2641 83.8443 43.6161C84.0363 43.9574 84.2977 44.2294 84.6283 44.4321C84.959 44.6241 85.3323 44.7201 85.7483 44.7201C86.1537 44.7201 86.5217 44.6241 86.8523 44.4321C87.1937 44.2294 87.4603 43.9574 87.6523 43.6161C87.8443 43.2641 87.9403 42.8587 87.9403 42.4001C87.9403 41.9414 87.8443 41.5361 87.6523 41.1841C87.4603 40.8321 87.1937 40.5601 86.8523 40.3681C86.5217 40.1761 86.1537 40.0801 85.7483 40.0801C85.3323 40.0801 84.959 40.1761 84.6283 40.3681C84.2977 40.5601 84.0363 40.8321 83.8443 41.1841C83.6523 41.5361 83.5563 41.9414 83.5563 42.4001ZM90.796 42.4001C90.796 41.6427 90.9666 40.9761 91.308 40.4001C91.66 39.8241 92.1346 39.3761 92.732 39.0561C93.3293 38.7254 94.0066 38.5601 94.764 38.5601C95.5213 38.5601 96.1933 38.7254 96.78 39.0561C97.3773 39.3761 97.852 39.8241 98.204 40.4001C98.556 40.9761 98.732 41.6427 98.732 42.4001C98.732 43.1467 98.556 43.8134 98.204 44.4001C97.852 44.9761 97.3773 45.4294 96.78 45.7601C96.1933 46.0801 95.5213 46.2401 94.764 46.2401C94.0066 46.2401 93.3293 46.0801 92.732 45.7601C92.1346 45.4294 91.66 44.9761 91.308 44.4001C90.9666 43.8134 90.796 43.1467 90.796 42.4001ZM92.572 42.4001C92.572 42.8587 92.668 43.2641 92.86 43.6161C93.052 43.9574 93.3133 44.2294 93.644 44.4321C93.9746 44.6241 94.348 44.7201 94.764 44.7201C95.1693 44.7201 95.5373 44.6241 95.868 44.4321C96.2093 44.2294 96.476 43.9574 96.668 43.6161C96.86 43.2641 96.956 42.8587 96.956 42.4001C96.956 41.9414 96.86 41.5361 96.668 41.1841C96.476 40.8321 96.2093 40.5601 95.868 40.3681C95.5373 40.1761 95.1693 40.0801 94.764 40.0801C94.348 40.0801 93.9746 40.1761 93.644 40.3681C93.3133 40.5601 93.052 40.8321 92.86 41.1841C92.668 41.5361 92.572 41.9414 92.572 42.4001ZM99.9556 46.5761H101.668C101.678 46.9067 101.769 47.2054 101.94 47.4721C102.121 47.7387 102.366 47.9467 102.676 48.0961C102.985 48.2454 103.342 48.3201 103.748 48.3201C104.11 48.3201 104.457 48.2347 104.788 48.0641C105.118 47.8934 105.385 47.6321 105.588 47.2801C105.801 46.9281 105.908 46.4747 105.908 45.9201V38.7201H107.604V45.9201C107.604 46.8054 107.422 47.5361 107.06 48.1121C106.708 48.6881 106.244 49.1147 105.668 49.3921C105.092 49.6801 104.468 49.8241 103.796 49.8241C102.996 49.8241 102.313 49.6854 101.748 49.4081C101.182 49.1414 100.745 48.7627 100.436 48.2721C100.137 47.7814 99.9769 47.2161 99.9556 46.5761ZM99.8116 42.3681C99.8116 41.5467 99.9769 40.8587 100.308 40.3041C100.638 39.7387 101.076 39.3067 101.62 39.0081C102.174 38.7094 102.766 38.5601 103.396 38.5601C104.014 38.5601 104.553 38.7147 105.012 39.0241C105.481 39.3227 105.849 39.7547 106.116 40.3201C106.393 40.8854 106.532 41.5681 106.532 42.3681C106.532 43.1574 106.393 43.8347 106.116 44.4001C105.849 44.9654 105.481 45.4027 105.012 45.7121C104.553 46.0107 104.014 46.1601 103.396 46.1601C102.766 46.1601 102.174 46.0107 101.62 45.7121C101.076 45.4134 100.638 44.9814 100.308 44.4161C99.9769 43.8507 99.8116 43.1681 99.8116 42.3681ZM101.604 42.3681C101.604 42.8587 101.705 43.2747 101.908 43.6161C102.11 43.9574 102.377 44.2187 102.708 44.4001C103.049 44.5707 103.417 44.6561 103.812 44.6561C104.142 44.6561 104.468 44.5707 104.788 44.4001C105.118 44.2294 105.385 43.9734 105.588 43.6321C105.801 43.2801 105.908 42.8587 105.908 42.3681C105.908 41.9841 105.844 41.6534 105.716 41.3761C105.598 41.0881 105.438 40.8481 105.236 40.6561C105.033 40.4534 104.804 40.3041 104.548 40.2081C104.302 40.1121 104.057 40.0641 103.812 40.0641C103.417 40.0641 103.049 40.1547 102.708 40.3361C102.377 40.5067 102.11 40.7627 101.908 41.1041C101.705 41.4454 101.604 41.8667 101.604 42.3681ZM109.747 33.6001H111.475V46.0801H109.747V33.6001ZM116.884 46.2401C116.137 46.2401 115.476 46.0801 114.9 45.7601C114.335 45.4401 113.897 44.9921 113.588 44.4161C113.279 43.8401 113.124 43.1681 113.124 42.4001C113.124 41.6214 113.279 40.9441 113.588 40.3681C113.908 39.7921 114.356 39.3494 114.932 39.0401C115.508 38.7201 116.185 38.5601 116.964 38.5601C117.743 38.5601 118.404 38.7094 118.948 39.0081C119.492 39.3067 119.908 39.7387 120.196 40.3041C120.495 40.8587 120.644 41.5307 120.644 42.3201C120.644 42.4054 120.639 42.4961 120.628 42.5921C120.628 42.6881 120.623 42.7574 120.612 42.8001H114.148V41.6161H119.14L118.612 42.3521C118.644 42.2881 118.676 42.2027 118.708 42.0961C118.751 41.9787 118.772 41.8827 118.772 41.8081C118.772 41.4134 118.692 41.0721 118.532 40.7841C118.383 40.4961 118.169 40.2721 117.892 40.1121C117.625 39.9521 117.311 39.8721 116.948 39.8721C116.511 39.8721 116.137 39.9681 115.828 40.1601C115.519 40.3521 115.284 40.6294 115.124 40.9921C114.964 41.3547 114.879 41.8027 114.868 42.3361C114.868 42.8694 114.948 43.3227 115.108 43.6961C115.268 44.0587 115.503 44.3361 115.812 44.5281C116.132 44.7201 116.516 44.8161 116.964 44.8161C117.433 44.8161 117.844 44.7201 118.196 44.5281C118.548 44.3361 118.841 44.0427 119.076 43.6481L120.564 44.2561C120.18 44.9174 119.684 45.4134 119.076 45.7441C118.468 46.0747 117.737 46.2401 116.884 46.2401ZM127.234 34.8801H129.122V46.0801H127.234V34.8801ZM128.354 36.5441V34.8801H130.61C131.421 34.8801 132.125 35.0241 132.722 35.3121C133.33 35.5894 133.8 35.9894 134.13 36.5121C134.461 37.0241 134.626 37.6374 134.626 38.3521C134.626 39.0667 134.461 39.6854 134.13 40.2081C133.8 40.7307 133.33 41.1361 132.722 41.4241C132.125 41.7014 131.421 41.8401 130.61 41.8401H128.354V40.1761H130.61C131.261 40.1761 131.784 40.0214 132.178 39.7121C132.573 39.4027 132.77 38.9494 132.77 38.3521C132.77 37.7547 132.573 37.3067 132.178 37.0081C131.784 36.6987 131.261 36.5441 130.61 36.5441H128.354ZM136.34 33.6001H138.068V46.0801H136.34V33.6001ZM141.366 43.7921C141.366 44.0374 141.424 44.2507 141.542 44.4321C141.659 44.6027 141.819 44.7307 142.022 44.8161C142.235 44.9014 142.475 44.9441 142.742 44.9441C143.083 44.9441 143.392 44.8747 143.67 44.7361C143.958 44.5974 144.187 44.3947 144.358 44.1281C144.539 43.8507 144.63 43.5307 144.63 43.1681L144.886 44.1281C144.886 44.5974 144.747 44.9921 144.47 45.3121C144.203 45.6214 143.862 45.8561 143.446 46.0161C143.04 46.1654 142.624 46.2401 142.198 46.2401C141.739 46.2401 141.312 46.1494 140.918 45.9681C140.523 45.7867 140.208 45.5201 139.974 45.1681C139.739 44.8161 139.622 44.3894 139.622 43.8881C139.622 43.1734 139.872 42.6081 140.374 42.1921C140.875 41.7654 141.584 41.5521 142.502 41.5521C142.992 41.5521 143.414 41.6054 143.766 41.7121C144.128 41.8187 144.427 41.9467 144.662 42.0961C144.896 42.2347 145.062 42.3627 145.158 42.4801V43.3601C144.827 43.1254 144.475 42.9547 144.102 42.8481C143.728 42.7414 143.334 42.6881 142.918 42.6881C142.555 42.6881 142.262 42.7361 142.038 42.8321C141.814 42.9174 141.643 43.0401 141.526 43.2001C141.419 43.3601 141.366 43.5574 141.366 43.7921ZM140.822 40.6401L140.118 39.4241C140.448 39.2214 140.875 39.0241 141.398 38.8321C141.931 38.6401 142.539 38.5441 143.222 38.5441C143.83 38.5441 144.363 38.6347 144.822 38.8161C145.291 38.9974 145.659 39.2587 145.926 39.6001C146.192 39.9307 146.326 40.3414 146.326 40.8321V46.0801H144.63V41.1681C144.63 40.9334 144.587 40.7414 144.502 40.5921C144.427 40.4427 144.32 40.3201 144.182 40.2241C144.043 40.1281 143.878 40.0587 143.686 40.0161C143.494 39.9734 143.286 39.9521 143.062 39.9521C142.72 39.9521 142.395 39.9947 142.086 40.0801C141.787 40.1547 141.526 40.2507 141.302 40.3681C141.088 40.4747 140.928 40.5654 140.822 40.6401ZM154.774 38.7201L149.974 49.6001H148.134L150.054 45.2161L147.094 38.7201H149.078L151.43 44.5441L150.614 44.4961L152.918 38.7201H154.774Z" fill="white"/>
</svg>
