<svg width="178" height="46" viewBox="0 0 178 46" fill="none" xmlns="http://www.w3.org/2000/svg">
<rect y="0.8125" width="178" height="44.7917" rx="8" fill="#202124"/>
<path d="M35.2344 23.0869L24.875 12.6807L38.0469 20.2744L35.2344 23.0869ZM22.2031 12.0713L34.2031 24.0713L22.2031 36.0713C21.5938 35.79 21.1719 35.1807 21.1719 34.4307V13.7588C21.1719 13.0088 21.5938 12.3994 22.2031 12.0713ZM42.125 22.665C43.0156 23.3213 43.0156 24.8682 42.1719 25.5244L39.3594 27.1182L36.2656 24.0713L39.3594 21.0713L42.125 22.665ZM24.875 35.4619L35.2344 25.1025L38.0469 27.915L24.875 35.4619Z" fill="white"/>
<path d="M55.87 12.2835H57.06V22.0835H55.87V12.2835ZM58.81 22.0835H56.528V20.8935H58.81C59.3607 20.8935 59.8647 20.8095 60.322 20.6415C60.7793 20.4642 61.1713 20.2168 61.498 19.8995C61.8247 19.5728 62.0767 19.1808 62.254 18.7235C62.4313 18.2662 62.52 17.7528 62.52 17.1835C62.52 16.6142 62.4313 16.1008 62.254 15.6435C62.0767 15.1862 61.8247 14.7988 61.498 14.4815C61.1713 14.1548 60.7793 13.9075 60.322 13.7395C59.8647 13.5622 59.3607 13.4735 58.81 13.4735H56.528V12.2835H58.81C59.762 12.2835 60.6067 12.4888 61.344 12.8995C62.0813 13.3102 62.66 13.8842 63.08 14.6215C63.5 15.3495 63.71 16.2035 63.71 17.1835C63.71 18.1635 63.5 19.0222 63.08 19.7595C62.66 20.4875 62.0813 21.0568 61.344 21.4675C60.6067 21.8782 59.762 22.0835 58.81 22.0835ZM64.7556 18.8635C64.7556 18.2102 64.9003 17.6315 65.1896 17.1275C65.4883 16.6235 65.8896 16.2268 66.3936 15.9375C66.8976 15.6482 67.4623 15.5035 68.0876 15.5035C68.7223 15.5035 69.287 15.6482 69.7816 15.9375C70.2856 16.2268 70.6823 16.6235 70.9716 17.1275C71.2703 17.6315 71.4196 18.2102 71.4196 18.8635C71.4196 19.5075 71.2703 20.0862 70.9716 20.5995C70.6823 21.1035 70.2856 21.5002 69.7816 21.7895C69.287 22.0788 68.7223 22.2235 68.0876 22.2235C67.4623 22.2235 66.8976 22.0788 66.3936 21.7895C65.8896 21.5002 65.4883 21.1035 65.1896 20.5995C64.9003 20.0862 64.7556 19.5075 64.7556 18.8635ZM65.8896 18.8635C65.8896 19.3115 65.983 19.7082 66.1696 20.0535C66.3656 20.3988 66.627 20.6742 66.9536 20.8795C67.2896 21.0755 67.6676 21.1735 68.0876 21.1735C68.5076 21.1735 68.881 21.0755 69.2076 20.8795C69.5436 20.6742 69.805 20.3988 69.9916 20.0535C70.1876 19.7082 70.2856 19.3115 70.2856 18.8635C70.2856 18.4155 70.1876 18.0188 69.9916 17.6735C69.805 17.3188 69.5436 17.0435 69.2076 16.8475C68.881 16.6515 68.5076 16.5535 68.0876 16.5535C67.6676 16.5535 67.2896 16.6515 66.9536 16.8475C66.627 17.0435 66.3656 17.3188 66.1696 17.6735C65.983 18.0188 65.8896 18.4155 65.8896 18.8635ZM71.7731 15.6435H73.0331L74.6431 19.8295L76.3931 15.1535L78.2691 19.8575L79.8931 15.6435H81.1531L78.3531 22.5735L76.4071 17.8835L74.5731 22.5735L71.7731 15.6435ZM86.3988 18.1635C86.3988 17.6315 86.2821 17.2302 86.0488 16.9595C85.8154 16.6888 85.4748 16.5535 85.0268 16.5535C84.7001 16.5535 84.4108 16.6235 84.1588 16.7635C83.9161 16.8942 83.7248 17.0808 83.5848 17.3235C83.4541 17.5662 83.3888 17.8462 83.3888 18.1635V22.0835H82.2688V15.6435H83.3888V16.6515C83.6034 16.2595 83.8694 15.9702 84.1868 15.7835C84.5134 15.5968 84.8868 15.5035 85.3068 15.5035C85.9881 15.5035 86.5248 15.7322 86.9168 16.1895C87.3181 16.6375 87.5188 17.2488 87.5188 18.0235V22.0835H86.3988V18.1635ZM89.6242 11.1635H90.7442V22.0835H89.6242V11.1635ZM92.2908 18.8635C92.2908 18.2102 92.4354 17.6315 92.7248 17.1275C93.0234 16.6235 93.4248 16.2268 93.9288 15.9375C94.4328 15.6482 94.9974 15.5035 95.6228 15.5035C96.2574 15.5035 96.8221 15.6482 97.3168 15.9375C97.8208 16.2268 98.2174 16.6235 98.5068 17.1275C98.8054 17.6315 98.9548 18.2102 98.9548 18.8635C98.9548 19.5075 98.8054 20.0862 98.5068 20.5995C98.2174 21.1035 97.8208 21.5002 97.3168 21.7895C96.8221 22.0788 96.2574 22.2235 95.6228 22.2235C94.9974 22.2235 94.4328 22.0788 93.9288 21.7895C93.4248 21.5002 93.0234 21.1035 92.7248 20.5995C92.4354 20.0862 92.2908 19.5075 92.2908 18.8635ZM93.4248 18.8635C93.4248 19.3115 93.5181 19.7082 93.7048 20.0535C93.9008 20.3988 94.1621 20.6742 94.4888 20.8795C94.8248 21.0755 95.2028 21.1735 95.6228 21.1735C96.0428 21.1735 96.4161 21.0755 96.7428 20.8795C97.0788 20.6742 97.3401 20.3988 97.5268 20.0535C97.7228 19.7082 97.8208 19.3115 97.8208 18.8635C97.8208 18.4155 97.7228 18.0188 97.5268 17.6735C97.3401 17.3188 97.0788 17.0435 96.7428 16.8475C96.4161 16.6515 96.0428 16.5535 95.6228 16.5535C95.2028 16.5535 94.8248 16.6515 94.4888 16.8475C94.1621 17.0435 93.9008 17.3188 93.7048 17.6735C93.5181 18.0188 93.4248 18.4155 93.4248 18.8635ZM100.997 20.0955C100.997 20.3382 101.053 20.5482 101.165 20.7255C101.287 20.9028 101.45 21.0382 101.655 21.1315C101.87 21.2155 102.113 21.2575 102.383 21.2575C102.729 21.2575 103.037 21.1875 103.307 21.0475C103.587 20.9075 103.807 20.7115 103.965 20.4595C104.133 20.1982 104.217 19.8995 104.217 19.5635L104.441 20.4035C104.441 20.8142 104.315 21.1548 104.063 21.4255C103.821 21.6962 103.517 21.8968 103.153 22.0275C102.799 22.1582 102.444 22.2235 102.089 22.2235C101.697 22.2235 101.329 22.1442 100.983 21.9855C100.647 21.8175 100.377 21.5795 100.171 21.2715C99.966 20.9635 99.8634 20.5902 99.8634 20.1515C99.8634 19.5262 100.083 19.0268 100.521 18.6535C100.969 18.2708 101.59 18.0795 102.383 18.0795C102.85 18.0795 103.237 18.1355 103.545 18.2475C103.863 18.3502 104.115 18.4715 104.301 18.6115C104.488 18.7422 104.614 18.8495 104.679 18.9335V19.5915C104.353 19.3675 104.017 19.2088 103.671 19.1155C103.326 19.0128 102.957 18.9615 102.565 18.9615C102.201 18.9615 101.903 19.0082 101.669 19.1015C101.445 19.1948 101.277 19.3255 101.165 19.4935C101.053 19.6615 100.997 19.8622 100.997 20.0955ZM100.829 17.1275L100.283 16.3015C100.526 16.1242 100.857 15.9468 101.277 15.7695C101.707 15.5922 102.22 15.5035 102.817 15.5035C103.321 15.5035 103.76 15.5828 104.133 15.7415C104.516 15.8908 104.81 16.1102 105.015 16.3995C105.23 16.6888 105.337 17.0435 105.337 17.4635V22.0835H104.217V17.6175C104.217 17.3935 104.18 17.2115 104.105 17.0715C104.031 16.9222 103.923 16.8055 103.783 16.7215C103.653 16.6375 103.499 16.5768 103.321 16.5395C103.144 16.5022 102.957 16.4835 102.761 16.4835C102.444 16.4835 102.155 16.5208 101.893 16.5955C101.641 16.6702 101.427 16.7588 101.249 16.8615C101.072 16.9642 100.932 17.0528 100.829 17.1275ZM112.064 11.1635H113.184V22.0835H112.064V11.1635ZM106.674 18.8635C106.674 18.1635 106.818 17.5662 107.108 17.0715C107.397 16.5675 107.784 16.1802 108.27 15.9095C108.755 15.6388 109.287 15.5035 109.866 15.5035C110.407 15.5035 110.878 15.6388 111.28 15.9095C111.681 16.1802 111.994 16.5675 112.218 17.0715C112.451 17.5662 112.568 18.1635 112.568 18.8635C112.568 19.5542 112.451 20.1515 112.218 20.6555C111.994 21.1595 111.681 21.5468 111.28 21.8175C110.878 22.0882 110.407 22.2235 109.866 22.2235C109.287 22.2235 108.755 22.0882 108.27 21.8175C107.784 21.5468 107.397 21.1595 107.108 20.6555C106.818 20.1515 106.674 19.5542 106.674 18.8635ZM107.808 18.8635C107.808 19.3582 107.906 19.7782 108.102 20.1235C108.307 20.4688 108.578 20.7302 108.914 20.9075C109.25 21.0848 109.614 21.1735 110.006 21.1735C110.332 21.1735 110.654 21.0848 110.972 20.9075C111.289 20.7302 111.55 20.4688 111.756 20.1235C111.961 19.7782 112.064 19.3582 112.064 18.8635C112.064 18.3688 111.961 17.9488 111.756 17.6035C111.55 17.2582 111.289 16.9968 110.972 16.8195C110.654 16.6422 110.332 16.5535 110.006 16.5535C109.614 16.5535 109.25 16.6422 108.914 16.8195C108.578 16.9968 108.307 17.2582 108.102 17.6035C107.906 17.9488 107.808 18.3688 107.808 18.8635ZM118.855 18.8635C118.855 18.2102 119 17.6315 119.289 17.1275C119.588 16.6235 119.989 16.2268 120.493 15.9375C120.997 15.6482 121.562 15.5035 122.187 15.5035C122.822 15.5035 123.387 15.6482 123.881 15.9375C124.385 16.2268 124.782 16.6235 125.071 17.1275C125.37 17.6315 125.519 18.2102 125.519 18.8635C125.519 19.5075 125.37 20.0862 125.071 20.5995C124.782 21.1035 124.385 21.5002 123.881 21.7895C123.387 22.0788 122.822 22.2235 122.187 22.2235C121.562 22.2235 120.997 22.0788 120.493 21.7895C119.989 21.5002 119.588 21.1035 119.289 20.5995C119 20.0862 118.855 19.5075 118.855 18.8635ZM119.989 18.8635C119.989 19.3115 120.083 19.7082 120.269 20.0535C120.465 20.3988 120.727 20.6742 121.053 20.8795C121.389 21.0755 121.767 21.1735 122.187 21.1735C122.607 21.1735 122.981 21.0755 123.307 20.8795C123.643 20.6742 123.905 20.3988 124.091 20.0535C124.287 19.7082 124.385 19.3115 124.385 18.8635C124.385 18.4155 124.287 18.0188 124.091 17.6735C123.905 17.3188 123.643 17.0435 123.307 16.8475C122.981 16.6515 122.607 16.5535 122.187 16.5535C121.767 16.5535 121.389 16.6515 121.053 16.8475C120.727 17.0435 120.465 17.3188 120.269 17.6735C120.083 18.0188 119.989 18.4155 119.989 18.8635ZM131.188 18.1635C131.188 17.6315 131.071 17.2302 130.838 16.9595C130.604 16.6888 130.264 16.5535 129.816 16.5535C129.489 16.5535 129.2 16.6235 128.948 16.7635C128.705 16.8942 128.514 17.0808 128.374 17.3235C128.243 17.5662 128.178 17.8462 128.178 18.1635V22.0835H127.058V15.6435H128.178V16.6515C128.392 16.2595 128.658 15.9702 128.976 15.7835C129.302 15.5968 129.676 15.5035 130.096 15.5035C130.777 15.5035 131.314 15.7322 131.706 16.1895C132.107 16.6375 132.308 17.2488 132.308 18.0235V22.0835H131.188V18.1635ZM137.631 15.6435H140.851V16.6935H137.631V15.6435ZM138.681 13.4035H139.801V22.0835H138.681V13.4035ZM143.094 11.1635V22.0835H141.974V11.1635H143.094ZM146.104 18.1635C146.104 17.6315 145.987 17.2302 145.754 16.9595C145.53 16.6888 145.189 16.5535 144.732 16.5535C144.405 16.5535 144.116 16.6235 143.864 16.7635C143.621 16.9035 143.43 17.0948 143.29 17.3375C143.159 17.5802 143.094 17.8555 143.094 18.1635H142.73C142.73 17.6502 142.828 17.1975 143.024 16.8055C143.22 16.4042 143.486 16.0868 143.822 15.8535C144.167 15.6202 144.564 15.5035 145.012 15.5035C145.46 15.5035 145.847 15.5968 146.174 15.7835C146.51 15.9702 146.766 16.2502 146.944 16.6235C147.13 16.9968 147.224 17.4635 147.224 18.0235V22.0835H146.104V18.1635ZM151.821 22.2235C151.224 22.2235 150.692 22.0835 150.225 21.8035C149.768 21.5142 149.409 21.1175 149.147 20.6135C148.895 20.1095 148.769 19.5262 148.769 18.8635C148.769 18.1915 148.9 17.6035 149.161 17.0995C149.432 16.5955 149.805 16.2035 150.281 15.9235C150.767 15.6435 151.327 15.5035 151.961 15.5035C152.596 15.5035 153.137 15.6388 153.585 15.9095C154.043 16.1708 154.393 16.5488 154.635 17.0435C154.878 17.5382 154.999 18.1262 154.999 18.8075C154.999 18.8728 154.995 18.9428 154.985 19.0175C154.985 19.0828 154.985 19.1248 154.985 19.1435H149.483V18.1915H154.103L153.655 18.8355C153.683 18.7888 153.711 18.7188 153.739 18.6255C153.767 18.5228 153.781 18.4388 153.781 18.3735C153.781 17.9908 153.702 17.6595 153.543 17.3795C153.394 17.0995 153.184 16.8802 152.913 16.7215C152.643 16.5628 152.325 16.4835 151.961 16.4835C151.532 16.4835 151.163 16.5768 150.855 16.7635C150.557 16.9408 150.323 17.2022 150.155 17.5475C149.997 17.8835 149.913 18.2988 149.903 18.7935C149.903 19.2975 149.983 19.7268 150.141 20.0815C150.3 20.4362 150.533 20.7068 150.841 20.8935C151.149 21.0802 151.523 21.1735 151.961 21.1735C152.4 21.1735 152.787 21.0802 153.123 20.8935C153.459 20.6975 153.744 20.4035 153.977 20.0115L154.887 20.5855C154.551 21.1268 154.127 21.5375 153.613 21.8175C153.109 22.0882 152.512 22.2235 151.821 22.2235Z" fill="white"/>
<path d="M61.326 32.369V30.769H66.718C66.7393 31.5903 66.6327 32.369 66.398 33.105C66.1633 33.8303 65.8113 34.4757 65.342 35.041C64.8727 35.6063 64.286 36.0543 63.582 36.385C62.8887 36.705 62.0993 36.865 61.214 36.865C60.3713 36.865 59.5927 36.7263 58.878 36.449C58.1633 36.161 57.5393 35.7557 57.006 35.233C56.4833 34.7103 56.078 34.0917 55.79 33.377C55.502 32.6623 55.358 31.8783 55.358 31.025C55.358 30.1717 55.502 29.393 55.79 28.689C56.0887 27.9743 56.4993 27.361 57.022 26.849C57.5553 26.3263 58.1793 25.9263 58.894 25.649C59.6193 25.3717 60.4033 25.233 61.246 25.233C61.982 25.233 62.6487 25.3343 63.246 25.537C63.8433 25.729 64.3767 26.0117 64.846 26.385C65.326 26.7477 65.7313 27.1903 66.062 27.713L64.526 28.737C64.2167 28.2037 63.7847 27.777 63.23 27.457C62.686 27.137 62.0247 26.977 61.246 26.977C60.5207 26.977 59.8647 27.1477 59.278 27.489C58.6913 27.8197 58.222 28.289 57.87 28.897C57.518 29.4943 57.342 30.2037 57.342 31.025C57.342 31.8357 57.5127 32.5503 57.854 33.169C58.206 33.777 58.6753 34.2517 59.262 34.593C59.8487 34.9343 60.51 35.105 61.246 35.105C61.7473 35.105 62.1953 35.0357 62.59 34.897C62.9847 34.7583 63.326 34.561 63.614 34.305C63.902 34.049 64.142 33.7557 64.334 33.425C64.526 33.0943 64.67 32.7423 64.766 32.369H61.326ZM67.9503 32.945C67.9503 32.1877 68.1209 31.521 68.4622 30.945C68.8143 30.369 69.2889 29.921 69.8863 29.601C70.4836 29.2703 71.1609 29.105 71.9183 29.105C72.6756 29.105 73.3476 29.2703 73.9343 29.601C74.5316 29.921 75.0063 30.369 75.3583 30.945C75.7103 31.521 75.8863 32.1877 75.8863 32.945C75.8863 33.6917 75.7103 34.3583 75.3583 34.945C75.0063 35.521 74.5316 35.9743 73.9343 36.305C73.3476 36.625 72.6756 36.785 71.9183 36.785C71.1609 36.785 70.4836 36.625 69.8863 36.305C69.2889 35.9743 68.8143 35.521 68.4622 34.945C68.1209 34.3583 67.9503 33.6917 67.9503 32.945ZM69.7263 32.945C69.7263 33.4037 69.8223 33.809 70.0143 34.161C70.2063 34.5023 70.4676 34.7743 70.7983 34.977C71.1289 35.169 71.5023 35.265 71.9183 35.265C72.3236 35.265 72.6916 35.169 73.0223 34.977C73.3636 34.7743 73.6303 34.5023 73.8223 34.161C74.0143 33.809 74.1103 33.4037 74.1103 32.945C74.1103 32.4863 74.0143 32.081 73.8223 31.729C73.6303 31.377 73.3636 31.105 73.0223 30.913C72.6916 30.721 72.3236 30.625 71.9183 30.625C71.5023 30.625 71.1289 30.721 70.7983 30.913C70.4676 31.105 70.2063 31.377 70.0143 31.729C69.8223 32.081 69.7263 32.4863 69.7263 32.945ZM76.9659 32.945C76.9659 32.1877 77.1365 31.521 77.4779 30.945C77.8299 30.369 78.3045 29.921 78.9019 29.601C79.4992 29.2703 80.1765 29.105 80.9339 29.105C81.6912 29.105 82.3632 29.2703 82.9499 29.601C83.5472 29.921 84.0219 30.369 84.3739 30.945C84.7259 31.521 84.9019 32.1877 84.9019 32.945C84.9019 33.6917 84.7259 34.3583 84.3739 34.945C84.0219 35.521 83.5472 35.9743 82.9499 36.305C82.3632 36.625 81.6912 36.785 80.9339 36.785C80.1765 36.785 79.4992 36.625 78.9019 36.305C78.3045 35.9743 77.8299 35.521 77.4779 34.945C77.1365 34.3583 76.9659 33.6917 76.9659 32.945ZM78.7419 32.945C78.7419 33.4037 78.8379 33.809 79.0299 34.161C79.2219 34.5023 79.4832 34.7743 79.8139 34.977C80.1445 35.169 80.5179 35.265 80.9339 35.265C81.3392 35.265 81.7072 35.169 82.0379 34.977C82.3792 34.7743 82.6459 34.5023 82.8379 34.161C83.0299 33.809 83.1259 33.4037 83.1259 32.945C83.1259 32.4863 83.0299 32.081 82.8379 31.729C82.6459 31.377 82.3792 31.105 82.0379 30.913C81.7072 30.721 81.3392 30.625 80.9339 30.625C80.5179 30.625 80.1445 30.721 79.8139 30.913C79.4832 31.105 79.2219 31.377 79.0299 31.729C78.8379 32.081 78.7419 32.4863 78.7419 32.945ZM86.1255 37.121H87.8375C87.8482 37.4517 87.9388 37.7503 88.1095 38.017C88.2908 38.2837 88.5362 38.4917 88.8455 38.641C89.1548 38.7903 89.5122 38.865 89.9175 38.865C90.2802 38.865 90.6268 38.7797 90.9575 38.609C91.2882 38.4383 91.5548 38.177 91.7575 37.825C91.9708 37.473 92.0775 37.0197 92.0775 36.465V29.265H93.7735V36.465C93.7735 37.3503 93.5922 38.081 93.2295 38.657C92.8775 39.233 92.4135 39.6597 91.8375 39.937C91.2615 40.225 90.6375 40.369 89.9655 40.369C89.1655 40.369 88.4828 40.2303 87.9175 39.953C87.3522 39.6863 86.9148 39.3077 86.6055 38.817C86.3068 38.3263 86.1468 37.761 86.1255 37.121ZM85.9815 32.913C85.9815 32.0917 86.1468 31.4037 86.4775 30.849C86.8082 30.2837 87.2455 29.8517 87.7895 29.553C88.3442 29.2543 88.9362 29.105 89.5655 29.105C90.1842 29.105 90.7228 29.2597 91.1815 29.569C91.6508 29.8677 92.0188 30.2997 92.2855 30.865C92.5628 31.4303 92.7015 32.113 92.7015 32.913C92.7015 33.7023 92.5628 34.3797 92.2855 34.945C92.0188 35.5103 91.6508 35.9477 91.1815 36.257C90.7228 36.5557 90.1842 36.705 89.5655 36.705C88.9362 36.705 88.3442 36.5557 87.7895 36.257C87.2455 35.9583 86.8082 35.5263 86.4775 34.961C86.1468 34.3957 85.9815 33.713 85.9815 32.913ZM87.7735 32.913C87.7735 33.4037 87.8748 33.8197 88.0775 34.161C88.2802 34.5023 88.5468 34.7637 88.8775 34.945C89.2188 35.1157 89.5868 35.201 89.9815 35.201C90.3122 35.201 90.6375 35.1157 90.9575 34.945C91.2882 34.7743 91.5548 34.5183 91.7575 34.177C91.9708 33.825 92.0775 33.4037 92.0775 32.913C92.0775 32.529 92.0135 32.1983 91.8855 31.921C91.7682 31.633 91.6082 31.393 91.4055 31.201C91.2028 30.9983 90.9735 30.849 90.7175 30.753C90.4722 30.657 90.2268 30.609 89.9815 30.609C89.5868 30.609 89.2188 30.6997 88.8775 30.881C88.5468 31.0517 88.2802 31.3077 88.0775 31.649C87.8748 31.9903 87.7735 32.4117 87.7735 32.913ZM95.9165 24.145H97.6445V36.625H95.9165V24.145ZM103.054 36.785C102.307 36.785 101.646 36.625 101.07 36.305C100.505 35.985 100.067 35.537 99.758 34.961C99.4487 34.385 99.294 33.713 99.294 32.945C99.294 32.1663 99.4487 31.489 99.758 30.913C100.078 30.337 100.526 29.8943 101.102 29.585C101.678 29.265 102.355 29.105 103.134 29.105C103.913 29.105 104.574 29.2543 105.118 29.553C105.662 29.8517 106.078 30.2837 106.366 30.849C106.665 31.4037 106.814 32.0757 106.814 32.865C106.814 32.9503 106.809 33.041 106.798 33.137C106.798 33.233 106.793 33.3023 106.782 33.345H100.318V32.161H105.31L104.782 32.897C104.814 32.833 104.846 32.7477 104.878 32.641C104.921 32.5237 104.942 32.4277 104.942 32.353C104.942 31.9583 104.862 31.617 104.702 31.329C104.553 31.041 104.339 30.817 104.062 30.657C103.795 30.497 103.481 30.417 103.118 30.417C102.681 30.417 102.307 30.513 101.998 30.705C101.689 30.897 101.454 31.1743 101.294 31.537C101.134 31.8997 101.049 32.3477 101.038 32.881C101.038 33.4143 101.118 33.8677 101.278 34.241C101.438 34.6037 101.673 34.881 101.982 35.073C102.302 35.265 102.686 35.361 103.134 35.361C103.603 35.361 104.014 35.265 104.366 35.073C104.718 34.881 105.011 34.5877 105.246 34.193L106.734 34.801C106.35 35.4623 105.854 35.9583 105.246 36.289C104.638 36.6197 103.907 36.785 103.054 36.785ZM113.404 25.425H115.292V36.625H113.404V25.425ZM114.524 27.089V25.425H116.78C117.591 25.425 118.295 25.569 118.892 25.857C119.5 26.1343 119.97 26.5343 120.3 27.057C120.631 27.569 120.796 28.1823 120.796 28.897C120.796 29.6117 120.631 30.2303 120.3 30.753C119.97 31.2757 119.5 31.681 118.892 31.969C118.295 32.2463 117.591 32.385 116.78 32.385H114.524V30.721H116.78C117.431 30.721 117.954 30.5663 118.348 30.257C118.743 29.9477 118.94 29.4943 118.94 28.897C118.94 28.2997 118.743 27.8517 118.348 27.553C117.954 27.2437 117.431 27.089 116.78 27.089H114.524ZM122.51 24.145H124.238V36.625H122.51V24.145ZM127.536 34.337C127.536 34.5823 127.594 34.7957 127.712 34.977C127.829 35.1477 127.989 35.2757 128.192 35.361C128.405 35.4463 128.645 35.489 128.912 35.489C129.253 35.489 129.562 35.4197 129.84 35.281C130.128 35.1423 130.357 34.9397 130.528 34.673C130.709 34.3957 130.8 34.0757 130.8 33.713L131.056 34.673C131.056 35.1423 130.917 35.537 130.64 35.857C130.373 36.1663 130.032 36.401 129.616 36.561C129.21 36.7103 128.794 36.785 128.368 36.785C127.909 36.785 127.482 36.6943 127.088 36.513C126.693 36.3317 126.378 36.065 126.144 35.713C125.909 35.361 125.792 34.9343 125.792 34.433C125.792 33.7183 126.042 33.153 126.544 32.737C127.045 32.3103 127.754 32.097 128.672 32.097C129.162 32.097 129.584 32.1503 129.936 32.257C130.298 32.3637 130.597 32.4917 130.832 32.641C131.066 32.7797 131.232 32.9077 131.328 33.025V33.905C130.997 33.6703 130.645 33.4997 130.272 33.393C129.898 33.2863 129.504 33.233 129.088 33.233C128.725 33.233 128.432 33.281 128.208 33.377C127.984 33.4623 127.813 33.585 127.696 33.745C127.589 33.905 127.536 34.1023 127.536 34.337ZM126.992 31.185L126.288 29.969C126.618 29.7663 127.045 29.569 127.568 29.377C128.101 29.185 128.709 29.089 129.392 29.089C130 29.089 130.533 29.1797 130.992 29.361C131.461 29.5423 131.829 29.8037 132.096 30.145C132.362 30.4757 132.496 30.8863 132.496 31.377V36.625H130.8V31.713C130.8 31.4783 130.757 31.2863 130.672 31.137C130.597 30.9877 130.49 30.865 130.352 30.769C130.213 30.673 130.048 30.6037 129.856 30.561C129.664 30.5183 129.456 30.497 129.232 30.497C128.89 30.497 128.565 30.5397 128.256 30.625C127.957 30.6997 127.696 30.7957 127.472 30.913C127.258 31.0197 127.098 31.1103 126.992 31.185ZM140.944 29.265L136.144 40.145H134.304L136.224 35.761L133.264 29.265H135.248L137.6 35.089L136.784 35.041L139.088 29.265H140.944Z" fill="white"/>
</svg>
