<svg width="178" height="46" viewBox="0 0 178 46" fill="none" xmlns="http://www.w3.org/2000/svg">
<rect y="0.8125" width="178" height="44.7917" rx="8" fill="#202124"/>
<path d="M38.6328 24.583C38.6328 24.7002 38.457 28.1572 42.2656 29.9736C41.5625 32.1416 39.1016 36.9463 36.2305 36.9463C34.5898 36.9463 33.6523 35.8916 31.7773 35.8916C29.8438 35.8916 28.7891 36.9463 27.3242 36.9463C24.5117 37.0635 21.8164 31.79 21.0547 29.6221C20.4688 27.9814 20.2344 26.3994 20.2344 24.876C20.2344 19.6611 23.6914 17.1416 26.9727 17.083C28.5547 17.083 30.5469 18.1963 31.4258 18.1963C32.2461 18.1963 34.5312 16.8486 36.6406 17.0244C38.8086 17.2002 40.4492 18.0205 41.5625 19.6025C39.6289 20.833 38.6328 22.415 38.6328 24.583ZM35.3516 14.9736C34.1797 16.3213 32.7734 17.083 31.25 16.9658C31.1328 15.3838 31.7188 13.9189 32.7734 12.7471C33.7109 11.6924 35.3516 10.8135 36.7578 10.6963C36.7578 11.3408 36.9336 13.0986 35.3516 14.9736Z" fill="white"/>
<path d="M55.87 12.2835H57.06V22.0835H55.87V12.2835ZM58.81 22.0835H56.528V20.8935H58.81C59.3607 20.8935 59.8647 20.8095 60.322 20.6415C60.7793 20.4642 61.1713 20.2168 61.498 19.8995C61.8247 19.5728 62.0767 19.1808 62.254 18.7235C62.4313 18.2662 62.52 17.7528 62.52 17.1835C62.52 16.6142 62.4313 16.1008 62.254 15.6435C62.0767 15.1862 61.8247 14.7988 61.498 14.4815C61.1713 14.1548 60.7793 13.9075 60.322 13.7395C59.8647 13.5622 59.3607 13.4735 58.81 13.4735H56.528V12.2835H58.81C59.762 12.2835 60.6067 12.4888 61.344 12.8995C62.0813 13.3102 62.66 13.8842 63.08 14.6215C63.5 15.3495 63.71 16.2035 63.71 17.1835C63.71 18.1635 63.5 19.0222 63.08 19.7595C62.66 20.4875 62.0813 21.0568 61.344 21.4675C60.6067 21.8782 59.762 22.0835 58.81 22.0835ZM64.7556 18.8635C64.7556 18.2102 64.9003 17.6315 65.1896 17.1275C65.4883 16.6235 65.8896 16.2268 66.3936 15.9375C66.8976 15.6482 67.4623 15.5035 68.0876 15.5035C68.7223 15.5035 69.287 15.6482 69.7816 15.9375C70.2856 16.2268 70.6823 16.6235 70.9716 17.1275C71.2703 17.6315 71.4196 18.2102 71.4196 18.8635C71.4196 19.5075 71.2703 20.0862 70.9716 20.5995C70.6823 21.1035 70.2856 21.5002 69.7816 21.7895C69.287 22.0788 68.7223 22.2235 68.0876 22.2235C67.4623 22.2235 66.8976 22.0788 66.3936 21.7895C65.8896 21.5002 65.4883 21.1035 65.1896 20.5995C64.9003 20.0862 64.7556 19.5075 64.7556 18.8635ZM65.8896 18.8635C65.8896 19.3115 65.983 19.7082 66.1696 20.0535C66.3656 20.3988 66.627 20.6742 66.9536 20.8795C67.2896 21.0755 67.6676 21.1735 68.0876 21.1735C68.5076 21.1735 68.881 21.0755 69.2076 20.8795C69.5436 20.6742 69.805 20.3988 69.9916 20.0535C70.1876 19.7082 70.2856 19.3115 70.2856 18.8635C70.2856 18.4155 70.1876 18.0188 69.9916 17.6735C69.805 17.3188 69.5436 17.0435 69.2076 16.8475C68.881 16.6515 68.5076 16.5535 68.0876 16.5535C67.6676 16.5535 67.2896 16.6515 66.9536 16.8475C66.627 17.0435 66.3656 17.3188 66.1696 17.6735C65.983 18.0188 65.8896 18.4155 65.8896 18.8635ZM71.7731 15.6435H73.0331L74.6431 19.8295L76.3931 15.1535L78.2691 19.8575L79.8931 15.6435H81.1531L78.3531 22.5735L76.4071 17.8835L74.5731 22.5735L71.7731 15.6435ZM86.3988 18.1635C86.3988 17.6315 86.2821 17.2302 86.0488 16.9595C85.8154 16.6888 85.4748 16.5535 85.0268 16.5535C84.7001 16.5535 84.4108 16.6235 84.1588 16.7635C83.9161 16.8942 83.7248 17.0808 83.5848 17.3235C83.4541 17.5662 83.3888 17.8462 83.3888 18.1635V22.0835H82.2688V15.6435H83.3888V16.6515C83.6034 16.2595 83.8694 15.9702 84.1868 15.7835C84.5134 15.5968 84.8868 15.5035 85.3068 15.5035C85.9881 15.5035 86.5248 15.7322 86.9168 16.1895C87.3181 16.6375 87.5188 17.2488 87.5188 18.0235V22.0835H86.3988V18.1635ZM89.6242 11.1635H90.7442V22.0835H89.6242V11.1635ZM92.2908 18.8635C92.2908 18.2102 92.4354 17.6315 92.7248 17.1275C93.0234 16.6235 93.4248 16.2268 93.9288 15.9375C94.4328 15.6482 94.9974 15.5035 95.6228 15.5035C96.2574 15.5035 96.8221 15.6482 97.3168 15.9375C97.8208 16.2268 98.2174 16.6235 98.5068 17.1275C98.8054 17.6315 98.9548 18.2102 98.9548 18.8635C98.9548 19.5075 98.8054 20.0862 98.5068 20.5995C98.2174 21.1035 97.8208 21.5002 97.3168 21.7895C96.8221 22.0788 96.2574 22.2235 95.6228 22.2235C94.9974 22.2235 94.4328 22.0788 93.9288 21.7895C93.4248 21.5002 93.0234 21.1035 92.7248 20.5995C92.4354 20.0862 92.2908 19.5075 92.2908 18.8635ZM93.4248 18.8635C93.4248 19.3115 93.5181 19.7082 93.7048 20.0535C93.9008 20.3988 94.1621 20.6742 94.4888 20.8795C94.8248 21.0755 95.2028 21.1735 95.6228 21.1735C96.0428 21.1735 96.4161 21.0755 96.7428 20.8795C97.0788 20.6742 97.3401 20.3988 97.5268 20.0535C97.7228 19.7082 97.8208 19.3115 97.8208 18.8635C97.8208 18.4155 97.7228 18.0188 97.5268 17.6735C97.3401 17.3188 97.0788 17.0435 96.7428 16.8475C96.4161 16.6515 96.0428 16.5535 95.6228 16.5535C95.2028 16.5535 94.8248 16.6515 94.4888 16.8475C94.1621 17.0435 93.9008 17.3188 93.7048 17.6735C93.5181 18.0188 93.4248 18.4155 93.4248 18.8635ZM100.997 20.0955C100.997 20.3382 101.053 20.5482 101.165 20.7255C101.287 20.9028 101.45 21.0382 101.655 21.1315C101.87 21.2155 102.113 21.2575 102.383 21.2575C102.729 21.2575 103.037 21.1875 103.307 21.0475C103.587 20.9075 103.807 20.7115 103.965 20.4595C104.133 20.1982 104.217 19.8995 104.217 19.5635L104.441 20.4035C104.441 20.8142 104.315 21.1548 104.063 21.4255C103.821 21.6962 103.517 21.8968 103.153 22.0275C102.799 22.1582 102.444 22.2235 102.089 22.2235C101.697 22.2235 101.329 22.1442 100.983 21.9855C100.647 21.8175 100.377 21.5795 100.171 21.2715C99.966 20.9635 99.8634 20.5902 99.8634 20.1515C99.8634 19.5262 100.083 19.0268 100.521 18.6535C100.969 18.2708 101.59 18.0795 102.383 18.0795C102.85 18.0795 103.237 18.1355 103.545 18.2475C103.863 18.3502 104.115 18.4715 104.301 18.6115C104.488 18.7422 104.614 18.8495 104.679 18.9335V19.5915C104.353 19.3675 104.017 19.2088 103.671 19.1155C103.326 19.0128 102.957 18.9615 102.565 18.9615C102.201 18.9615 101.903 19.0082 101.669 19.1015C101.445 19.1948 101.277 19.3255 101.165 19.4935C101.053 19.6615 100.997 19.8622 100.997 20.0955ZM100.829 17.1275L100.283 16.3015C100.526 16.1242 100.857 15.9468 101.277 15.7695C101.707 15.5922 102.22 15.5035 102.817 15.5035C103.321 15.5035 103.76 15.5828 104.133 15.7415C104.516 15.8908 104.81 16.1102 105.015 16.3995C105.23 16.6888 105.337 17.0435 105.337 17.4635V22.0835H104.217V17.6175C104.217 17.3935 104.18 17.2115 104.105 17.0715C104.031 16.9222 103.923 16.8055 103.783 16.7215C103.653 16.6375 103.499 16.5768 103.321 16.5395C103.144 16.5022 102.957 16.4835 102.761 16.4835C102.444 16.4835 102.155 16.5208 101.893 16.5955C101.641 16.6702 101.427 16.7588 101.249 16.8615C101.072 16.9642 100.932 17.0528 100.829 17.1275ZM112.064 11.1635H113.184V22.0835H112.064V11.1635ZM106.674 18.8635C106.674 18.1635 106.818 17.5662 107.108 17.0715C107.397 16.5675 107.784 16.1802 108.27 15.9095C108.755 15.6388 109.287 15.5035 109.866 15.5035C110.407 15.5035 110.878 15.6388 111.28 15.9095C111.681 16.1802 111.994 16.5675 112.218 17.0715C112.451 17.5662 112.568 18.1635 112.568 18.8635C112.568 19.5542 112.451 20.1515 112.218 20.6555C111.994 21.1595 111.681 21.5468 111.28 21.8175C110.878 22.0882 110.407 22.2235 109.866 22.2235C109.287 22.2235 108.755 22.0882 108.27 21.8175C107.784 21.5468 107.397 21.1595 107.108 20.6555C106.818 20.1515 106.674 19.5542 106.674 18.8635ZM107.808 18.8635C107.808 19.3582 107.906 19.7782 108.102 20.1235C108.307 20.4688 108.578 20.7302 108.914 20.9075C109.25 21.0848 109.614 21.1735 110.006 21.1735C110.332 21.1735 110.654 21.0848 110.972 20.9075C111.289 20.7302 111.55 20.4688 111.756 20.1235C111.961 19.7782 112.064 19.3582 112.064 18.8635C112.064 18.3688 111.961 17.9488 111.756 17.6035C111.55 17.2582 111.289 16.9968 110.972 16.8195C110.654 16.6422 110.332 16.5535 110.006 16.5535C109.614 16.5535 109.25 16.6422 108.914 16.8195C108.578 16.9968 108.307 17.2582 108.102 17.6035C107.906 17.9488 107.808 18.3688 107.808 18.8635ZM118.855 18.8635C118.855 18.2102 119 17.6315 119.289 17.1275C119.588 16.6235 119.989 16.2268 120.493 15.9375C120.997 15.6482 121.562 15.5035 122.187 15.5035C122.822 15.5035 123.387 15.6482 123.881 15.9375C124.385 16.2268 124.782 16.6235 125.071 17.1275C125.37 17.6315 125.519 18.2102 125.519 18.8635C125.519 19.5075 125.37 20.0862 125.071 20.5995C124.782 21.1035 124.385 21.5002 123.881 21.7895C123.387 22.0788 122.822 22.2235 122.187 22.2235C121.562 22.2235 120.997 22.0788 120.493 21.7895C119.989 21.5002 119.588 21.1035 119.289 20.5995C119 20.0862 118.855 19.5075 118.855 18.8635ZM119.989 18.8635C119.989 19.3115 120.083 19.7082 120.269 20.0535C120.465 20.3988 120.727 20.6742 121.053 20.8795C121.389 21.0755 121.767 21.1735 122.187 21.1735C122.607 21.1735 122.981 21.0755 123.307 20.8795C123.643 20.6742 123.905 20.3988 124.091 20.0535C124.287 19.7082 124.385 19.3115 124.385 18.8635C124.385 18.4155 124.287 18.0188 124.091 17.6735C123.905 17.3188 123.643 17.0435 123.307 16.8475C122.981 16.6515 122.607 16.5535 122.187 16.5535C121.767 16.5535 121.389 16.6515 121.053 16.8475C120.727 17.0435 120.465 17.3188 120.269 17.6735C120.083 18.0188 119.989 18.4155 119.989 18.8635ZM131.188 18.1635C131.188 17.6315 131.071 17.2302 130.838 16.9595C130.604 16.6888 130.264 16.5535 129.816 16.5535C129.489 16.5535 129.2 16.6235 128.948 16.7635C128.705 16.8942 128.514 17.0808 128.374 17.3235C128.243 17.5662 128.178 17.8462 128.178 18.1635V22.0835H127.058V15.6435H128.178V16.6515C128.392 16.2595 128.658 15.9702 128.976 15.7835C129.302 15.5968 129.676 15.5035 130.096 15.5035C130.777 15.5035 131.314 15.7322 131.706 16.1895C132.107 16.6375 132.308 17.2488 132.308 18.0235V22.0835H131.188V18.1635ZM137.631 15.6435H140.851V16.6935H137.631V15.6435ZM138.681 13.4035H139.801V22.0835H138.681V13.4035ZM143.094 11.1635V22.0835H141.974V11.1635H143.094ZM146.104 18.1635C146.104 17.6315 145.987 17.2302 145.754 16.9595C145.53 16.6888 145.189 16.5535 144.732 16.5535C144.405 16.5535 144.116 16.6235 143.864 16.7635C143.621 16.9035 143.43 17.0948 143.29 17.3375C143.159 17.5802 143.094 17.8555 143.094 18.1635H142.73C142.73 17.6502 142.828 17.1975 143.024 16.8055C143.22 16.4042 143.486 16.0868 143.822 15.8535C144.167 15.6202 144.564 15.5035 145.012 15.5035C145.46 15.5035 145.847 15.5968 146.174 15.7835C146.51 15.9702 146.766 16.2502 146.944 16.6235C147.13 16.9968 147.224 17.4635 147.224 18.0235V22.0835H146.104V18.1635ZM151.821 22.2235C151.224 22.2235 150.692 22.0835 150.225 21.8035C149.768 21.5142 149.409 21.1175 149.147 20.6135C148.895 20.1095 148.769 19.5262 148.769 18.8635C148.769 18.1915 148.9 17.6035 149.161 17.0995C149.432 16.5955 149.805 16.2035 150.281 15.9235C150.767 15.6435 151.327 15.5035 151.961 15.5035C152.596 15.5035 153.137 15.6388 153.585 15.9095C154.043 16.1708 154.393 16.5488 154.635 17.0435C154.878 17.5382 154.999 18.1262 154.999 18.8075C154.999 18.8728 154.995 18.9428 154.985 19.0175C154.985 19.0828 154.985 19.1248 154.985 19.1435H149.483V18.1915H154.103L153.655 18.8355C153.683 18.7888 153.711 18.7188 153.739 18.6255C153.767 18.5228 153.781 18.4388 153.781 18.3735C153.781 17.9908 153.702 17.6595 153.543 17.3795C153.394 17.0995 153.184 16.8802 152.913 16.7215C152.643 16.5628 152.325 16.4835 151.961 16.4835C151.532 16.4835 151.163 16.5768 150.855 16.7635C150.557 16.9408 150.323 17.2022 150.155 17.5475C149.997 17.8835 149.913 18.2988 149.903 18.7935C149.903 19.2975 149.983 19.7268 150.141 20.0815C150.3 20.4362 150.533 20.7068 150.841 20.8935C151.149 21.0802 151.523 21.1735 151.961 21.1735C152.4 21.1735 152.787 21.0802 153.123 20.8935C153.459 20.6975 153.744 20.4035 153.977 20.0115L154.887 20.5855C154.551 21.1268 154.127 21.5375 153.613 21.8175C153.109 22.0882 152.512 22.2235 151.821 22.2235Z" fill="white"/>
<path d="M57.342 33.745L57.694 32.145H62.894L63.262 33.745H57.342ZM60.27 28.593L58.51 32.705L58.478 33.121L56.926 36.625H54.798L60.27 24.801L65.742 36.625H63.614L62.094 33.217L62.046 32.753L60.27 28.593ZM68.5809 40.145H66.8369V29.265H68.5809V40.145ZM74.6769 32.945C74.6769 33.7557 74.5115 34.4543 74.1809 35.041C73.8502 35.617 73.4129 36.0597 72.8689 36.369C72.3249 36.6677 71.7329 36.817 71.0929 36.817C70.4635 36.817 69.9142 36.6623 69.4449 36.353C68.9862 36.033 68.6289 35.585 68.3729 35.009C68.1275 34.4223 68.0049 33.7343 68.0049 32.945C68.0049 32.145 68.1275 31.457 68.3729 30.881C68.6289 30.305 68.9862 29.8623 69.4449 29.553C69.9142 29.233 70.4635 29.073 71.0929 29.073C71.7329 29.073 72.3249 29.2277 72.8689 29.537C73.4129 29.8357 73.8502 30.273 74.1809 30.849C74.5115 31.425 74.6769 32.1237 74.6769 32.945ZM72.8849 32.945C72.8849 32.4543 72.7835 32.0383 72.5809 31.697C72.3782 31.345 72.1062 31.0837 71.7649 30.913C71.4342 30.7317 71.0662 30.641 70.6609 30.641C70.3302 30.641 70.0049 30.7317 69.6849 30.913C69.3649 31.0837 69.0982 31.3397 68.8849 31.681C68.6822 32.0223 68.5809 32.4437 68.5809 32.945C68.5809 33.4463 68.6822 33.8677 68.8849 34.209C69.0982 34.5503 69.3649 34.8117 69.6849 34.993C70.0049 35.1637 70.3302 35.249 70.6609 35.249C71.0662 35.249 71.4342 35.1637 71.7649 34.993C72.1062 34.8117 72.3782 34.5503 72.5809 34.209C72.7835 33.857 72.8849 33.4357 72.8849 32.945ZM78.0028 40.145H76.2588V29.265H78.0028V40.145ZM84.0988 32.945C84.0988 33.7557 83.9334 34.4543 83.6028 35.041C83.2721 35.617 82.8348 36.0597 82.2908 36.369C81.7468 36.6677 81.1548 36.817 80.5148 36.817C79.8854 36.817 79.3361 36.6623 78.8668 36.353C78.4081 36.033 78.0508 35.585 77.7948 35.009C77.5494 34.4223 77.4268 33.7343 77.4268 32.945C77.4268 32.145 77.5494 31.457 77.7948 30.881C78.0508 30.305 78.4081 29.8623 78.8668 29.553C79.3361 29.233 79.8854 29.073 80.5148 29.073C81.1548 29.073 81.7468 29.2277 82.2908 29.537C82.8348 29.8357 83.2721 30.273 83.6028 30.849C83.9334 31.425 84.0988 32.1237 84.0988 32.945ZM82.3068 32.945C82.3068 32.4543 82.2054 32.0383 82.0028 31.697C81.8001 31.345 81.5281 31.0837 81.1868 30.913C80.8561 30.7317 80.4881 30.641 80.0828 30.641C79.7521 30.641 79.4268 30.7317 79.1068 30.913C78.7868 31.0837 78.5201 31.3397 78.3068 31.681C78.1041 32.0223 78.0028 32.4437 78.0028 32.945C78.0028 33.4463 78.1041 33.8677 78.3068 34.209C78.5201 34.5503 78.7868 34.8117 79.1068 34.993C79.4268 35.1637 79.7521 35.249 80.0828 35.249C80.4881 35.249 80.8561 35.1637 81.1868 34.993C81.5281 34.8117 81.8001 34.5503 82.0028 34.209C82.2054 33.857 82.3068 33.4357 82.3068 32.945ZM85.7446 24.145H87.4726V36.625H85.7446V24.145ZM92.8821 36.785C92.1355 36.785 91.4741 36.625 90.8981 36.305C90.3328 35.985 89.8955 35.537 89.5861 34.961C89.2768 34.385 89.1221 33.713 89.1221 32.945C89.1221 32.1663 89.2768 31.489 89.5861 30.913C89.9061 30.337 90.3541 29.8943 90.9301 29.585C91.5061 29.265 92.1835 29.105 92.9621 29.105C93.7408 29.105 94.4021 29.2543 94.9461 29.553C95.4901 29.8517 95.9061 30.2837 96.1941 30.849C96.4928 31.4037 96.6421 32.0757 96.6421 32.865C96.6421 32.9503 96.6368 33.041 96.6261 33.137C96.6261 33.233 96.6208 33.3023 96.6101 33.345H90.1461V32.161H95.1381L94.6101 32.897C94.6421 32.833 94.6741 32.7477 94.7061 32.641C94.7488 32.5237 94.7701 32.4277 94.7701 32.353C94.7701 31.9583 94.6901 31.617 94.5301 31.329C94.3808 31.041 94.1675 30.817 93.8901 30.657C93.6235 30.497 93.3088 30.417 92.9461 30.417C92.5088 30.417 92.1355 30.513 91.8261 30.705C91.5168 30.897 91.2821 31.1743 91.1221 31.537C90.9621 31.8997 90.8768 32.3477 90.8661 32.881C90.8661 33.4143 90.9461 33.8677 91.1061 34.241C91.2661 34.6037 91.5008 34.881 91.8101 35.073C92.1301 35.265 92.5141 35.361 92.9621 35.361C93.4315 35.361 93.8421 35.265 94.1941 35.073C94.5461 34.881 94.8395 34.5877 95.0741 34.193L96.5621 34.801C96.1781 35.4623 95.6821 35.9583 95.0741 36.289C94.4661 36.6197 93.7355 36.785 92.8821 36.785ZM103.968 33.025C104.214 33.4517 104.475 33.8303 104.752 34.161C105.04 34.481 105.355 34.7317 105.696 34.913C106.038 35.0837 106.422 35.169 106.848 35.169C107.36 35.169 107.776 35.0303 108.096 34.753C108.416 34.4757 108.576 34.1183 108.576 33.681C108.576 33.265 108.475 32.9343 108.272 32.689C108.07 32.433 107.787 32.2197 107.424 32.049C107.072 31.8677 106.662 31.6917 106.192 31.521C105.915 31.425 105.606 31.297 105.264 31.137C104.923 30.9663 104.598 30.7583 104.288 30.513C103.979 30.257 103.723 29.9477 103.52 29.585C103.318 29.2117 103.216 28.7637 103.216 28.241C103.216 27.6437 103.371 27.121 103.68 26.673C103.99 26.2143 104.406 25.8623 104.928 25.617C105.462 25.361 106.064 25.233 106.736 25.233C107.398 25.233 107.974 25.3503 108.464 25.585C108.955 25.8197 109.366 26.1183 109.696 26.481C110.038 26.8437 110.304 27.2223 110.496 27.617L108.96 28.481C108.822 28.2037 108.646 27.9477 108.432 27.713C108.219 27.4677 107.968 27.2757 107.68 27.137C107.403 26.9877 107.078 26.913 106.704 26.913C106.182 26.913 105.798 27.0357 105.552 27.281C105.307 27.5157 105.184 27.793 105.184 28.113C105.184 28.401 105.27 28.6623 105.44 28.897C105.622 29.121 105.899 29.3343 106.272 29.537C106.646 29.7397 107.131 29.9477 107.728 30.161C108.059 30.2783 108.39 30.4277 108.72 30.609C109.062 30.7903 109.371 31.0197 109.648 31.297C109.926 31.5637 110.144 31.8783 110.304 32.241C110.475 32.6037 110.56 33.0303 110.56 33.521C110.56 34.0437 110.459 34.513 110.256 34.929C110.054 35.345 109.776 35.697 109.424 35.985C109.072 36.2623 108.672 36.4757 108.224 36.625C107.787 36.785 107.328 36.865 106.848 36.865C106.187 36.865 105.574 36.737 105.008 36.481C104.454 36.2143 103.968 35.8623 103.552 35.425C103.136 34.9877 102.806 34.513 102.56 34.001L103.968 33.025ZM111.33 29.265H115.506V30.785H111.33V29.265ZM112.562 26.705H114.274V36.625H112.562V26.705ZM116.138 32.945C116.138 32.1877 116.308 31.521 116.65 30.945C117.002 30.369 117.476 29.921 118.074 29.601C118.671 29.2703 119.348 29.105 120.106 29.105C120.863 29.105 121.535 29.2703 122.122 29.601C122.719 29.921 123.194 30.369 123.546 30.945C123.898 31.521 124.074 32.1877 124.074 32.945C124.074 33.6917 123.898 34.3583 123.546 34.945C123.194 35.521 122.719 35.9743 122.122 36.305C121.535 36.625 120.863 36.785 120.106 36.785C119.348 36.785 118.671 36.625 118.074 36.305C117.476 35.9743 117.002 35.521 116.65 34.945C116.308 34.3583 116.138 33.6917 116.138 32.945ZM117.914 32.945C117.914 33.4037 118.01 33.809 118.202 34.161C118.394 34.5023 118.655 34.7743 118.986 34.977C119.316 35.169 119.69 35.265 120.106 35.265C120.511 35.265 120.879 35.169 121.21 34.977C121.551 34.7743 121.818 34.5023 122.01 34.161C122.202 33.809 122.298 33.4037 122.298 32.945C122.298 32.4863 122.202 32.081 122.01 31.729C121.818 31.377 121.551 31.105 121.21 30.913C120.879 30.721 120.511 30.625 120.106 30.625C119.69 30.625 119.316 30.721 118.986 30.913C118.655 31.105 118.394 31.377 118.202 31.729C118.01 32.081 117.914 32.4863 117.914 32.945ZM127.425 29.265V36.625H125.713V29.265H127.425ZM129.617 31.105C129.457 30.977 129.308 30.881 129.169 30.817C129.031 30.753 128.855 30.721 128.641 30.721C128.353 30.721 128.119 30.7957 127.937 30.945C127.756 31.0943 127.623 31.3023 127.537 31.569C127.463 31.825 127.425 32.129 127.425 32.481L126.849 32.145C126.849 31.5583 126.956 31.041 127.169 30.593C127.393 30.1343 127.676 29.7717 128.017 29.505C128.369 29.2383 128.732 29.105 129.105 29.105C129.372 29.105 129.623 29.1477 129.857 29.233C130.092 29.3077 130.289 29.4463 130.449 29.649L129.617 31.105ZM134.601 36.785C133.854 36.785 133.193 36.625 132.617 36.305C132.052 35.985 131.614 35.537 131.305 34.961C130.996 34.385 130.841 33.713 130.841 32.945C130.841 32.1663 130.996 31.489 131.305 30.913C131.625 30.337 132.073 29.8943 132.649 29.585C133.225 29.265 133.902 29.105 134.681 29.105C135.46 29.105 136.121 29.2543 136.665 29.553C137.209 29.8517 137.625 30.2837 137.913 30.849C138.212 31.4037 138.361 32.0757 138.361 32.865C138.361 32.9503 138.356 33.041 138.345 33.137C138.345 33.233 138.34 33.3023 138.329 33.345H131.865V32.161H136.857L136.329 32.897C136.361 32.833 136.393 32.7477 136.425 32.641C136.468 32.5237 136.489 32.4277 136.489 32.353C136.489 31.9583 136.409 31.617 136.249 31.329C136.1 31.041 135.886 30.817 135.609 30.657C135.342 30.497 135.028 30.417 134.665 30.417C134.228 30.417 133.854 30.513 133.545 30.705C133.236 30.897 133.001 31.1743 132.841 31.537C132.681 31.8997 132.596 32.3477 132.585 32.881C132.585 33.4143 132.665 33.8677 132.825 34.241C132.985 34.6037 133.22 34.881 133.529 35.073C133.849 35.265 134.233 35.361 134.681 35.361C135.15 35.361 135.561 35.265 135.913 35.073C136.265 34.881 136.558 34.5877 136.793 34.193L138.281 34.801C137.897 35.4623 137.401 35.9583 136.793 36.289C136.185 36.6197 135.454 36.785 134.601 36.785Z" fill="white"/>
</svg>
