<svg width="241" height="81" viewBox="0 0 241 81" fill="none" xmlns="http://www.w3.org/2000/svg">
<rect x="0.580078" y="0.5" width="240.04" height="59.99" rx="18" fill="white" fill-opacity="0.1"/>
<path d="M39.9707 31.041C39.9707 31.1504 39.8066 34.377 43.3613 36.0723C42.7051 38.0957 40.4082 42.5801 37.7285 42.5801C36.1973 42.5801 35.3223 41.5957 33.5723 41.5957C31.7676 41.5957 30.7832 42.5801 29.416 42.5801C26.791 42.6895 24.2754 37.7676 23.5645 35.7441C23.0176 34.2129 22.7988 32.7363 22.7988 31.3145C22.7988 26.4473 26.0254 24.0957 29.0879 24.041C30.5645 24.041 32.4238 25.0801 33.2441 25.0801C34.0098 25.0801 36.1426 23.8223 38.1113 23.9863C40.1348 24.1504 41.666 24.916 42.7051 26.3926C40.9004 27.541 39.9707 29.0176 39.9707 31.041ZM36.9082 22.0723C35.8145 23.3301 34.502 24.041 33.0801 23.9316C32.9707 22.4551 33.5176 21.0879 34.502 19.9941C35.377 19.0098 36.9082 18.1895 38.2207 18.0801C38.2207 18.6816 38.3848 20.3223 36.9082 22.0723Z" fill="white"/>
<a href="https://apusthemes.com/wp-demo/superio/home-19/">
<rect fill="black" fill-opacity="0" y="-2.1" width="21" height="32.2"/>
</a>
<path d="M69.7001 14.7H70.8901V24.5H69.7001V14.7ZM72.6401 24.5H70.3581V23.31H72.6401C73.1907 23.31 73.6947 23.226 74.1521 23.058C74.6094 22.8807 75.0014 22.6333 75.3281 22.316C75.6547 21.9893 75.9067 21.5973 76.0841 21.14C76.2614 20.6827 76.3501 20.1693 76.3501 19.6C76.3501 19.0307 76.2614 18.5173 76.0841 18.06C75.9067 17.6027 75.6547 17.2153 75.3281 16.898C75.0014 16.5713 74.6094 16.324 74.1521 16.156C73.6947 15.9787 73.1907 15.89 72.6401 15.89H70.3581V14.7H72.6401C73.5921 14.7 74.4367 14.9053 75.1741 15.316C75.9114 15.7267 76.4901 16.3007 76.9101 17.038C77.3301 17.766 77.5401 18.62 77.5401 19.6C77.5401 20.58 77.3301 21.4387 76.9101 22.176C76.4901 22.904 75.9114 23.4733 75.1741 23.884C74.4367 24.2947 73.5921 24.5 72.6401 24.5ZM78.5857 21.28C78.5857 20.6267 78.7304 20.048 79.0197 19.544C79.3184 19.04 79.7197 18.6433 80.2237 18.354C80.7277 18.0647 81.2924 17.92 81.9177 17.92C82.5524 17.92 83.117 18.0647 83.6117 18.354C84.1157 18.6433 84.5124 19.04 84.8017 19.544C85.1004 20.048 85.2497 20.6267 85.2497 21.28C85.2497 21.924 85.1004 22.5027 84.8017 23.016C84.5124 23.52 84.1157 23.9167 83.6117 24.206C83.117 24.4953 82.5524 24.64 81.9177 24.64C81.2924 24.64 80.7277 24.4953 80.2237 24.206C79.7197 23.9167 79.3184 23.52 79.0197 23.016C78.7304 22.5027 78.5857 21.924 78.5857 21.28ZM79.7197 21.28C79.7197 21.728 79.813 22.1247 79.9997 22.47C80.1957 22.8153 80.457 23.0907 80.7837 23.296C81.1197 23.492 81.4977 23.59 81.9177 23.59C82.3377 23.59 82.711 23.492 83.0377 23.296C83.3737 23.0907 83.635 22.8153 83.8217 22.47C84.0177 22.1247 84.1157 21.728 84.1157 21.28C84.1157 20.832 84.0177 20.4353 83.8217 20.09C83.635 19.7353 83.3737 19.46 83.0377 19.264C82.711 19.068 82.3377 18.97 81.9177 18.97C81.4977 18.97 81.1197 19.068 80.7837 19.264C80.457 19.46 80.1957 19.7353 79.9997 20.09C79.813 20.4353 79.7197 20.832 79.7197 21.28ZM85.6032 18.06H86.8632L88.4732 22.246L90.2232 17.57L92.0992 22.274L93.7232 18.06H94.9832L92.1832 24.99L90.2372 20.3L88.4032 24.99L85.6032 18.06ZM100.229 20.58C100.229 20.048 100.112 19.6467 99.8788 19.376C99.6455 19.1053 99.3048 18.97 98.8568 18.97C98.5302 18.97 98.2408 19.04 97.9888 19.18C97.7462 19.3107 97.5548 19.4973 97.4148 19.74C97.2842 19.9827 97.2188 20.2627 97.2188 20.58V24.5H96.0988V18.06H97.2188V19.068C97.4335 18.676 97.6995 18.3867 98.0168 18.2C98.3435 18.0133 98.7168 17.92 99.1368 17.92C99.8182 17.92 100.355 18.1487 100.747 18.606C101.148 19.054 101.349 19.6653 101.349 20.44V24.5H100.229V20.58ZM103.454 13.58H104.574V24.5H103.454V13.58ZM106.121 21.28C106.121 20.6267 106.266 20.048 106.555 19.544C106.854 19.04 107.255 18.6433 107.759 18.354C108.263 18.0647 108.828 17.92 109.453 17.92C110.088 17.92 110.652 18.0647 111.147 18.354C111.651 18.6433 112.048 19.04 112.337 19.544C112.636 20.048 112.785 20.6267 112.785 21.28C112.785 21.924 112.636 22.5027 112.337 23.016C112.048 23.52 111.651 23.9167 111.147 24.206C110.652 24.4953 110.088 24.64 109.453 24.64C108.828 24.64 108.263 24.4953 107.759 24.206C107.255 23.9167 106.854 23.52 106.555 23.016C106.266 22.5027 106.121 21.924 106.121 21.28ZM107.255 21.28C107.255 21.728 107.348 22.1247 107.535 22.47C107.731 22.8153 107.992 23.0907 108.319 23.296C108.655 23.492 109.033 23.59 109.453 23.59C109.873 23.59 110.246 23.492 110.573 23.296C110.909 23.0907 111.17 22.8153 111.357 22.47C111.553 22.1247 111.651 21.728 111.651 21.28C111.651 20.832 111.553 20.4353 111.357 20.09C111.17 19.7353 110.909 19.46 110.573 19.264C110.246 19.068 109.873 18.97 109.453 18.97C109.033 18.97 108.655 19.068 108.319 19.264C107.992 19.46 107.731 19.7353 107.535 20.09C107.348 20.4353 107.255 20.832 107.255 21.28ZM114.827 22.512C114.827 22.7547 114.883 22.9647 114.995 23.142C115.117 23.3193 115.28 23.4547 115.485 23.548C115.7 23.632 115.943 23.674 116.213 23.674C116.559 23.674 116.867 23.604 117.137 23.464C117.417 23.324 117.637 23.128 117.795 22.876C117.963 22.6147 118.047 22.316 118.047 21.98L118.271 22.82C118.271 23.2307 118.145 23.5713 117.893 23.842C117.651 24.1127 117.347 24.3133 116.983 24.444C116.629 24.5747 116.274 24.64 115.919 24.64C115.527 24.64 115.159 24.5607 114.813 24.402C114.477 24.234 114.207 23.996 114.001 23.688C113.796 23.38 113.693 23.0067 113.693 22.568C113.693 21.9427 113.913 21.4433 114.351 21.07C114.799 20.6873 115.42 20.496 116.213 20.496C116.68 20.496 117.067 20.552 117.375 20.664C117.693 20.7667 117.945 20.888 118.131 21.028C118.318 21.1587 118.444 21.266 118.509 21.35V22.008C118.183 21.784 117.847 21.6253 117.501 21.532C117.156 21.4293 116.787 21.378 116.395 21.378C116.031 21.378 115.733 21.4247 115.499 21.518C115.275 21.6113 115.107 21.742 114.995 21.91C114.883 22.078 114.827 22.2787 114.827 22.512ZM114.659 19.544L114.113 18.718C114.356 18.5407 114.687 18.3633 115.107 18.186C115.537 18.0087 116.05 17.92 116.647 17.92C117.151 17.92 117.59 17.9993 117.963 18.158C118.346 18.3073 118.64 18.5267 118.845 18.816C119.06 19.1053 119.167 19.46 119.167 19.88V24.5H118.047V20.034C118.047 19.81 118.01 19.628 117.935 19.488C117.861 19.3387 117.753 19.222 117.613 19.138C117.483 19.054 117.329 18.9933 117.151 18.956C116.974 18.9187 116.787 18.9 116.591 18.9C116.274 18.9 115.985 18.9373 115.723 19.012C115.471 19.0867 115.257 19.1753 115.079 19.278C114.902 19.3807 114.762 19.4693 114.659 19.544ZM125.894 13.58H127.014V24.5H125.894V13.58ZM120.504 21.28C120.504 20.58 120.648 19.9827 120.938 19.488C121.227 18.984 121.614 18.5967 122.1 18.326C122.585 18.0553 123.117 17.92 123.696 17.92C124.237 17.92 124.708 18.0553 125.11 18.326C125.511 18.5967 125.824 18.984 126.048 19.488C126.281 19.9827 126.398 20.58 126.398 21.28C126.398 21.9707 126.281 22.568 126.048 23.072C125.824 23.576 125.511 23.9633 125.11 24.234C124.708 24.5047 124.237 24.64 123.696 24.64C123.117 24.64 122.585 24.5047 122.1 24.234C121.614 23.9633 121.227 23.576 120.938 23.072C120.648 22.568 120.504 21.9707 120.504 21.28ZM121.638 21.28C121.638 21.7747 121.736 22.1947 121.932 22.54C122.137 22.8853 122.408 23.1467 122.744 23.324C123.08 23.5013 123.444 23.59 123.836 23.59C124.162 23.59 124.484 23.5013 124.802 23.324C125.119 23.1467 125.38 22.8853 125.586 22.54C125.791 22.1947 125.894 21.7747 125.894 21.28C125.894 20.7853 125.791 20.3653 125.586 20.02C125.38 19.6747 125.119 19.4133 124.802 19.236C124.484 19.0587 124.162 18.97 123.836 18.97C123.444 18.97 123.08 19.0587 122.744 19.236C122.408 19.4133 122.137 19.6747 121.932 20.02C121.736 20.3653 121.638 20.7853 121.638 21.28ZM132.685 21.28C132.685 20.6267 132.83 20.048 133.119 19.544C133.418 19.04 133.819 18.6433 134.323 18.354C134.827 18.0647 135.392 17.92 136.017 17.92C136.652 17.92 137.217 18.0647 137.711 18.354C138.215 18.6433 138.612 19.04 138.901 19.544C139.2 20.048 139.349 20.6267 139.349 21.28C139.349 21.924 139.2 22.5027 138.901 23.016C138.612 23.52 138.215 23.9167 137.711 24.206C137.217 24.4953 136.652 24.64 136.017 24.64C135.392 24.64 134.827 24.4953 134.323 24.206C133.819 23.9167 133.418 23.52 133.119 23.016C132.83 22.5027 132.685 21.924 132.685 21.28ZM133.819 21.28C133.819 21.728 133.913 22.1247 134.099 22.47C134.295 22.8153 134.557 23.0907 134.883 23.296C135.219 23.492 135.597 23.59 136.017 23.59C136.437 23.59 136.811 23.492 137.137 23.296C137.473 23.0907 137.735 22.8153 137.921 22.47C138.117 22.1247 138.215 21.728 138.215 21.28C138.215 20.832 138.117 20.4353 137.921 20.09C137.735 19.7353 137.473 19.46 137.137 19.264C136.811 19.068 136.437 18.97 136.017 18.97C135.597 18.97 135.219 19.068 134.883 19.264C134.557 19.46 134.295 19.7353 134.099 20.09C133.913 20.4353 133.819 20.832 133.819 21.28ZM145.018 20.58C145.018 20.048 144.901 19.6467 144.668 19.376C144.435 19.1053 144.094 18.97 143.646 18.97C143.319 18.97 143.03 19.04 142.778 19.18C142.535 19.3107 142.344 19.4973 142.204 19.74C142.073 19.9827 142.008 20.2627 142.008 20.58V24.5H140.888V18.06H142.008V19.068C142.223 18.676 142.489 18.3867 142.806 18.2C143.133 18.0133 143.506 17.92 143.926 17.92C144.607 17.92 145.144 18.1487 145.536 18.606C145.937 19.054 146.138 19.6653 146.138 20.44V24.5H145.018V20.58ZM151.461 18.06H154.681V19.11H151.461V18.06ZM152.511 15.82H153.631V24.5H152.511V15.82ZM156.924 13.58V24.5H155.804V13.58H156.924ZM159.934 20.58C159.934 20.048 159.817 19.6467 159.584 19.376C159.36 19.1053 159.019 18.97 158.562 18.97C158.235 18.97 157.946 19.04 157.694 19.18C157.451 19.32 157.26 19.5113 157.12 19.754C156.989 19.9967 156.924 20.272 156.924 20.58H156.56C156.56 20.0667 156.658 19.614 156.854 19.222C157.05 18.8207 157.316 18.5033 157.652 18.27C157.997 18.0367 158.394 17.92 158.842 17.92C159.29 17.92 159.677 18.0133 160.004 18.2C160.34 18.3867 160.597 18.6667 160.774 19.04C160.961 19.4133 161.054 19.88 161.054 20.44V24.5H159.934V20.58ZM165.651 24.64C165.054 24.64 164.522 24.5 164.055 24.22C163.598 23.9307 163.239 23.534 162.977 23.03C162.725 22.526 162.599 21.9427 162.599 21.28C162.599 20.608 162.73 20.02 162.991 19.516C163.262 19.012 163.635 18.62 164.111 18.34C164.597 18.06 165.157 17.92 165.791 17.92C166.426 17.92 166.967 18.0553 167.415 18.326C167.873 18.5873 168.223 18.9653 168.465 19.46C168.708 19.9547 168.829 20.5427 168.829 21.224C168.829 21.2893 168.825 21.3593 168.815 21.434C168.815 21.4993 168.815 21.5413 168.815 21.56H163.313V20.608H167.933L167.485 21.252C167.513 21.2053 167.541 21.1353 167.569 21.042C167.597 20.9393 167.611 20.8553 167.611 20.79C167.611 20.4073 167.532 20.076 167.373 19.796C167.224 19.516 167.014 19.2967 166.743 19.138C166.473 18.9793 166.155 18.9 165.791 18.9C165.362 18.9 164.993 18.9933 164.685 19.18C164.387 19.3573 164.153 19.6187 163.985 19.964C163.827 20.3 163.743 20.7153 163.733 21.21C163.733 21.714 163.813 22.1433 163.971 22.498C164.13 22.8527 164.363 23.1233 164.671 23.31C164.979 23.4967 165.353 23.59 165.791 23.59C166.23 23.59 166.617 23.4967 166.953 23.31C167.289 23.114 167.574 22.82 167.807 22.428L168.717 23.002C168.381 23.5433 167.957 23.954 167.443 24.234C166.939 24.5047 166.342 24.64 165.651 24.64Z" fill="white"/>
<path d="M71.1721 43.2098L71.5241 41.6098H76.7241L77.0921 43.2098H71.1721ZM74.1001 38.0578L72.3401 42.1698L72.3081 42.5858L70.7561 46.0898H68.6281L74.1001 34.2658L79.5721 46.0898H77.4441L75.9241 42.6818L75.8761 42.2178L74.1001 38.0578ZM82.411 49.6098H80.667V38.7298H82.411V49.6098ZM88.507 42.4098C88.507 43.2205 88.3416 43.9192 88.011 44.5058C87.6803 45.0818 87.243 45.5245 86.699 45.8338C86.155 46.1325 85.563 46.2818 84.923 46.2818C84.2936 46.2818 83.7443 46.1272 83.275 45.8178C82.8163 45.4978 82.459 45.0498 82.203 44.4738C81.9576 43.8872 81.835 43.1992 81.835 42.4098C81.835 41.6098 81.9576 40.9218 82.203 40.3458C82.459 39.7698 82.8163 39.3272 83.275 39.0178C83.7443 38.6978 84.2936 38.5378 84.923 38.5378C85.563 38.5378 86.155 38.6925 86.699 39.0018C87.243 39.3005 87.6803 39.7378 88.011 40.3138C88.3416 40.8898 88.507 41.5885 88.507 42.4098ZM86.715 42.4098C86.715 41.9192 86.6136 41.5032 86.411 41.1618C86.2083 40.8098 85.9363 40.5485 85.595 40.3778C85.2643 40.1965 84.8963 40.1058 84.491 40.1058C84.1603 40.1058 83.835 40.1965 83.515 40.3778C83.195 40.5485 82.9283 40.8045 82.715 41.1458C82.5123 41.4872 82.411 41.9085 82.411 42.4098C82.411 42.9112 82.5123 43.3325 82.715 43.6738C82.9283 44.0152 83.195 44.2765 83.515 44.4578C83.835 44.6285 84.1603 44.7138 84.491 44.7138C84.8963 44.7138 85.2643 44.6285 85.595 44.4578C85.9363 44.2765 86.2083 44.0152 86.411 43.6738C86.6136 43.3218 86.715 42.9005 86.715 42.4098ZM91.8328 49.6098H90.0888V38.7298H91.8328V49.6098ZM97.9288 42.4098C97.9288 43.2205 97.7635 43.9192 97.4328 44.5058C97.1022 45.0818 96.6648 45.5245 96.1208 45.8338C95.5768 46.1325 94.9848 46.2818 94.3448 46.2818C93.7155 46.2818 93.1662 46.1272 92.6968 45.8178C92.2382 45.4978 91.8808 45.0498 91.6248 44.4738C91.3795 43.8872 91.2568 43.1992 91.2568 42.4098C91.2568 41.6098 91.3795 40.9218 91.6248 40.3458C91.8808 39.7698 92.2382 39.3272 92.6968 39.0178C93.1662 38.6978 93.7155 38.5378 94.3448 38.5378C94.9848 38.5378 95.5768 38.6925 96.1208 39.0018C96.6648 39.3005 97.1022 39.7378 97.4328 40.3138C97.7635 40.8898 97.9288 41.5885 97.9288 42.4098ZM96.1368 42.4098C96.1368 41.9192 96.0355 41.5032 95.8328 41.1618C95.6302 40.8098 95.3582 40.5485 95.0168 40.3778C94.6862 40.1965 94.3182 40.1058 93.9128 40.1058C93.5822 40.1058 93.2568 40.1965 92.9368 40.3778C92.6168 40.5485 92.3502 40.8045 92.1368 41.1458C91.9342 41.4872 91.8328 41.9085 91.8328 42.4098C91.8328 42.9112 91.9342 43.3325 92.1368 43.6738C92.3502 44.0152 92.6168 44.2765 92.9368 44.4578C93.2568 44.6285 93.5822 44.7138 93.9128 44.7138C94.3182 44.7138 94.6862 44.6285 95.0168 44.4578C95.3582 44.2765 95.6302 44.0152 95.8328 43.6738C96.0355 43.3218 96.1368 42.9005 96.1368 42.4098ZM99.5747 33.6098H101.303V46.0898H99.5747V33.6098ZM106.712 46.2498C105.966 46.2498 105.304 46.0898 104.728 45.7698C104.163 45.4498 103.726 45.0018 103.416 44.4258C103.107 43.8498 102.952 43.1778 102.952 42.4098C102.952 41.6312 103.107 40.9538 103.416 40.3778C103.736 39.8018 104.184 39.3592 104.76 39.0498C105.336 38.7298 106.014 38.5698 106.792 38.5698C107.571 38.5698 108.232 38.7192 108.776 39.0178C109.32 39.3165 109.736 39.7485 110.024 40.3138C110.323 40.8685 110.472 41.5405 110.472 42.3298C110.472 42.4152 110.467 42.5058 110.456 42.6018C110.456 42.6978 110.451 42.7672 110.44 42.8098H103.976V41.6258H108.968L108.44 42.3618C108.472 42.2978 108.504 42.2125 108.536 42.1058C108.579 41.9885 108.6 41.8925 108.6 41.8178C108.6 41.4232 108.52 41.0818 108.36 40.7938C108.211 40.5058 107.998 40.2818 107.72 40.1218C107.454 39.9618 107.139 39.8818 106.776 39.8818C106.339 39.8818 105.966 39.9778 105.656 40.1698C105.347 40.3618 105.112 40.6392 104.952 41.0018C104.792 41.3645 104.707 41.8125 104.696 42.3458C104.696 42.8792 104.776 43.3325 104.936 43.7058C105.096 44.0685 105.331 44.3458 105.64 44.5378C105.96 44.7298 106.344 44.8258 106.792 44.8258C107.262 44.8258 107.672 44.7298 108.024 44.5378C108.376 44.3458 108.67 44.0525 108.904 43.6578L110.392 44.2658C110.008 44.9272 109.512 45.4232 108.904 45.7538C108.296 46.0845 107.566 46.2498 106.712 46.2498ZM117.798 42.4898C118.044 42.9165 118.305 43.2952 118.582 43.6258C118.87 43.9458 119.185 44.1965 119.526 44.3778C119.868 44.5485 120.252 44.6338 120.678 44.6338C121.19 44.6338 121.606 44.4952 121.926 44.2178C122.246 43.9405 122.406 43.5832 122.406 43.1458C122.406 42.7298 122.305 42.3992 122.102 42.1538C121.9 41.8978 121.617 41.6845 121.254 41.5138C120.902 41.3325 120.492 41.1565 120.022 40.9858C119.745 40.8898 119.436 40.7618 119.094 40.6018C118.753 40.4312 118.428 40.2232 118.118 39.9778C117.809 39.7218 117.553 39.4125 117.35 39.0498C117.148 38.6765 117.046 38.2285 117.046 37.7058C117.046 37.1085 117.201 36.5858 117.51 36.1378C117.82 35.6792 118.236 35.3272 118.758 35.0818C119.292 34.8258 119.894 34.6978 120.566 34.6978C121.228 34.6978 121.804 34.8152 122.294 35.0498C122.785 35.2845 123.196 35.5832 123.526 35.9458C123.868 36.3085 124.134 36.6872 124.326 37.0818L122.79 37.9458C122.652 37.6685 122.476 37.4125 122.262 37.1778C122.049 36.9325 121.798 36.7405 121.51 36.6018C121.233 36.4525 120.908 36.3778 120.534 36.3778C120.012 36.3778 119.628 36.5005 119.382 36.7458C119.137 36.9805 119.014 37.2578 119.014 37.5778C119.014 37.8658 119.1 38.1272 119.27 38.3618C119.452 38.5858 119.729 38.7992 120.102 39.0018C120.476 39.2045 120.961 39.4125 121.558 39.6258C121.889 39.7432 122.22 39.8925 122.55 40.0738C122.892 40.2552 123.201 40.4845 123.478 40.7618C123.756 41.0285 123.974 41.3432 124.134 41.7058C124.305 42.0685 124.39 42.4952 124.39 42.9858C124.39 43.5085 124.289 43.9778 124.086 44.3938C123.884 44.8098 123.606 45.1618 123.254 45.4498C122.902 45.7272 122.502 45.9405 122.054 46.0898C121.617 46.2498 121.158 46.3298 120.678 46.3298C120.017 46.3298 119.404 46.2018 118.838 45.9458C118.284 45.6792 117.798 45.3272 117.382 44.8898C116.966 44.4525 116.636 43.9778 116.39 43.4658L117.798 42.4898ZM125.16 38.7298H129.336V40.2498H125.16V38.7298ZM126.392 36.1698H128.104V46.0898H126.392V36.1698ZM129.968 42.4098C129.968 41.6525 130.138 40.9858 130.48 40.4098C130.832 39.8338 131.306 39.3858 131.904 39.0658C132.501 38.7352 133.178 38.5698 133.936 38.5698C134.693 38.5698 135.365 38.7352 135.952 39.0658C136.549 39.3858 137.024 39.8338 137.376 40.4098C137.728 40.9858 137.904 41.6525 137.904 42.4098C137.904 43.1565 137.728 43.8232 137.376 44.4098C137.024 44.9858 136.549 45.4392 135.952 45.7698C135.365 46.0898 134.693 46.2498 133.936 46.2498C133.178 46.2498 132.501 46.0898 131.904 45.7698C131.306 45.4392 130.832 44.9858 130.48 44.4098C130.138 43.8232 129.968 43.1565 129.968 42.4098ZM131.744 42.4098C131.744 42.8685 131.84 43.2738 132.032 43.6258C132.224 43.9672 132.485 44.2392 132.816 44.4418C133.146 44.6338 133.52 44.7298 133.936 44.7298C134.341 44.7298 134.709 44.6338 135.04 44.4418C135.381 44.2392 135.648 43.9672 135.84 43.6258C136.032 43.2738 136.128 42.8685 136.128 42.4098C136.128 41.9512 136.032 41.5458 135.84 41.1938C135.648 40.8418 135.381 40.5698 135.04 40.3778C134.709 40.1858 134.341 40.0898 133.936 40.0898C133.52 40.0898 133.146 40.1858 132.816 40.3778C132.485 40.5698 132.224 40.8418 132.032 41.1938C131.84 41.5458 131.744 41.9512 131.744 42.4098ZM141.255 38.7298V46.0898H139.543V38.7298H141.255ZM143.447 40.5698C143.287 40.4418 143.138 40.3458 142.999 40.2818C142.861 40.2178 142.685 40.1858 142.471 40.1858C142.183 40.1858 141.949 40.2605 141.767 40.4098C141.586 40.5592 141.453 40.7672 141.367 41.0338C141.293 41.2898 141.255 41.5938 141.255 41.9458L140.679 41.6098C140.679 41.0232 140.786 40.5058 140.999 40.0578C141.223 39.5992 141.506 39.2365 141.847 38.9698C142.199 38.7032 142.562 38.5698 142.935 38.5698C143.202 38.5698 143.453 38.6125 143.687 38.6978C143.922 38.7725 144.119 38.9112 144.279 39.1138L143.447 40.5698ZM148.431 46.2498C147.684 46.2498 147.023 46.0898 146.447 45.7698C145.882 45.4498 145.444 45.0018 145.135 44.4258C144.826 43.8498 144.671 43.1778 144.671 42.4098C144.671 41.6312 144.826 40.9538 145.135 40.3778C145.455 39.8018 145.903 39.3592 146.479 39.0498C147.055 38.7298 147.732 38.5698 148.511 38.5698C149.29 38.5698 149.951 38.7192 150.495 39.0178C151.039 39.3165 151.455 39.7485 151.743 40.3138C152.042 40.8685 152.191 41.5405 152.191 42.3298C152.191 42.4152 152.186 42.5058 152.175 42.6018C152.175 42.6978 152.17 42.7672 152.159 42.8098H145.695V41.6258H150.687L150.159 42.3618C150.191 42.2978 150.223 42.2125 150.255 42.1058C150.298 41.9885 150.319 41.8925 150.319 41.8178C150.319 41.4232 150.239 41.0818 150.079 40.7938C149.93 40.5058 149.716 40.2818 149.439 40.1218C149.172 39.9618 148.858 39.8818 148.495 39.8818C148.058 39.8818 147.684 39.9778 147.375 40.1698C147.066 40.3618 146.831 40.6392 146.671 41.0018C146.511 41.3645 146.426 41.8125 146.415 42.3458C146.415 42.8792 146.495 43.3325 146.655 43.7058C146.815 44.0685 147.05 44.3458 147.359 44.5378C147.679 44.7298 148.063 44.8258 148.511 44.8258C148.98 44.8258 149.391 44.7298 149.743 44.5378C150.095 44.3458 150.388 44.0525 150.623 43.6578L152.111 44.2658C151.727 44.9272 151.231 45.4232 150.623 45.7538C150.015 46.0845 149.284 46.2498 148.431 46.2498Z" fill="white"/>
</svg>
