<svg width="68" height="65" viewBox="0 0 68 65" fill="none" xmlns="http://www.w3.org/2000/svg">
<path d="M52.7634 31.7808C52.8229 32.821 52.5253 33.8033 52.0788 34.7279C51.4835 35.9414 51.2156 37.2127 51.0965 38.5417C51.037 39.2062 50.918 39.813 50.5608 40.3908C50.3227 40.7953 49.9655 41.0265 49.4595 41.0843C48.507 41.171 47.5545 41.3154 46.5723 41.4021C45.5603 41.5177 44.5185 41.4888 43.6553 40.9398C42.4945 40.1886 41.7504 39.1196 41.7802 37.7038C41.7802 37.2993 41.9885 36.8948 42.1373 36.5192C42.2862 36.2014 42.4945 35.8836 42.7029 35.5947C43.1493 35.0168 43.3279 34.3523 43.3875 33.63C43.447 32.8787 43.4768 32.1275 43.5958 31.4052C43.8637 29.3827 45.8282 28.4293 47.2569 28.3137C48.0605 28.227 48.894 28.1981 49.6976 28.1403C51.2454 28.0537 52.4955 29.036 52.6741 30.5384C52.7336 30.9429 52.7336 31.3474 52.7634 31.7808ZM45.7389 29.1516C45.8579 29.4405 45.7686 29.6717 45.5305 29.8161C45.3222 29.9895 45.0841 29.9317 44.8757 29.7583C44.4888 30.1339 44.2209 30.5673 44.0721 31.0874C44.3697 31.1452 44.4888 31.3474 44.459 31.6075C44.4292 31.8675 44.2804 31.9831 44.0125 32.0409C43.9232 32.0697 43.8339 32.1853 43.8339 32.2431C43.7744 32.532 43.7744 32.7921 43.7446 33.081C43.7149 33.8033 43.8637 34.5545 43.4172 35.1902C43.6851 35.4502 43.7446 35.5658 43.6256 35.768C43.447 36.1147 43.1493 36.2303 42.7922 36.1436C42.4052 36.6926 42.0183 37.2415 42.1671 38.0216C42.2564 37.9639 42.3159 37.9061 42.3457 37.8483C42.4945 37.7327 42.6433 37.646 42.8517 37.7616C43.06 37.8772 43.06 38.0794 42.9708 38.2528C42.8219 38.4839 42.6433 38.6862 42.435 38.9462C42.5838 39.2062 42.7922 39.5241 43.0005 39.8708C43.4172 39.3796 43.6256 39.264 43.8637 39.4374C43.9232 39.4952 44.0125 39.6107 44.0125 39.6685C43.9232 39.8997 43.8042 40.1308 43.6851 40.4197C43.8339 40.4775 44.0125 40.622 44.2209 40.6798C44.7864 40.7953 45.3222 40.9398 45.8877 40.9687C46.8699 41.0554 47.5545 40.5353 48.0605 39.7841C48.2987 39.4085 48.2986 38.9751 48.2689 38.5417C47.8522 38.5417 47.7629 38.4839 47.7331 38.195C47.6736 37.7905 47.8819 37.5594 48.388 37.4149C48.4475 37.1838 48.507 36.9237 48.5665 36.6926C48.7749 35.7391 49.2511 34.9012 49.6678 34.0345C50.3822 32.6187 50.412 31.1741 49.6381 29.7583C49.4297 29.3538 49.1023 29.0649 48.6856 28.8627C47.6736 28.4871 46.7211 28.6315 45.7389 29.1516ZM47.8522 40.7376C47.8522 40.7665 47.8819 40.7665 47.8819 40.7953C48.3284 40.7376 48.7749 40.7087 49.2214 40.6509C49.9357 40.5353 50.2929 40.2464 50.412 39.553C50.6203 38.4839 50.7989 37.386 50.9775 36.317C50.9775 36.2592 50.9477 36.1725 50.8882 36.1436C50.6501 35.9703 50.6501 35.7391 50.7394 35.508C50.8584 35.2191 51.0668 35.0746 51.3049 35.0746C51.3644 35.0746 51.4537 35.0168 51.4835 34.959C51.9895 34.0056 52.2871 32.9943 52.2574 31.9253C52.2574 31.463 52.1978 31.0296 52.1681 30.6251C51.93 30.6251 51.7216 30.6829 51.6025 30.6251C51.424 30.5095 51.424 30.2784 51.5133 30.105C51.5728 29.9606 51.7216 29.8161 51.8109 29.6717C51.424 28.8049 50.025 28.3137 48.9535 28.6893C49.1618 28.8916 49.4 29.0938 49.5785 29.296C50.1738 29.9606 50.4417 30.7407 50.531 31.6075C50.531 31.6941 50.6203 31.8097 50.6798 31.8386C50.8882 31.9542 50.9775 32.1275 50.9775 32.3298C50.9477 32.5609 50.8882 32.7632 50.6501 32.8787C50.5608 32.9076 50.4715 32.9943 50.4417 33.0521C50.2929 33.7744 49.9952 34.4678 49.6083 35.1035C49.013 36.1147 48.7154 37.1838 48.6558 38.3395C48.7154 39.1774 48.6261 40.073 47.8522 40.7376ZM48.2094 37.7616C48.1201 37.935 48.0605 38.0505 48.001 38.1661C48.001 38.195 48.0903 38.2528 48.1201 38.2817C48.1796 38.1661 48.2689 38.0794 48.2987 37.9639C48.3284 37.935 48.2689 37.8772 48.2094 37.7616ZM43.7446 39.813C43.7149 39.7841 43.6851 39.7552 43.6553 39.7552C43.5065 39.813 43.3279 39.8708 43.4172 40.1597C43.5363 40.0152 43.6553 39.9286 43.7446 39.813ZM42.7624 38.1661C42.7326 38.1372 42.6731 38.1083 42.6433 38.0794C42.554 38.195 42.4647 38.3106 42.3755 38.4261C42.4052 38.455 42.435 38.4839 42.4945 38.5128C42.5838 38.3973 42.6731 38.2817 42.7624 38.1661ZM50.6203 32.0697C50.6203 32.2431 50.6203 32.3587 50.6203 32.5031C50.8584 32.3587 50.8584 32.272 50.6203 32.0697ZM43.4172 35.6236C43.3875 35.5947 43.3279 35.5658 43.2982 35.5369C43.2386 35.6524 43.1493 35.768 43.0898 35.8836C43.1196 35.9125 43.1493 35.9125 43.1791 35.9414C43.2386 35.8547 43.3279 35.7391 43.4172 35.6236ZM51.0073 35.7969C51.037 35.7969 51.0965 35.8258 51.1263 35.8258C51.1561 35.6813 51.2156 35.5658 51.2454 35.4213C51.2156 35.4213 51.1561 35.3924 51.1263 35.3924C51.0965 35.5369 51.037 35.6524 51.0073 35.7969Z" fill="#BCBCBC"/>
<path d="M46.4535 39.639C46.4535 39.9569 46.0368 40.3036 45.7094 40.2747C45.4713 40.2458 45.382 40.1013 45.4118 39.8991C45.4415 39.6101 45.6201 39.379 45.888 39.2345C46.1857 39.1479 46.4535 39.3501 46.4535 39.639ZM46.1559 39.5813C45.9178 39.5235 45.8285 39.6679 45.7689 39.8124C45.7392 39.8413 45.7987 39.8991 45.8285 39.9569C45.9475 39.8702 46.0368 39.7835 46.1559 39.6968C46.1559 39.6968 46.1261 39.639 46.1559 39.5813Z" fill="#BCBCBC"/>
<path d="M47.1674 36.1724C47.0483 36.3747 46.959 36.6058 46.84 36.7503C46.6911 36.8948 46.5126 36.9237 46.3042 36.8081C46.1256 36.6925 46.1256 36.5192 46.2149 36.3458C46.3042 36.1724 46.453 36.028 46.6018 35.8835C46.6614 35.8257 46.84 35.8257 46.9293 35.8546C47.0185 35.9124 47.0781 36.0569 47.1674 36.1724ZM46.6018 36.6058C46.6614 36.4903 46.7507 36.3747 46.8102 36.2591C46.8102 36.2591 46.7507 36.2013 46.6911 36.2013C46.6316 36.3169 46.5721 36.4325 46.5125 36.5192C46.4828 36.548 46.5126 36.548 46.6018 36.6058Z" fill="#BCBCBC"/>
<path d="M49.4298 34.2089C49.3405 34.4112 49.2512 34.6423 49.1321 34.8157C48.9535 35.0468 48.6856 34.9601 48.5666 34.729C48.4178 34.4401 48.6856 33.92 49.0131 33.8622C49.2214 33.7755 49.3702 33.92 49.4298 34.2089ZM48.8047 34.5845C48.8642 34.5845 48.894 34.6134 48.9535 34.6134C48.9833 34.469 49.0428 34.3245 49.0726 34.18C49.0428 34.18 48.9833 34.1512 48.9535 34.1512C48.894 34.2956 48.8345 34.4401 48.8047 34.5845Z" fill="#BCBCBC"/>
<path d="M46.9293 31.7226C47.1376 31.7226 47.3162 31.9248 47.2865 32.1559C47.2865 32.4449 46.9888 32.7627 46.7507 32.7627C46.5423 32.7627 46.334 32.5604 46.334 32.3582C46.334 32.0693 46.6614 31.7226 46.9293 31.7226ZM47.0781 32.2137C46.9888 32.1271 46.9591 32.0693 46.8995 32.0404C46.8102 32.1271 46.7209 32.2137 46.6614 32.3004C46.6614 32.3293 46.7209 32.3871 46.7805 32.4449C46.8698 32.3871 46.959 32.3004 47.0781 32.2137Z" fill="#BCBCBC"/>
<path d="M48.3877 31.9546C48.3877 31.6079 48.7151 31.2323 48.983 31.2323C49.1913 31.2323 49.2806 31.3768 49.2806 31.579C49.2806 31.9257 48.983 32.2725 48.6853 32.2725C48.477 32.2436 48.4175 32.0991 48.3877 31.9546ZM48.9235 31.5501C48.7151 31.6368 48.6258 31.7524 48.7151 31.9546C48.9235 31.8969 49.0128 31.7813 48.9235 31.5501Z" fill="#BCBCBC"/>
<path d="M45.5308 33.5137C45.7093 33.5137 45.7986 33.6582 45.8284 33.8604C45.8284 34.1204 45.5903 34.4094 45.3522 34.496C45.114 34.5538 44.9057 34.4094 44.9355 34.1782C44.9355 33.8604 45.2331 33.5426 45.5308 33.5137ZM45.501 33.9182C45.2629 33.9182 45.2331 34.0338 45.2629 34.1782C45.2926 34.2071 45.3224 34.2071 45.3522 34.236C45.4117 34.1204 45.4712 34.0049 45.501 33.9182Z" fill="#BCBCBC"/>
<path d="M47.1084 29.8733C47.1084 29.5843 47.4656 29.2665 47.7335 29.2954L47.7632 29.2954C47.9418 29.3532 48.0311 29.4688 48.0013 29.6421C47.9716 29.9022 47.7037 30.1333 47.4358 30.1333C47.2275 30.1333 47.1084 30.0466 47.1084 29.8733Z" fill="#BCBCBC"/>
<path d="M44.2803 37.7902C44.31 37.5302 44.4291 37.2991 44.697 37.1835C44.9351 37.0679 45.203 37.2413 45.203 37.5013C45.203 37.7614 44.9351 38.0792 44.697 38.137C44.4886 38.1659 44.2803 38.0214 44.2803 37.7902ZM44.9351 37.5013C44.9053 37.5013 44.8756 37.4724 44.8458 37.4724C44.6077 37.6458 44.5779 37.7325 44.7267 37.9925C44.816 37.7902 44.8756 37.6458 44.9351 37.5013Z" fill="#BCBCBC"/>
<path d="M49.8463 37.7896C50.0249 37.8185 50.1141 37.9341 50.1439 38.1074C50.1737 38.3675 49.9356 38.6853 49.6974 38.7431C49.4296 38.8298 49.2212 38.6564 49.2807 38.3964C49.3105 38.0785 49.5784 37.7896 49.8463 37.7896Z" fill="#BCBCBC"/>
<path d="M17.4043 34.2465C17.7689 34.2422 18.1334 34.238 18.5128 34.2595C18.9971 34.2893 19.1513 34.4408 19.1595 34.9172C19.1737 35.1152 19.2582 35.2039 19.4327 35.275C19.9813 35.4739 20.3675 36.3163 20.1458 36.8568C20.0349 37.127 19.8198 37.2168 19.5601 37.2292C18.706 37.31 17.8619 37.3505 16.9929 37.4054C14.4506 37.5672 11.9083 37.7289 9.35595 37.9308C8.81152 37.9702 8.22719 37.9983 7.68276 38.0376C6.554 38.105 6.2171 37.4059 6.30557 36.4613C6.32716 36.0364 6.70788 35.7134 7.14748 35.6659C7.27733 35.6596 7.36728 35.6421 7.49713 35.6358C7.78186 35.6089 7.92724 35.4562 7.93329 35.1778C7.99478 34.7642 8.17534 34.5569 8.61494 34.5093C8.76981 34.4886 8.96459 34.4793 9.13434 34.4844C9.72882 34.4161 10.2191 34.1674 10.6451 33.7496C11.5925 32.7902 12.0164 31.6175 11.8769 30.2201C11.795 29.4426 11.7631 28.6361 11.7062 27.8441C11.6825 27.5141 11.6486 27.2243 11.3097 27.0419C11.1751 26.9821 11.1163 26.7068 11.0919 26.549C10.9856 25.6137 10.9043 24.6639 10.823 23.7141C10.7797 23.2923 10.7614 22.8561 10.783 22.4312C10.8606 21.699 11.3962 21.3554 12.1044 21.5996C12.3986 21.7047 12.6076 21.8933 12.6563 22.2089C12.7491 22.774 12.8168 23.3535 12.8696 23.9073C12.9366 24.6591 13.0436 25.4222 13.0708 26.1627C13.0748 26.4009 12.9741 26.6309 12.9133 26.8722C12.8828 26.9929 12.7774 27.1569 12.7869 27.2889C12.8627 28.3449 12.9386 29.4009 13.0794 30.4538C13.1573 30.9932 13.3549 31.5665 13.5977 32.0449C14.0686 32.976 14.9505 33.4635 15.8379 33.8448C16.2816 34.0354 16.7956 34.1167 17.2745 34.2527C17.3942 34.2867 17.4192 34.2722 17.4043 34.2465ZM7.59952 37.6045C7.60966 37.5643 7.63468 37.5499 7.6198 37.5241C8.95822 37.4731 10.3115 37.4479 11.65 37.3969C13.2981 37.3046 14.9314 37.1865 16.5897 37.0539C17.4588 36.9989 18.338 36.9038 19.2172 36.8086C19.5019 36.7817 19.6074 36.6177 19.5884 36.3537C19.5552 35.8917 19.3165 35.6515 18.8221 35.6619C17.6236 35.6665 16.4502 35.6566 15.2416 35.7013C13.4088 35.7628 11.6058 35.8758 9.76284 35.9775C8.9587 36.0293 8.15457 36.0811 7.35044 36.133C7.09073 36.1454 6.86554 36.2754 6.7648 36.5055C6.65392 36.7757 6.71279 37.051 6.9218 37.2397C7.14095 37.3881 7.39525 37.4819 7.59952 37.6045ZM8.4061 35.5922C8.51093 35.6004 8.61576 35.6086 8.68068 35.6055C9.54974 35.5506 10.4087 35.5359 11.2777 35.4809C12.9009 35.403 14.5342 35.2849 16.1573 35.207C16.9364 35.1696 17.7054 35.1725 18.4744 35.1753C18.5643 35.1577 18.6495 35.0742 18.7496 35.0164C18.6651 34.9277 18.5656 34.8133 18.4709 34.7648C18.3762 34.7164 18.2613 34.7484 18.1564 34.7402C17.6073 34.7136 17.048 34.7272 16.534 34.6459C16.1248 34.5728 15.696 34.4079 15.3422 34.1997C14.9087 33.9689 14.5204 33.6431 14.1072 33.3318C13.5992 32.972 13.2265 32.4998 13.079 31.8976C12.8719 31.1923 12.7298 30.4839 12.6127 29.761C12.5057 28.9978 12.5036 28.2429 12.4616 27.4767C12.4419 27.3849 12.3425 27.2705 12.2627 27.2478C12.0781 27.217 12.1024 27.3747 12.1119 27.5067C12.1783 28.4308 12.2596 29.3805 12.301 30.319C12.3518 31.3894 12.3378 32.463 11.6203 33.3584C11.1287 33.9516 10.6419 34.6107 9.87699 34.8461C9.54696 34.9679 9.18242 34.9722 8.83277 35.0022C8.46824 35.0064 8.3729 35.1302 8.4061 35.5922ZM12.7015 26.1009C12.6683 25.6389 12.6154 25.0851 12.5477 24.5056C12.4705 23.794 12.4082 23.1082 12.306 22.4111C12.2722 22.1213 12.1078 22.01 11.8183 21.9709C11.4389 21.9494 11.1583 22.2145 11.2064 22.7023C11.3215 23.9419 11.5016 25.1783 11.6167 26.4179C11.6458 26.6417 11.7852 26.7674 11.9948 26.7839C12.4439 26.8683 12.6894 26.6578 12.7015 26.1009Z" fill="#BCBCBC"/>
<path d="M12.2894 24.3452C12.3388 24.4885 12.4132 24.6174 12.4227 24.7494C12.4762 25.1309 12.5046 25.5269 12.5581 25.9085C12.5628 25.9745 12.5676 26.0405 12.5324 26.0952C12.4973 26.1498 12.4472 26.1787 12.387 26.2478C12.3573 26.1963 12.2626 26.1479 12.2578 26.0818C12.2335 25.9241 12.2341 25.7518 12.2199 25.5538C12.186 25.2641 12.1522 24.9743 12.1183 24.6845C12.1237 24.5783 12.1542 24.4576 12.1595 24.3514C12.1995 24.3627 12.2644 24.3596 12.2894 24.3452Z" fill="#BCBCBC"/>
<path d="M12.0995 22.8051C12.2287 22.9711 12.381 23.6393 12.2755 23.8033C12.2653 23.8435 12.1504 23.8755 12.0956 23.8384C11.9711 23.7384 11.9791 22.9433 12.0995 22.8051Z" fill="#BCBCBC"/>
<path d="M62.483 41.541C62.7438 41.7958 63.0045 42.0506 63.2576 42.3341C63.579 42.6975 63.5809 42.9137 63.2497 43.2564C63.1198 43.4065 63.1169 43.529 63.19 43.7026C63.4373 44.2311 63.1147 45.0999 62.5757 45.3253C62.3063 45.438 62.0907 45.3494 61.8982 45.1746C61.2372 44.6277 60.6117 44.0595 59.9583 43.4838C58.0463 41.8005 56.1343 40.1172 54.1867 38.4552C53.7739 38.0981 53.3409 37.7047 52.9281 37.3476C52.0822 36.5971 52.3383 35.8646 53.0689 35.2591C53.3846 34.9739 53.8822 35.0148 54.2267 35.292C54.3229 35.3794 54.3989 35.4306 54.4951 35.518C54.7155 35.7003 54.9262 35.6952 55.1274 35.5026C55.4633 35.2536 55.7376 35.2346 56.0821 35.5118C56.2062 35.6067 56.3506 35.7379 56.467 35.8615C56.9356 36.2336 57.4582 36.4044 58.0549 36.4102C59.4032 36.4017 60.5322 35.8722 61.4216 34.7855C61.9135 34.1778 62.4612 33.585 62.9809 32.9847C63.1975 32.7346 63.3785 32.5057 63.2679 32.1371C63.215 31.9997 63.368 31.7634 63.4624 31.6346C64.0486 30.898 64.6627 30.1689 65.2768 29.4399C65.5444 29.111 65.8399 28.7896 66.1556 28.5044C66.7283 28.0415 67.35 28.1773 67.6781 28.8507C67.8118 29.133 67.8262 29.4142 67.6375 29.6718C67.3035 30.137 66.9416 30.5947 66.5873 31.0236C66.1032 31.6026 65.6392 32.2178 65.1348 32.7606C64.9693 32.932 64.7354 33.0234 64.5217 33.151C64.4149 33.2148 64.2243 33.2562 64.1377 33.3563C63.4446 34.1566 62.7516 34.957 62.1066 35.8011C61.7803 36.2375 61.5146 36.7826 61.348 37.2926C61.0226 38.2839 61.3015 39.2523 61.6594 40.1494C61.8383 40.5979 62.1443 41.0189 62.3868 41.4536C62.4474 41.5623 62.4753 41.5698 62.483 41.541ZM53.1754 36.9825C53.2111 36.9612 53.239 36.9687 53.2467 36.9399C54.2291 37.8503 55.2039 38.7894 56.1863 39.6998C57.4171 40.7999 58.6555 41.8713 59.9218 42.9502C60.5752 43.5258 61.2642 44.0802 61.9532 44.6346C62.1735 44.8169 62.3641 44.7755 62.5374 44.5754C62.8406 44.2253 62.8416 43.8866 62.4846 43.5444C61.634 42.7002 60.8113 41.8635 59.925 41.0405C58.5856 39.788 57.2307 38.5929 55.8557 37.3617C55.2504 36.8297 54.6451 36.2978 54.0399 35.7658C53.8474 35.591 53.5963 35.5237 53.3624 35.6151C53.0929 35.7278 52.9398 35.9641 52.9542 36.2453C53.0042 36.5052 53.1177 36.7513 53.1754 36.9825ZM55.1687 36.1299C55.237 36.2098 55.3053 36.2898 55.3534 36.3335C56.0068 36.9091 56.6246 37.5061 57.278 38.0817C58.4808 39.1744 59.7192 40.2458 60.922 41.3385C61.4994 41.8629 62.0411 42.4087 62.5829 42.9545C62.6589 43.0056 62.7782 43.0068 62.8899 43.0367C62.8928 42.9142 62.9034 42.763 62.8707 42.6618C62.838 42.5606 62.734 42.5019 62.6657 42.422C62.2962 42.0148 61.8911 41.6289 61.5851 41.208C61.3475 40.867 61.1608 40.4472 61.0579 40.0498C60.9146 39.58 60.8704 39.0752 60.7983 38.5628C60.6935 37.9492 60.7639 37.3518 61.0854 36.8217C61.4377 36.1765 61.8382 35.5751 62.2665 34.9811C62.7305 34.3659 63.2628 33.8306 63.7749 33.259C63.8259 33.1803 63.8365 33.029 63.7961 32.9566C63.6874 32.8042 63.593 32.933 63.5064 33.033C62.9 33.7334 62.2859 34.4624 61.6515 35.1553C60.9306 35.9482 60.1615 36.6974 59.0211 36.8232C58.254 36.895 57.4437 37.0168 56.7364 36.6424C56.4169 36.4952 56.1561 36.2404 55.8876 36.0144C55.6269 35.7596 55.4719 35.7797 55.1687 36.1299ZM64.9174 32.4558C65.2206 32.1057 65.5748 31.6767 65.9367 31.219C66.3853 30.6613 66.8262 30.1323 67.2468 29.5671C67.4278 29.3383 67.3903 29.1433 67.2132 28.911C66.9602 28.6275 66.5743 28.6165 66.2633 28.9955C65.4683 29.9534 64.7213 30.955 63.9262 31.9129C63.7885 32.0917 63.7981 32.2792 63.9348 32.4391C64.1926 32.8163 64.515 32.8411 64.9174 32.4558Z" fill="#BCBCBC"/>
<path d="M65.8678 30.9227C65.8014 31.059 65.7629 31.2028 65.6762 31.3028C65.4443 31.6104 65.1844 31.9106 64.9524 32.2182C64.9091 32.2682 64.8657 32.3182 64.8022 32.332C64.7387 32.3458 64.6829 32.3309 64.5915 32.3372C64.6069 32.2797 64.5742 32.1785 64.6175 32.1285C64.7118 31.9997 64.8341 31.8783 64.964 31.7283C65.145 31.4994 65.3259 31.2706 65.5069 31.0417C65.5858 30.9704 65.6927 30.9066 65.7716 30.8353C65.7918 30.8716 65.8399 30.9153 65.8678 30.9227Z" fill="#BCBCBC"/>
<path d="M66.8221 29.7003C66.796 29.909 66.4312 30.4892 66.2406 30.5306C66.205 30.5519 66.1011 30.4932 66.0886 30.4282C66.0713 30.2695 66.6392 29.7129 66.8221 29.7003Z" fill="#BCBCBC"/>
<path d="M49.5099 53.103C49.8075 52.9874 50.1647 52.9297 50.5814 52.9586C50.641 52.9586 50.76 52.9008 50.7898 52.843C51.0279 52.4674 51.3553 52.2651 51.772 52.2651C52.0399 52.2651 52.3376 52.3229 52.6054 52.3229C52.9031 52.3229 53.2305 52.3229 53.5281 52.2362C54.302 52.0051 54.9866 52.1784 55.6415 52.6407C55.6712 52.6696 55.701 52.7274 55.7307 52.7852C55.8498 52.9586 55.9689 53.1608 56.1177 53.3053C56.5344 53.7098 56.713 54.1721 56.6237 54.7499C56.5939 54.9233 56.6237 55.0966 56.6535 55.27C56.8023 55.79 56.6832 56.2234 56.2963 56.599C55.9391 56.9169 55.701 57.2636 55.6117 57.7258C55.5224 58.1592 55.195 58.3904 54.7783 58.4771C54.6592 58.506 54.5104 58.5349 54.3616 58.5349C54.0937 58.5637 53.8853 58.6504 53.7067 58.8816C53.4686 59.1994 53.1115 59.315 52.7245 59.2572C52.278 59.1994 51.8316 59.0838 51.3851 59.026C51.1767 58.9971 50.9684 59.026 50.7898 59.1127C50.5219 59.2283 50.3136 59.2572 50.0457 59.1416C49.4504 58.8816 49.0932 58.4193 48.8253 57.8703C48.736 57.6681 48.617 57.4658 48.5277 57.2636C48.4681 57.0902 48.3491 57.0613 48.1705 57.0902C46.2358 57.408 44.3011 57.7259 42.3663 58.0437C41.2055 58.2459 40.0149 58.4482 38.8541 58.6504C38.6457 58.6793 38.4374 58.6793 38.2588 58.6504C37.9909 58.6215 37.8421 58.4482 37.7826 58.1881C37.7528 57.9281 37.9314 57.8125 38.11 57.7259C38.2886 57.6681 38.4671 57.6103 38.6457 57.5814C41.5627 57.1191 44.4796 56.6568 47.3966 56.2234C47.4859 56.1945 47.6049 56.1945 47.724 56.1945C48.1109 56.1368 48.23 55.9923 48.23 55.6167C48.23 55.4722 48.2003 55.3278 48.2003 55.1833C48.111 54.2876 48.5872 53.5075 49.5099 53.103ZM55.6712 56.5412C55.701 56.5412 55.7307 56.5412 55.7605 56.5412C55.9093 56.3679 56.0879 56.2234 56.207 56.0212C56.2963 55.8767 56.3558 55.7034 56.3558 55.53C56.3558 55.0966 56.2963 54.6632 56.2665 54.2298C56.2367 53.912 56.1177 53.6809 55.8498 53.5075C55.7308 53.4497 55.6712 53.3053 55.6117 53.1897C55.5224 53.0741 55.4926 52.9008 55.3736 52.8141C54.8973 52.4096 54.0937 52.3229 53.5281 52.6118C53.4091 52.6696 53.3793 52.7563 53.4686 52.8719C53.5579 52.9874 53.6175 53.0741 53.7067 53.1897C53.8853 53.5075 53.9449 53.8542 53.9151 54.2009C53.9151 54.2587 53.796 54.3454 53.7365 54.4032C53.677 54.3454 53.6174 54.2587 53.5877 54.2009C53.5877 54.2009 53.5877 54.172 53.5877 54.1432C53.5877 53.652 53.3198 53.2764 53.0817 52.8719C53.0519 52.8141 52.9626 52.7563 52.8733 52.7274C52.5757 52.6696 52.278 52.5829 52.0101 52.5541C51.6827 52.5252 51.3553 52.6696 51.2065 52.9874C51.0279 53.3053 51.0874 53.6231 51.2958 53.912C51.5637 54.2876 51.5339 54.6054 51.266 55.0099C51.0577 54.9233 51.0279 54.7788 51.0577 54.5765C51.0874 54.172 50.9089 53.8542 50.7303 53.5075C50.7005 53.4497 50.5814 53.3919 50.4921 53.363C49.8671 53.2186 49.1527 53.4786 48.9146 54.0565C48.736 54.5766 48.6765 55.1544 48.5872 55.7034C48.5574 55.8767 48.6765 55.9634 48.8551 55.9345C49.123 55.9056 49.3908 55.8767 49.6885 55.8767C49.9861 55.8767 50.1945 56.0501 50.2243 56.339C50.254 56.5701 50.135 56.7146 49.8373 56.7724C49.5397 56.8302 49.242 56.888 48.9444 56.9458C48.9444 57.0035 48.9444 57.0613 48.9741 57.1191C49.123 57.5814 49.3908 57.9859 49.7183 58.3615C49.9564 58.5926 50.2243 58.7082 50.5814 58.6793C50.9684 58.6504 51.1172 58.506 51.1172 58.1303C51.1172 57.8414 51.0874 57.5525 51.0577 57.2636C51.0577 57.1769 51.0279 57.0902 51.0279 57.0035C51.3256 57.0324 51.4446 57.1769 51.4446 57.408C51.4446 57.7258 51.4744 58.0726 51.4744 58.3904C51.4744 58.5349 51.5041 58.5926 51.653 58.6215C52.0399 58.6793 52.4269 58.766 52.8138 58.8238C53.2007 58.8816 53.4984 58.6793 53.5579 58.3037C53.5877 58.0726 53.5579 57.8125 53.5281 57.5525C53.4686 57.2347 53.4686 56.9458 53.5579 56.6279C53.8258 56.7146 53.9449 56.8591 53.9449 57.0902C53.9449 57.3214 53.9746 57.5814 54.0342 57.8125C54.0639 58.0437 54.2127 58.1304 54.4509 58.1015C55.1057 58.0437 55.701 57.3214 55.4926 56.7146C55.3736 56.3968 55.3438 56.1367 55.3438 55.8189C55.3438 55.4144 55.3438 54.981 55.0462 54.6343C55.0462 54.6343 55.0462 54.6054 55.0759 54.6054C55.4033 54.6632 55.6415 54.8655 55.6712 55.1833C55.701 55.53 55.701 55.8767 55.701 56.2523C55.6117 56.3679 55.6712 56.4546 55.6712 56.5412ZM49.748 56.3679C49.748 56.339 49.748 56.3101 49.7183 56.2812C49.629 56.2812 49.5099 56.2812 49.4206 56.2812C47.9919 56.4835 46.5929 56.6857 45.1642 56.9169C42.9914 57.2636 40.8186 57.6392 38.6457 57.9859C38.4671 58.0148 38.3183 58.1015 38.1397 58.1592C38.1397 58.1881 38.1397 58.2459 38.1695 58.2748C38.3183 58.2748 38.4374 58.3326 38.5862 58.3037C39.0327 58.2459 39.5089 58.217 39.9554 58.1303C41.771 57.8125 43.5867 57.4947 45.3726 57.1769C46.6227 56.9746 47.8728 56.7724 49.123 56.5701C49.3313 56.5701 49.5694 56.5413 49.748 56.3679Z" fill="#BCBCBC"/>
<path d="M52.2187 54.6627C52.6355 54.6338 52.7843 54.8072 52.7843 55.2117C52.7843 55.4428 52.8736 55.674 52.9331 55.9051C52.9629 55.9629 53.0224 56.0207 53.0224 56.0785C53.0224 56.1651 52.9629 56.2518 52.9033 56.2807C52.8736 56.3096 52.7247 56.2518 52.695 56.2229C52.5462 55.9629 52.3973 55.7028 52.3973 55.385C52.4569 55.1539 52.308 54.9227 52.2187 54.6627Z" fill="#BCBCBC"/>
<path d="M50.1051 55.5303C49.8967 55.5014 49.8372 55.3858 49.8074 55.2413C49.7181 54.8946 49.6586 54.5479 49.5693 54.2012C49.5395 54.0856 49.5395 53.9701 49.5098 53.8545C49.9562 53.8545 50.2241 54.6346 50.1051 55.5303Z" fill="#BCBCBC"/>
<path d="M33.7485 24.3407C33.633 24.043 33.5752 23.6859 33.6041 23.2691C33.6041 23.2096 33.5463 23.0906 33.4885 23.0608C33.1129 22.8227 32.9106 22.4953 32.9106 22.0786C32.9106 21.8107 32.9684 21.513 32.9684 21.2451C32.9684 20.9475 32.9684 20.6201 32.8817 20.3224C32.6506 19.5486 32.824 18.864 33.2862 18.2091C33.3151 18.1794 33.3729 18.1496 33.4307 18.1198C33.6041 18.0008 33.8063 17.8817 33.9508 17.7329C34.3553 17.3162 34.8176 17.1376 35.3954 17.2269C35.5688 17.2567 35.7421 17.2269 35.9155 17.1971C36.4355 17.0483 36.8689 17.1674 37.2445 17.5543C37.5624 17.9115 37.9091 18.1496 38.3714 18.2389C38.8047 18.3282 39.0359 18.6556 39.1226 19.0723C39.1515 19.1914 39.1804 19.3402 39.1804 19.489C39.2093 19.7569 39.2959 19.9653 39.5271 20.1438C39.8449 20.382 39.9605 20.7391 39.9027 21.1261C39.8449 21.5725 39.7293 22.019 39.6715 22.4655C39.6426 22.6738 39.6715 22.8822 39.7582 23.0608C39.8738 23.3287 39.9027 23.537 39.7871 23.8049C39.5271 24.4002 39.0648 24.7574 38.5158 25.0253C38.3136 25.1146 38.1113 25.2336 37.9091 25.3229C37.7357 25.3825 37.7068 25.5015 37.7357 25.6801C38.0535 27.6148 38.3714 29.5495 38.6892 31.4842C38.8914 32.6451 39.0937 33.8357 39.2959 34.9965C39.3248 35.2048 39.3248 35.4132 39.2959 35.5918C39.267 35.8597 39.0937 36.0085 38.8336 36.068C38.5736 36.0978 38.458 35.9192 38.3714 35.7406C38.3136 35.562 38.2558 35.3834 38.2269 35.2049C37.7646 32.2879 37.3023 29.3709 36.8689 26.454C36.84 26.3647 36.84 26.2456 36.84 26.1266C36.7823 25.7396 36.6378 25.6206 36.2622 25.6206C36.1177 25.6206 35.9733 25.6503 35.8288 25.6503C34.9331 25.7396 34.153 25.2634 33.7485 24.3407ZM37.1868 18.1794C37.1868 18.1496 37.1868 18.1198 37.1868 18.0901C37.0134 17.9413 36.8689 17.7627 36.6667 17.6436C36.5222 17.5543 36.3489 17.4948 36.1755 17.4948C35.7421 17.4948 35.3087 17.5543 34.8753 17.5841C34.5575 17.6138 34.3264 17.7329 34.153 18.0008C34.0952 18.1198 33.9508 18.1794 33.8352 18.2389C33.7196 18.3282 33.5463 18.358 33.4596 18.477C33.0551 18.9533 32.9684 19.7569 33.2574 20.3224C33.3151 20.4415 33.4018 20.4713 33.5174 20.382C33.633 20.2927 33.7196 20.2331 33.8352 20.1438C34.153 19.9653 34.4997 19.9057 34.8465 19.9355C34.9042 19.9355 34.9909 20.0546 35.0487 20.1141C34.9909 20.1736 34.9042 20.2331 34.8465 20.2629C34.8465 20.2629 34.8176 20.2629 34.7887 20.2629C34.2975 20.2629 33.9219 20.5308 33.5174 20.7689C33.4596 20.7987 33.4018 20.888 33.3729 20.9773C33.3151 21.2749 33.2285 21.5726 33.1996 21.8404C33.1707 22.1679 33.3151 22.4953 33.633 22.6441C33.9508 22.8227 34.2686 22.7632 34.5575 22.5548C34.9331 22.2869 35.2509 22.3167 35.6554 22.5846C35.5688 22.7929 35.4243 22.8227 35.2221 22.7929C34.8176 22.7632 34.4997 22.9417 34.153 23.1203C34.0952 23.1501 34.0374 23.2691 34.0086 23.3584C33.8641 23.9835 34.1241 24.6979 34.702 24.936C35.2221 25.1146 35.7999 25.1741 36.3489 25.2634C36.5222 25.2932 36.6089 25.1741 36.58 24.9955C36.5511 24.7276 36.5222 24.4597 36.5222 24.1621C36.5222 23.8644 36.6956 23.6561 36.9845 23.6263C37.2157 23.5966 37.3601 23.7156 37.4179 24.0133C37.4757 24.3109 37.5335 24.6086 37.5913 24.9062C37.649 24.9062 37.7068 24.9062 37.7646 24.8765C38.2269 24.7276 38.6314 24.4597 39.007 24.1323C39.2381 23.8942 39.3537 23.6263 39.3248 23.2691C39.2959 22.8822 39.1515 22.7334 38.7759 22.7334C38.4869 22.7334 38.198 22.7632 37.9091 22.7929C37.8224 22.7929 37.7357 22.8227 37.649 22.8227C37.6779 22.525 37.8224 22.406 38.0535 22.406C38.3714 22.406 38.7181 22.3762 39.0359 22.3762C39.1804 22.3762 39.2381 22.3464 39.267 22.1976C39.3248 21.8107 39.4115 21.4237 39.4693 21.0368C39.5271 20.6498 39.3248 20.3522 38.9492 20.2927C38.7181 20.2629 38.458 20.2927 38.198 20.3224C37.8802 20.382 37.5913 20.382 37.2734 20.2927C37.3601 20.0248 37.5046 19.9057 37.7357 19.9057C37.9669 19.9057 38.2269 19.876 38.458 19.8164C38.6892 19.7867 38.7759 19.6378 38.747 19.3997C38.6892 18.7449 37.9669 18.1496 37.3601 18.358C37.0423 18.477 36.7823 18.5068 36.4644 18.5068C36.0599 18.5068 35.6266 18.5068 35.2798 18.8044C35.2798 18.8044 35.2509 18.8044 35.2509 18.7747C35.3087 18.4473 35.511 18.2091 35.8288 18.1794C36.1755 18.1496 36.5222 18.1496 36.8978 18.1496C37.0134 18.2389 37.1001 18.1794 37.1868 18.1794ZM37.0134 24.1026C36.9845 24.1026 36.9556 24.1026 36.9267 24.1323C36.9267 24.2216 36.9267 24.3407 36.9267 24.43C37.129 25.8587 37.3312 27.2576 37.5624 28.6863C37.9091 30.8592 38.2847 33.032 38.6314 35.2049C38.6603 35.3834 38.747 35.5322 38.8047 35.7108C38.8336 35.7108 38.8914 35.7108 38.9203 35.6811C38.9203 35.5323 38.9781 35.4132 38.9492 35.2644C38.8914 34.8179 38.8625 34.3417 38.7759 33.8952C38.458 32.0795 38.1402 30.2639 37.8224 28.478C37.6201 27.2279 37.4179 25.9778 37.2156 24.7276C37.2156 24.5193 37.1868 24.2811 37.0134 24.1026Z" fill="#BCBCBC"/>
<path d="M35.3077 21.6318C35.2788 21.2151 35.4522 21.0663 35.8567 21.0663C36.0878 21.0663 36.319 20.977 36.5501 20.9175C36.6079 20.8877 36.6657 20.8282 36.7235 20.8282C36.8102 20.8282 36.8968 20.8877 36.9257 20.9472C36.9546 20.977 36.8968 21.1258 36.8679 21.1556C36.6079 21.3044 36.3479 21.4533 36.03 21.4533C35.7989 21.3937 35.5678 21.5425 35.3077 21.6318Z" fill="#BCBCBC"/>
<path d="M36.1758 23.7455C36.1469 23.9539 36.0313 24.0134 35.8869 24.0432C35.5401 24.1325 35.1934 24.192 34.8467 24.2813C34.7312 24.3111 34.6156 24.3111 34.5 24.3408C34.5 23.8943 35.2801 23.6265 36.1758 23.7455Z" fill="#BCBCBC"/>
<path d="M20.5099 44.103C20.8075 43.9874 21.1647 43.9297 21.5814 43.9586C21.641 43.9586 21.76 43.9008 21.7898 43.843C22.0279 43.4674 22.3553 43.2651 22.772 43.2651C23.0399 43.2651 23.3376 43.3229 23.6054 43.3229C23.9031 43.3229 24.2305 43.3229 24.5281 43.2362C25.302 43.0051 25.9866 43.1784 26.6415 43.6407C26.6712 43.6696 26.701 43.7274 26.7307 43.7852C26.8498 43.9586 26.9689 44.1608 27.1177 44.3053C27.5344 44.7098 27.713 45.1721 27.6237 45.7499C27.5939 45.9233 27.6237 46.0966 27.6535 46.27C27.8023 46.79 27.6832 47.2234 27.2963 47.599C26.9391 47.9169 26.701 48.2636 26.6117 48.7258C26.5224 49.1592 26.195 49.3904 25.7783 49.4771C25.6592 49.506 25.5104 49.5349 25.3616 49.5349C25.0937 49.5637 24.8853 49.6504 24.7067 49.8816C24.4686 50.1994 24.1115 50.315 23.7245 50.2572C23.278 50.1994 22.8316 50.0838 22.3851 50.026C22.1767 49.9971 21.9684 50.026 21.7898 50.1127C21.5219 50.2283 21.3136 50.2572 21.0457 50.1416C20.4504 49.8816 20.0932 49.4193 19.8253 48.8703C19.736 48.6681 19.617 48.4658 19.5277 48.2636C19.4681 48.0902 19.3491 48.0613 19.1705 48.0902C17.2358 48.408 15.3011 48.7259 13.3663 49.0437C12.2055 49.2459 11.0149 49.4482 9.85409 49.6504C9.64574 49.6793 9.43739 49.6793 9.2588 49.6504C8.99091 49.6215 8.8421 49.4482 8.78257 49.1881C8.7528 48.9281 8.93138 48.8125 9.10997 48.7259C9.28856 48.6681 9.46715 48.6103 9.64574 48.5814C12.5627 48.1191 15.4796 47.6568 18.3966 47.2234C18.4859 47.1945 18.6049 47.1945 18.724 47.1945C19.1109 47.1368 19.23 46.9923 19.23 46.6167C19.23 46.4722 19.2003 46.3278 19.2003 46.1833C19.111 45.2876 19.5872 44.5075 20.5099 44.103ZM26.6712 47.5412C26.701 47.5412 26.7307 47.5412 26.7605 47.5412C26.9093 47.3679 27.0879 47.2234 27.207 47.0212C27.2963 46.8767 27.3558 46.7034 27.3558 46.53C27.3558 46.0966 27.2963 45.6632 27.2665 45.2298C27.2367 44.912 27.1177 44.6809 26.8498 44.5075C26.7308 44.4497 26.6712 44.3053 26.6117 44.1897C26.5224 44.0741 26.4926 43.9008 26.3736 43.8141C25.8973 43.4096 25.0937 43.3229 24.5281 43.6118C24.4091 43.6696 24.3793 43.7563 24.4686 43.8719C24.5579 43.9874 24.6175 44.0741 24.7067 44.1897C24.8853 44.5075 24.9449 44.8542 24.9151 45.2009C24.9151 45.2587 24.796 45.3454 24.7365 45.4032C24.677 45.3454 24.6174 45.2587 24.5877 45.2009C24.5877 45.2009 24.5877 45.172 24.5877 45.1432C24.5877 44.652 24.3198 44.2764 24.0817 43.8719C24.0519 43.8141 23.9626 43.7563 23.8733 43.7274C23.5757 43.6696 23.278 43.5829 23.0101 43.5541C22.6827 43.5252 22.3553 43.6696 22.2065 43.9874C22.0279 44.3053 22.0874 44.6231 22.2958 44.912C22.5637 45.2876 22.5339 45.6054 22.266 46.0099C22.0577 45.9233 22.0279 45.7788 22.0577 45.5765C22.0874 45.172 21.9089 44.8542 21.7303 44.5075C21.7005 44.4497 21.5814 44.3919 21.4921 44.363C20.8671 44.2186 20.1527 44.4786 19.9146 45.0565C19.736 45.5766 19.6765 46.1544 19.5872 46.7034C19.5574 46.8767 19.6765 46.9634 19.8551 46.9345C20.123 46.9056 20.3908 46.8767 20.6885 46.8767C20.9861 46.8767 21.1945 47.0501 21.2243 47.339C21.254 47.5701 21.135 47.7146 20.8373 47.7724C20.5397 47.8302 20.242 47.888 19.9444 47.9458C19.9444 48.0035 19.9444 48.0613 19.9741 48.1191C20.123 48.5814 20.3908 48.9859 20.7183 49.3615C20.9564 49.5926 21.2243 49.7082 21.5814 49.6793C21.9684 49.6504 22.1172 49.506 22.1172 49.1303C22.1172 48.8414 22.0874 48.5525 22.0577 48.2636C22.0577 48.1769 22.0279 48.0902 22.0279 48.0035C22.3256 48.0324 22.4446 48.1769 22.4446 48.408C22.4446 48.7258 22.4744 49.0726 22.4744 49.3904C22.4744 49.5349 22.5041 49.5926 22.653 49.6215C23.0399 49.6793 23.4269 49.766 23.8138 49.8238C24.2007 49.8816 24.4984 49.6793 24.5579 49.3037C24.5877 49.0726 24.5579 48.8125 24.5281 48.5525C24.4686 48.2347 24.4686 47.9458 24.5579 47.6279C24.8258 47.7146 24.9449 47.8591 24.9449 48.0902C24.9449 48.3214 24.9746 48.5814 25.0342 48.8125C25.0639 49.0437 25.2127 49.1304 25.4509 49.1015C26.1057 49.0437 26.701 48.3214 26.4926 47.7146C26.3736 47.3968 26.3438 47.1367 26.3438 46.8189C26.3438 46.4144 26.3438 45.981 26.0462 45.6343C26.0462 45.6343 26.0462 45.6054 26.0759 45.6054C26.4033 45.6632 26.6415 45.8655 26.6712 46.1833C26.701 46.53 26.701 46.8767 26.701 47.2523C26.6117 47.3679 26.6712 47.4546 26.6712 47.5412ZM20.748 47.3679C20.748 47.339 20.748 47.3101 20.7183 47.2812C20.629 47.2812 20.5099 47.2812 20.4206 47.2812C18.9919 47.4835 17.5929 47.6857 16.1642 47.9169C13.9914 48.2636 11.8186 48.6392 9.64574 48.9859C9.46715 49.0148 9.31834 49.1015 9.13975 49.1592C9.13975 49.1881 9.13974 49.2459 9.16951 49.2748C9.31833 49.2748 9.4374 49.3326 9.58622 49.3037C10.0327 49.2459 10.5089 49.217 10.9554 49.1303C12.771 48.8125 14.5867 48.4947 16.3726 48.1769C17.6227 47.9746 18.8728 47.7724 20.123 47.5701C20.3313 47.5701 20.5694 47.5413 20.748 47.3679Z" fill="#BCBCBC"/>
<path d="M23.2187 45.6627C23.6355 45.6338 23.7843 45.8072 23.7843 46.2117C23.7843 46.4428 23.8736 46.674 23.9331 46.9051C23.9629 46.9629 24.0224 47.0207 24.0224 47.0785C24.0224 47.1651 23.9629 47.2518 23.9033 47.2807C23.8736 47.3096 23.7247 47.2518 23.695 47.2229C23.5462 46.9629 23.3973 46.7028 23.3973 46.385C23.4569 46.1539 23.308 45.9227 23.2187 45.6627Z" fill="#BCBCBC"/>
<path d="M21.1051 46.5303C20.8967 46.5014 20.8372 46.3858 20.8074 46.2413C20.7181 45.8946 20.6586 45.5479 20.5693 45.2012C20.5395 45.0856 20.5395 44.9701 20.5098 44.8545C20.9562 44.8545 21.2241 45.6346 21.1051 46.5303Z" fill="#BCBCBC"/>
<path d="M51.5099 43.103C51.8075 42.9874 52.1647 42.9297 52.5814 42.9586C52.641 42.9586 52.76 42.9008 52.7898 42.843C53.0279 42.4674 53.3553 42.2651 53.772 42.2651C54.0399 42.2651 54.3376 42.3229 54.6054 42.3229C54.9031 42.3229 55.2305 42.3229 55.5281 42.2362C56.302 42.0051 56.9866 42.1784 57.6415 42.6407C57.6712 42.6696 57.701 42.7274 57.7307 42.7852C57.8498 42.9586 57.9689 43.1608 58.1177 43.3053C58.5344 43.7098 58.713 44.1721 58.6237 44.7499C58.5939 44.9233 58.6237 45.0966 58.6535 45.27C58.8023 45.79 58.6832 46.2234 58.2963 46.599C57.9391 46.9169 57.701 47.2636 57.6117 47.7258C57.5224 48.1592 57.195 48.3904 56.7783 48.4771C56.6592 48.506 56.5104 48.5349 56.3616 48.5349C56.0937 48.5637 55.8853 48.6504 55.7067 48.8816C55.4686 49.1994 55.1115 49.315 54.7245 49.2572C54.278 49.1994 53.8316 49.0838 53.3851 49.026C53.1767 48.9971 52.9684 49.026 52.7898 49.1127C52.5219 49.2283 52.3136 49.2572 52.0457 49.1416C51.4504 48.8816 51.0932 48.4193 50.8253 47.8703C50.736 47.6681 50.617 47.4658 50.5277 47.2636C50.4681 47.0902 50.3491 47.0613 50.1705 47.0902C48.2358 47.408 46.3011 47.7259 44.3663 48.0437C43.2055 48.2459 42.0149 48.4482 40.8541 48.6504C40.6457 48.6793 40.4374 48.6793 40.2588 48.6504C39.9909 48.6215 39.8421 48.4482 39.7826 48.1881C39.7528 47.9281 39.9314 47.8125 40.11 47.7259C40.2886 47.6681 40.4671 47.6103 40.6457 47.5814C43.5627 47.1191 46.4796 46.6568 49.3966 46.2234C49.4859 46.1945 49.6049 46.1945 49.724 46.1945C50.1109 46.1368 50.23 45.9923 50.23 45.6167C50.23 45.4722 50.2003 45.3278 50.2003 45.1833C50.111 44.2876 50.5872 43.5075 51.5099 43.103ZM57.6712 46.5412C57.701 46.5412 57.7307 46.5412 57.7605 46.5412C57.9093 46.3679 58.0879 46.2234 58.207 46.0212C58.2963 45.8767 58.3558 45.7034 58.3558 45.53C58.3558 45.0966 58.2963 44.6632 58.2665 44.2298C58.2367 43.912 58.1177 43.6809 57.8498 43.5075C57.7308 43.4497 57.6712 43.3053 57.6117 43.1897C57.5224 43.0741 57.4926 42.9008 57.3736 42.8141C56.8973 42.4096 56.0937 42.3229 55.5281 42.6118C55.4091 42.6696 55.3793 42.7563 55.4686 42.8719C55.5579 42.9874 55.6175 43.0741 55.7067 43.1897C55.8853 43.5075 55.9449 43.8542 55.9151 44.2009C55.9151 44.2587 55.796 44.3454 55.7365 44.4032C55.677 44.3454 55.6174 44.2587 55.5877 44.2009C55.5877 44.2009 55.5877 44.172 55.5877 44.1432C55.5877 43.652 55.3198 43.2764 55.0817 42.8719C55.0519 42.8141 54.9626 42.7563 54.8733 42.7274C54.5757 42.6696 54.278 42.5829 54.0101 42.5541C53.6827 42.5252 53.3553 42.6696 53.2065 42.9874C53.0279 43.3053 53.0874 43.6231 53.2958 43.912C53.5637 44.2876 53.5339 44.6054 53.266 45.0099C53.0577 44.9233 53.0279 44.7788 53.0577 44.5765C53.0874 44.172 52.9089 43.8542 52.7303 43.5075C52.7005 43.4497 52.5814 43.3919 52.4921 43.363C51.8671 43.2186 51.1527 43.4786 50.9146 44.0565C50.736 44.5766 50.6765 45.1544 50.5872 45.7034C50.5574 45.8767 50.6765 45.9634 50.8551 45.9345C51.123 45.9056 51.3908 45.8767 51.6885 45.8767C51.9861 45.8767 52.1945 46.0501 52.2243 46.339C52.254 46.5701 52.135 46.7146 51.8373 46.7724C51.5397 46.8302 51.242 46.888 50.9444 46.9458C50.9444 47.0035 50.9444 47.0613 50.9741 47.1191C51.123 47.5814 51.3908 47.9859 51.7183 48.3615C51.9564 48.5926 52.2243 48.7082 52.5814 48.6793C52.9684 48.6504 53.1172 48.506 53.1172 48.1303C53.1172 47.8414 53.0874 47.5525 53.0577 47.2636C53.0577 47.1769 53.0279 47.0902 53.0279 47.0035C53.3256 47.0324 53.4446 47.1769 53.4446 47.408C53.4446 47.7258 53.4744 48.0726 53.4744 48.3904C53.4744 48.5349 53.5041 48.5926 53.653 48.6215C54.0399 48.6793 54.4269 48.766 54.8138 48.8238C55.2007 48.8816 55.4984 48.6793 55.5579 48.3037C55.5877 48.0726 55.5579 47.8125 55.5281 47.5525C55.4686 47.2347 55.4686 46.9458 55.5579 46.6279C55.8258 46.7146 55.9449 46.8591 55.9449 47.0902C55.9449 47.3214 55.9746 47.5814 56.0342 47.8125C56.0639 48.0437 56.2127 48.1304 56.4509 48.1015C57.1057 48.0437 57.701 47.3214 57.4926 46.7146C57.3736 46.3968 57.3438 46.1367 57.3438 45.8189C57.3438 45.4144 57.3438 44.981 57.0462 44.6343C57.0462 44.6343 57.0462 44.6054 57.0759 44.6054C57.4033 44.6632 57.6415 44.8655 57.6712 45.1833C57.701 45.53 57.701 45.8767 57.701 46.2523C57.6117 46.3679 57.6712 46.4546 57.6712 46.5412ZM51.748 46.3679C51.748 46.339 51.748 46.3101 51.7183 46.2812C51.629 46.2812 51.5099 46.2812 51.4206 46.2812C49.9919 46.4835 48.5929 46.6857 47.1642 46.9169C44.9914 47.2636 42.8186 47.6392 40.6457 47.9859C40.4671 48.0148 40.3183 48.1015 40.1397 48.1592C40.1397 48.1881 40.1397 48.2459 40.1695 48.2748C40.3183 48.2748 40.4374 48.3326 40.5862 48.3037C41.0327 48.2459 41.5089 48.217 41.9554 48.1303C43.771 47.8125 45.5867 47.4947 47.3726 47.1769C48.6227 46.9746 49.8728 46.7724 51.123 46.5701C51.3313 46.5701 51.5694 46.5413 51.748 46.3679Z" fill="#BCBCBC"/>
<path d="M54.2187 44.6627C54.6355 44.6338 54.7843 44.8072 54.7843 45.2117C54.7843 45.4428 54.8736 45.674 54.9331 45.9051C54.9629 45.9629 55.0224 46.0207 55.0224 46.0785C55.0224 46.1651 54.9629 46.2518 54.9033 46.2807C54.8736 46.3096 54.7247 46.2518 54.695 46.2229C54.5462 45.9629 54.3973 45.7028 54.3973 45.385C54.4569 45.1539 54.308 44.9227 54.2187 44.6627Z" fill="#BCBCBC"/>
<path d="M52.1051 45.5303C51.8967 45.5014 51.8372 45.3858 51.8074 45.2413C51.7181 44.8946 51.6586 44.5479 51.5693 44.2012C51.5395 44.0856 51.5395 43.9701 51.5098 43.8545C51.9562 43.8545 52.2241 44.6346 52.1051 45.5303Z" fill="#BCBCBC"/>
<path d="M45.7513 0.886224C46.6145 2.73536 47.4776 4.5556 48.3111 6.40473C48.7278 7.30041 49.0552 8.19608 49.4421 9.09175C49.4719 9.17843 49.5017 9.26511 49.5314 9.35179C49.6207 9.6985 49.5612 9.92964 49.2338 10.103C48.8468 10.3052 48.4004 10.4786 48.0134 10.6809C46.8526 11.2298 45.7215 11.7788 44.5607 12.2988C43.3701 12.8478 42.1795 13.3679 40.9889 13.8879C40.2448 14.2058 39.5305 14.1769 38.8161 13.8013C37.8636 13.3101 36.9409 12.79 35.9884 12.27C35.8098 12.1833 35.661 12.1255 35.4824 12.2411C35.3336 12.3277 35.1848 12.4144 35.0062 12.4144C34.8276 12.4433 34.649 12.3855 34.4704 12.3855C34.3514 12.3855 34.2323 12.3277 34.1132 12.3566C33.9049 12.4144 33.6965 12.5011 33.518 12.5589C32.8929 12.7611 32.5059 12.6167 32.1785 12.0677C31.9999 11.7499 31.8511 11.4032 31.7023 11.0565C31.5832 10.7675 31.613 10.5942 31.8809 10.4208C32.2083 10.2186 32.506 9.98743 32.8334 9.78518C32.9524 9.72739 33.012 9.66961 32.9822 9.52514C32.9524 9.09175 33.1905 8.80283 33.5775 8.62947C33.8751 8.5139 33.9942 8.31165 34.0835 8.02272C34.2621 7.24262 34.4704 6.46252 34.7085 5.68242C34.7978 5.39349 34.9169 5.07567 35.0657 4.81563C35.2741 4.35335 35.6015 4.03553 36.1075 3.80439C38.1017 2.90872 40.0662 1.95526 42.0307 1.03069C42.6558 0.741761 43.2808 0.423941 43.9356 0.163907C44.65 -0.153913 45.0369 -0.00944959 45.4834 0.597297C45.5429 0.683976 45.6025 0.799548 45.6918 0.915119C45.6918 0.886226 45.7215 0.886224 45.7513 0.886224ZM36.2563 4.12221C35.7801 4.41113 35.4824 4.70006 35.3038 5.16235C35.1253 5.68241 34.9467 6.20248 34.7978 6.75145C34.649 7.27151 34.5002 7.79158 34.3811 8.34054C34.3514 8.48501 34.3514 8.65836 34.4109 8.80283C34.7085 9.43847 35.036 10.0452 35.3038 10.7097C35.6015 11.461 36.048 11.981 36.8218 12.3277C37.5064 12.6167 38.1315 13.0501 38.7863 13.3679C39.4412 13.7146 40.1555 13.8591 40.8699 13.5701C42.0009 13.0789 43.132 12.5878 44.2631 12.0677C45.7215 11.4032 47.1502 10.7097 48.579 10.0452C49.1147 9.78518 49.2338 9.55404 48.9957 9.03397C48.1325 7.09816 47.2991 5.16235 46.4061 3.22654C46.0489 2.41754 45.6025 1.63744 45.1858 0.857334C44.9179 0.337265 44.65 0.250587 44.1142 0.481728C43.638 0.683978 43.1915 0.915118 42.7153 1.11737C41.3163 1.7819 39.8876 2.44643 38.4887 3.11096C37.685 3.45767 36.9409 3.80439 36.2563 4.12221ZM34.143 11.981C34.143 11.9232 34.143 11.8943 34.143 11.8655C33.8454 11.2876 33.5477 10.7386 33.2501 10.1608C33.2203 10.103 33.1012 10.0741 33.0417 10.103C32.7738 10.2475 32.5357 10.3919 32.2976 10.5942C32.119 10.7675 32.0892 10.9987 32.2083 11.2298C32.3274 11.461 32.4762 11.6921 32.625 11.9232C32.7738 12.1833 33.012 12.27 33.3096 12.1833C33.5775 12.1544 33.8454 12.0677 34.143 11.981ZM34.53 11.721C34.5002 11.7499 34.5002 11.7499 34.53 11.721C34.6192 11.8366 34.7085 12.0099 34.8276 12.0388C34.9467 12.0677 35.155 12.0099 35.2741 11.9232C35.3336 11.8655 35.3634 11.6921 35.3336 11.6054C35.2145 11.2587 35.036 10.9409 34.8871 10.6231C34.649 10.103 34.3811 9.61182 34.143 9.12065C33.9942 8.86061 33.7561 8.83172 33.5775 9.09175C33.3989 9.294 33.3989 9.55404 33.518 9.75629C33.8454 10.4208 34.1728 11.0854 34.53 11.721Z" fill="#BCBCBC"/>
<path d="M38.6969 6.26069C38.429 5.74062 38.1612 5.24945 37.923 4.72938C37.7445 4.32488 37.804 4.12263 38.2207 3.92038C38.8458 3.60256 39.5006 3.28474 40.1554 2.99582C41.1972 2.50464 42.2687 2.04236 43.3105 1.58008C43.37 1.55118 43.4295 1.52229 43.5188 1.52229C43.757 1.4645 43.9058 1.52229 43.9355 1.75343C43.9653 1.98457 43.9653 2.21571 43.9355 2.44686C43.6379 3.92038 42.9533 5.22055 42.0604 6.43405C41.7032 6.95412 41.1972 7.21415 40.5423 7.30083C39.7982 7.38751 39.2625 7.06969 38.8458 6.49184C38.7862 6.37626 38.7565 6.31848 38.6969 6.26069ZM38.7862 3.97817C38.6969 4.06484 38.6374 4.09374 38.5481 4.15152C38.2802 4.29599 38.1909 4.44045 38.3398 4.72938C38.5481 5.19166 38.7267 5.65395 39.0243 6.05844C39.5006 6.75187 40.0661 6.98301 40.8102 6.80965C41.2269 6.72297 41.5246 6.49183 41.7925 6.17401C42.5961 5.13388 43.1021 3.97817 43.5188 2.73578C43.5784 2.50464 43.6081 2.2735 43.6379 2.04236C43.6677 1.84011 43.6081 1.81121 43.4295 1.89789C43.0724 2.04236 42.6854 2.21571 42.3282 2.38907C41.1376 2.90914 39.9471 3.4581 38.7862 3.97817Z" fill="#BCBCBC"/>
<path d="M37.0303 11.779C37.2684 11.8368 37.4767 11.8946 37.7149 11.9813C37.9827 12.0968 38.2209 12.2124 38.459 12.3569C39.3519 12.9347 40.2449 13.0214 41.2271 12.5591C41.8522 12.2702 42.4772 12.0391 43.1023 11.8079C43.1916 11.779 43.2809 11.8079 43.3999 11.8368C43.3404 11.9235 43.2809 12.0102 43.2214 12.0679C42.3879 12.4147 41.5545 12.7325 40.7211 13.0792C40.2449 13.2814 39.7686 13.3103 39.3222 13.1081C38.578 12.7614 37.8637 12.3569 37.1196 11.9813C37.0898 11.9524 37.06 11.9235 37.0303 11.8946C37.0303 11.8079 37.0303 11.8079 37.0303 11.779Z" fill="#BCBCBC"/>
<path d="M35.1851 7.93589C35.1851 7.84921 35.1553 7.76253 35.1851 7.67585C35.2446 7.41582 35.3042 7.15578 35.3339 6.86686C35.453 6.02897 35.8399 5.30665 36.3757 4.64212C36.5543 4.43987 36.7924 4.26651 37.0305 4.12205C37.0901 4.09316 37.2389 4.15095 37.3282 4.17984C37.2686 4.23762 37.2389 4.3243 37.1496 4.38209C36.9412 4.55544 36.7031 4.69991 36.5543 4.90216C36.1078 5.45112 35.7804 6.08676 35.6613 6.80907C35.6316 7.04021 35.572 7.27136 35.5125 7.5025C35.453 7.64696 35.3637 7.79143 35.2744 7.93589C35.2744 7.96478 35.2446 7.93589 35.1851 7.93589Z" fill="#BCBCBC"/>
<path d="M44.084 11.4034C44.2328 11.2878 44.4114 11.1722 44.5602 11.0856C45.5127 10.5944 46.4652 10.1321 47.4176 9.66983C47.5367 9.61204 47.6558 9.58315 47.7748 9.58315C47.8343 9.58315 47.8939 9.64093 47.9534 9.66983C47.9237 9.72761 47.8641 9.7854 47.8344 9.81429C47.2391 10.1032 46.6735 10.3921 46.0782 10.6811C45.5425 10.9411 44.9769 11.2011 44.4412 11.4612C44.3519 11.519 44.2328 11.519 44.1138 11.5479C44.1138 11.4612 44.084 11.4323 44.084 11.4034Z" fill="#BCBCBC"/>
<path d="M61.6289 16.0886C61.3908 16.8398 61.0336 17.5622 60.5276 18.1978C60.1705 18.6312 59.6645 18.7179 59.1585 18.8045C58.2358 18.9201 57.4321 18.689 56.688 18.1689C56.3903 17.9378 56.3606 17.9378 56.1225 18.2267C55.289 19.1224 54.2473 19.5557 53.0269 19.6424C52.2828 19.7002 51.5982 19.5558 50.8541 19.4402C49.9909 19.3246 49.098 19.1801 48.205 19.3246C47.699 19.3824 47.2823 19.5846 46.8954 19.9025C46.687 20.0758 46.6572 20.307 46.7168 20.5381C46.8656 21.0004 47.1632 21.3471 47.4907 21.6649C47.8776 22.0694 48.3538 22.3872 48.8598 22.6184C48.9789 22.6762 49.0682 22.7339 49.098 22.8784C49.1277 23.0518 49.3063 23.1096 49.4551 23.1673C50.4374 23.4852 51.3898 23.803 52.3721 24.0919C54.158 24.6409 55.9439 25.1609 57.7 25.681C57.819 25.7099 57.9381 25.7677 58.0572 25.7966C58.2953 25.8833 58.3846 25.8255 58.4739 25.6232C58.5334 25.5076 58.5632 25.3921 58.6227 25.2765C58.9799 24.2364 59.3371 23.2251 59.6942 22.185C59.8133 21.8383 59.9621 21.7516 60.3193 21.8672C60.9444 22.0694 61.5396 22.3006 62.1647 22.5028C62.6409 22.6762 63.1469 22.8495 63.6232 23.0229C64.0697 23.1962 64.159 23.3407 64.0101 23.7741C63.6827 24.7275 63.3255 25.681 62.9684 26.6345C62.254 28.5992 61.5099 30.535 60.7658 32.4708C60.7062 32.6153 60.6765 32.7308 60.5872 32.8753C60.4979 33.0486 60.3788 33.1064 60.1705 33.0486C59.0989 32.7019 58.0274 32.3263 56.9856 31.9796C56.8368 31.9218 56.688 31.8063 56.5689 31.6907C56.3903 31.4884 56.4499 31.2284 56.5392 30.9973C56.8963 29.9571 57.2833 28.9459 57.6405 27.9057C57.7298 27.6746 57.7893 27.4435 57.8488 27.2123C57.9083 27.0679 57.8488 26.9523 57.7 26.8945C57.5512 26.8367 57.4023 26.7789 57.2535 26.7211C55.1104 26.0566 52.9674 25.3632 50.8541 24.6987C50.1993 24.4964 49.5444 24.2653 48.8896 24.0341C48.711 23.9763 48.5622 23.9474 48.3836 24.0052C48.3241 24.0341 48.2645 24.0341 48.205 24.0052C47.1632 23.7452 46.2108 23.2829 45.5262 22.4739C44.9606 21.8094 44.7523 21.0004 44.7821 20.1047C44.7821 19.9602 44.8118 19.8158 45.0202 19.758C45.0797 19.7291 45.1392 19.6424 45.169 19.5846C45.4071 19.1513 45.6155 18.689 46.0322 18.3711C46.6275 17.88 47.3418 17.6199 48.086 17.4755C49.0682 17.3021 50.0504 17.4177 51.0327 17.6199C51.5684 17.7355 52.134 17.7933 52.6697 17.8511C53.5627 17.9089 54.1877 17.4466 54.7235 16.782C54.8128 16.6954 54.7533 16.6087 54.7235 16.4931C54.6342 16.3198 54.5152 16.1753 54.4259 16.0019C54.5152 16.0019 54.6342 16.0019 54.7235 16.0019C54.8128 16.1175 54.9021 16.2331 55.0509 16.4064C55.1105 16.2331 55.17 16.1175 55.1997 16.0019C55.3188 16.0019 55.4379 16.0019 55.5569 16.0019C55.8843 16.262 56.2117 16.4931 56.5987 16.782C56.6582 16.4931 56.7177 16.2331 56.7773 16.0019C56.8666 16.0019 56.9856 16.0019 57.0749 16.0019C57.1047 16.4931 56.8666 16.9265 56.6582 17.3599C57.1047 16.9843 57.4321 16.5509 57.6107 16.0019C57.7 16.0019 57.8191 16.0019 57.9083 16.0019C57.7298 16.522 57.4916 17.0132 57.1047 17.4177C56.9856 17.5333 56.8666 17.6488 56.7475 17.7933C57.3726 18.2556 58.0572 18.4867 58.8013 18.4289C58.8906 18.4289 59.0096 18.3134 59.0692 18.2267C59.1882 18.0533 59.2478 17.8511 59.3371 17.6488C59.5156 17.0999 59.6942 16.5798 59.8728 16.0308C59.9621 16.0308 60.0514 16.0308 60.1407 16.0308C60.1407 16.0886 60.1407 16.1175 60.1109 16.1753C59.9621 16.6376 59.8431 17.1288 59.6645 17.591C59.5752 17.8511 59.4859 18.0822 59.3966 18.3423C59.4561 18.3423 59.4859 18.3423 59.5156 18.3423C59.9026 18.2556 60.2002 18.0822 60.4384 17.7644C60.8253 17.2154 61.0932 16.6376 61.3015 16.0308C61.3908 16.0886 61.5099 16.0886 61.6289 16.0886ZM58.7715 25.7388C58.9203 25.7677 59.0096 25.7677 59.0989 25.7677C59.4561 25.8544 59.8133 25.9121 60.1705 26.0277C60.4383 26.1144 60.4979 26.23 60.4681 26.49C60.3788 26.8367 60.2895 27.1545 60.1705 27.4723C60.0216 27.8191 59.9026 27.8768 59.5156 27.7324C59.1882 27.6168 58.8311 27.5012 58.5036 27.3857C58.2655 27.299 58.2655 27.299 58.1762 27.5301C57.9976 27.9924 57.819 28.4547 57.6702 28.917C57.4023 29.6682 57.1642 30.4194 56.8963 31.1417C56.807 31.4595 56.8368 31.5751 57.1345 31.7196C57.194 31.7485 57.2535 31.7774 57.3428 31.8063C57.9976 32.0374 58.6525 32.2396 59.2775 32.4708C59.4263 32.5286 59.4859 32.4997 59.5454 32.3263C60.0514 31.0262 60.5574 29.7549 61.0634 28.4547C61.7182 26.7789 62.3433 25.0743 62.9981 23.3985C63.0874 23.1673 63.0874 23.1384 62.8493 23.0518C62.0754 22.7339 61.3015 22.445 60.4979 22.1561C60.1407 22.0116 60.0514 22.0694 59.9323 22.445C59.6049 23.3407 59.2775 24.2653 58.9799 25.1609C58.9203 25.3343 58.8608 25.5365 58.7715 25.7388ZM59.7538 32.6441C59.9026 32.7019 59.9919 32.7308 60.1109 32.7597C60.3788 32.8175 60.4681 32.7886 60.5872 32.5286C60.6765 32.2974 60.736 32.0663 60.8253 31.8351C61.5694 29.8704 62.2838 27.9057 63.0279 25.941C63.2958 25.2476 63.5339 24.5542 63.772 23.8608C63.8018 23.7741 63.8315 23.6585 63.8315 23.5429C63.8315 23.3407 63.653 23.3118 63.5041 23.254C63.3553 23.1962 63.3553 23.3696 63.3255 23.4274C63.2362 23.6296 63.147 23.8319 63.0577 24.063C62.3135 26.2878 61.3908 28.4547 60.5574 30.6217C60.2598 31.2862 60.0216 31.9507 59.7538 32.6441ZM45.7345 20.1336C45.5857 20.1336 45.4071 20.1625 45.2583 20.1914C45.1392 20.2203 45.0797 20.2781 45.1095 20.3936C45.1988 21.2315 45.4369 22.0116 46.0322 22.6184C46.6275 23.1962 47.4014 23.5429 48.205 23.803C48.3538 23.8319 48.4729 23.803 48.5324 23.6874C48.6217 23.5429 48.6812 23.3696 48.7705 23.2251C48.8598 23.0807 48.8003 23.0229 48.6813 22.9362C48.205 22.6184 47.699 22.3294 47.2525 21.9827C46.8061 21.6649 46.5382 21.2315 46.4489 20.6826C46.4191 20.5381 46.4191 20.3359 46.3298 20.2781C46.2405 20.1914 46.0322 20.2203 45.8834 20.1914C45.8536 20.1336 45.7941 20.1336 45.7345 20.1336ZM56.9856 25.7099C56.6582 25.5943 56.3308 25.4788 56.0034 25.3921C54.5747 24.9587 53.146 24.5542 51.7173 24.1208C50.8838 23.8608 50.0802 23.6007 49.2468 23.3407C49.1873 23.3118 49.0682 23.3407 49.0384 23.3696C48.9491 23.4852 48.8896 23.6296 48.8003 23.7741C48.8896 23.803 48.9491 23.8319 49.0087 23.8608C50.9136 24.4675 52.8186 25.1031 54.7235 25.7099C55.2593 25.8833 55.795 26.0277 56.3308 26.2011C56.6285 26.2877 56.7178 26.23 56.8666 25.9699C56.9261 25.9121 56.9559 25.8255 56.9856 25.7099ZM59.0394 25.9988C58.6822 26.0277 58.6525 26.0566 58.5334 26.3744C58.5036 26.4611 58.4739 26.5478 58.4441 26.6345C58.3846 26.8945 58.4143 26.9812 58.6227 27.1256C58.9203 27.3279 59.2775 27.4146 59.6347 27.5012C59.7835 27.5301 59.8431 27.4724 59.9026 27.3568C59.9919 27.0967 60.0812 26.8656 60.1705 26.6056C60.2598 26.4033 60.2002 26.2878 59.9919 26.23C59.6942 26.1433 59.3668 26.0855 59.0394 25.9988ZM46.3894 18.5445C46.6572 18.7756 46.8954 19.0068 47.1335 19.209C47.1632 19.2379 47.2823 19.2668 47.3418 19.2379C47.6097 19.1512 47.8776 19.0357 48.1455 18.949C48.1752 18.9201 48.2348 18.8623 48.2348 18.8045C48.205 18.5156 48.1455 18.2267 48.086 17.9666C48.086 17.9378 47.9967 17.88 47.9371 17.88C47.3418 17.9666 46.8656 18.2267 46.3894 18.5445ZM54.7533 17.331C54.5152 17.5333 54.277 17.7355 54.0389 17.9378C54.0092 17.9666 53.9794 17.9955 53.9794 18.0244C53.9794 18.4 53.9794 18.7468 53.9794 19.1513C54.4556 19.0068 54.8723 18.8334 55.2295 18.5734C55.289 18.5445 55.3188 18.4578 55.289 18.4C55.2295 17.9955 55.0212 17.6488 54.7533 17.331ZM55.6165 18.3134C55.8843 17.9666 56.1225 17.6488 56.3308 17.331C56.4201 17.2154 56.3903 17.071 56.2713 16.9843C56.0332 16.8109 55.795 16.6376 55.5569 16.4931C55.5272 16.4642 55.4379 16.4931 55.4081 16.522C55.289 16.6665 55.17 16.8398 55.0509 17.0132C55.0212 17.0421 55.0212 17.1288 55.0212 17.1577C55.2295 17.5333 55.4081 17.9089 55.6165 18.3134ZM51.0624 17.9955C51.0327 18.3711 50.9731 18.689 50.9434 19.0357C50.9434 19.0646 51.0029 19.1224 51.0624 19.1513C51.3303 19.209 51.5982 19.2668 51.8958 19.2957C51.9554 19.2957 52.0447 19.2668 52.0447 19.2379C52.1637 18.9201 52.253 18.6023 52.3721 18.2556C51.8959 18.1689 51.4791 18.0822 51.0624 17.9955ZM52.3126 19.3246C52.6102 19.3246 52.8781 19.3246 53.146 19.3246C53.265 19.3246 53.3543 19.2957 53.4734 19.2957C53.5924 19.2668 53.652 19.209 53.652 19.0935C53.652 18.8045 53.652 18.5156 53.6817 18.2267C53.6817 18.1111 53.5924 18.1111 53.5031 18.14C53.265 18.1978 52.9971 18.2267 52.759 18.2845C52.6995 18.2845 52.64 18.3423 52.6102 18.4C52.5209 18.689 52.4018 19.0068 52.3126 19.3246ZM48.3538 17.7644C48.4134 18.14 48.4431 18.4867 48.5027 18.8045C48.5027 18.8623 48.6217 18.9201 48.6813 18.9201C48.9194 18.9201 49.1575 18.8912 49.3956 18.8912C49.4254 18.8912 49.4849 18.8334 49.4849 18.8045C49.5147 18.4867 49.5444 18.1689 49.5444 17.8222C49.5444 17.7933 49.4551 17.7066 49.4254 17.7066C49.0682 17.7355 48.7408 17.7644 48.3538 17.7644ZM49.8421 17.7644C49.8123 18.1111 49.8123 18.4289 49.8123 18.7468C49.8123 18.8045 49.8718 18.9201 49.9314 18.949C50.11 18.9779 50.3183 19.0068 50.4969 19.0068C50.5267 19.0068 50.5862 18.9779 50.616 18.949C50.6755 18.6023 50.735 18.2556 50.8243 17.88C50.4671 17.8511 50.1695 17.8222 49.8421 17.7644ZM46.9549 19.4113C46.8358 19.3246 46.7168 19.209 46.5977 19.0935C46.2108 18.7468 46.181 18.6601 45.7941 19.209C45.675 19.3824 45.5857 19.6135 45.4666 19.8158C46.0619 19.9602 46.5977 19.9891 46.9549 19.4113ZM57.3428 25.8544C57.313 25.8255 57.2833 25.8255 57.2833 25.7966C57.2833 25.8544 57.2535 25.8833 57.2535 25.941C57.2238 26.0277 57.194 26.0855 57.1642 26.1722C57.0749 26.3455 57.1345 26.4033 57.313 26.4611C57.4916 26.49 57.6405 26.5478 57.7893 26.5767C58.1762 26.6922 58.1762 26.6634 58.2655 26.3166C58.2953 26.2011 58.2655 26.1433 58.1465 26.1144C57.9381 26.0566 57.7298 25.9699 57.5214 25.9121C57.4321 25.8833 57.4023 25.8544 57.3428 25.8544Z" fill="#BCBCBC"/>
<path d="M59.9918 23.4556C59.9918 23.5134 59.9918 23.6001 59.962 23.6579C59.7834 24.2068 59.6049 24.7269 59.4263 25.2759C59.4263 25.3048 59.3965 25.3625 59.3965 25.3625C59.3667 25.3914 59.3072 25.4203 59.2774 25.4492C59.2477 25.3914 59.2179 25.3625 59.2477 25.3048C59.3072 25.1314 59.3667 24.958 59.4263 24.7558C59.5751 24.3802 59.6942 23.9757 59.843 23.6001C59.8727 23.5423 59.9323 23.4845 59.962 23.4267C59.9323 23.4267 59.962 23.4267 59.9918 23.4556Z" fill="#BCBCBC"/>
<path d="M60.3784 22.4744C60.3189 22.6187 60.2892 22.7341 60.2298 22.8495C60.2298 22.8784 60.1703 22.8784 60.1406 22.9072C60.1406 22.8784 60.0811 22.8207 60.1109 22.7918C60.1406 22.6764 60.2 22.5321 60.2298 22.4167C60.2298 22.3878 60.2892 22.359 60.3189 22.359C60.3487 22.4167 60.3487 22.4455 60.3784 22.4744Z" fill="#BCBCBC"/>
<path d="M61.332 16.0888C61.332 16.031 61.3618 15.9732 61.3618 15.9154C61.8678 14.5286 62.1356 13.1128 62.2845 11.6682C62.344 10.8014 62.463 9.93463 62.5523 9.06785C62.5523 8.95228 62.5523 8.80782 62.5523 8.69225C61.332 9.01007 60.2009 8.92339 59.2782 7.96993C59.2484 7.99882 59.2485 7.99882 59.2187 8.02772C59.308 8.40332 59.3675 8.75003 59.4866 9.12564C59.6949 9.79017 59.933 10.4547 60.1116 11.1192C60.5581 12.6505 60.5283 14.1819 60.2009 15.7132C60.1712 15.8576 60.1712 15.9732 60.1414 16.1177C60.0521 16.1177 59.933 16.1177 59.8438 16.1177C59.9033 15.7132 59.9926 15.2798 60.0521 14.8753C60.2307 13.604 60.0819 12.3327 59.7545 11.0903C59.4866 10.108 59.2187 9.15453 58.9508 8.17218C58.802 7.62322 58.7722 7.04536 58.802 6.46751C58.8317 6.26526 58.8913 6.03412 58.921 5.80298C58.8913 5.80298 58.8317 5.77408 58.802 5.77408C57.909 5.77408 56.9863 5.77408 56.0934 5.80298C55.9743 5.80298 55.8553 5.83187 55.766 5.86076C54.7837 6.06301 54.2777 6.52529 54.1289 7.53654C54.0098 8.31664 53.9205 9.06785 53.8313 9.84795C53.7717 10.657 53.7122 11.4659 53.7122 12.3038C53.7122 13.6329 53.9801 14.9331 54.7242 16.0888C54.6051 16.0888 54.5158 16.0888 54.3968 16.0888C54.1587 15.5687 53.8908 15.0486 53.742 14.4997C53.4146 13.4307 53.3848 12.3038 53.4741 11.2059C53.5634 10.0213 53.7122 8.80782 53.861 7.62322C53.9206 7.10315 54.0991 6.64086 54.4563 6.23637C54.873 5.77408 55.4088 5.57184 56.0041 5.54294C56.778 5.48516 57.5519 5.48515 58.3257 5.48515C58.8317 5.48515 59.308 5.42737 59.814 5.28291C60.7367 5.02288 61.6296 5.08066 62.4333 5.65851C63.0583 6.12079 63.4155 6.92979 63.2369 7.59433C63.2072 7.68101 63.1774 7.79658 63.1179 7.88325C62.8798 8.20107 62.85 8.57668 62.8202 8.95228C62.6714 10.2525 62.5821 11.5526 62.4035 12.8239C62.2547 13.8929 61.9571 14.962 61.6296 16.0021C61.6296 16.031 61.5999 16.031 61.5999 16.0599C61.5403 16.0888 61.4213 16.0888 61.332 16.0888ZM60.7962 5.39848C60.5581 5.42737 60.2307 5.48516 59.933 5.54294C59.6652 5.57184 59.4866 5.71629 59.3377 5.91854C59.1294 6.17858 59.0699 6.46751 59.1294 6.78533C59.2782 7.50765 59.6056 8.11439 60.3497 8.37443C60.7665 8.51889 61.2129 8.57668 61.6594 8.57668C62.344 8.54778 62.8202 8.17218 62.9393 7.53654C63.0286 7.10315 62.9393 6.69865 62.6714 6.35194C62.2547 5.68741 61.5999 5.45626 60.7962 5.39848Z" fill="#BCBCBC"/>
<path d="M55.2297 16.0888C55.3785 15.5109 55.2297 14.962 54.932 14.4708C54.8725 14.3841 54.7832 14.2974 54.6939 14.2396C54.4856 14.1241 54.3665 13.9507 54.307 13.7196C54.1582 13.055 54.5451 12.4772 55.2594 12.3327C55.6762 12.2461 56.0631 12.3616 56.4203 12.5928C56.6286 12.7083 56.7179 12.9106 56.6584 13.1417C56.5691 13.604 56.6882 14.0085 56.837 14.4419C57.0156 14.962 57.1346 15.5109 57.1346 16.0888C57.0156 16.0888 56.9263 16.0888 56.8072 16.0888C56.8072 15.9154 56.8072 15.7132 56.8072 15.5398C56.8072 15.3954 56.7179 15.2798 56.5691 15.2509C56.3608 15.1931 56.1226 15.1353 55.9143 15.0775C55.825 15.0486 55.7059 15.0486 55.6166 15.0486C55.6166 15.4242 55.6166 15.771 55.6166 16.1177C55.4678 16.0888 55.3487 16.0888 55.2297 16.0888ZM56.6286 14.9331C56.5393 14.4997 56.45 14.153 56.3607 13.7774C56.331 13.6618 56.2119 13.5751 56.0631 13.604C55.7952 13.6618 55.5273 13.7196 55.2594 13.8063C55.0213 13.8929 55.0213 13.9218 55.1106 14.153C55.1404 14.2396 55.1999 14.3552 55.2297 14.4419C55.2892 14.6441 55.4083 14.7597 55.6464 14.7597C55.9738 14.8175 56.2715 14.8753 56.6286 14.9331ZM56.1822 13.2862C56.1226 13.1128 56.0631 12.9395 55.9738 12.7661C55.9738 12.7372 55.9143 12.7083 55.8845 12.7083C55.3785 12.4483 54.7535 12.7372 54.6344 13.2862C54.6046 13.4307 54.8725 13.6907 54.9916 13.6618C55.3785 13.5173 55.7655 13.4018 56.1822 13.2862ZM56.2119 12.7661C56.2715 12.9395 56.331 13.0839 56.3905 13.2573C56.45 12.9973 56.4203 12.9106 56.2119 12.7661ZM54.813 13.9218C54.7237 13.8063 54.6344 13.6907 54.4856 13.5462C54.5153 13.7485 54.6046 13.8929 54.813 13.9218Z" fill="#BCBCBC"/>
<path d="M57.6702 16.0884C57.7595 15.7706 57.8488 15.4527 57.9083 15.1349C57.9976 14.5571 58.1167 13.9792 57.9976 13.4014C57.9083 13.0546 57.819 12.679 57.6404 12.3612C57.1344 11.4078 56.9558 10.3965 56.9261 9.35638C56.8963 8.69184 56.9558 8.0562 56.9856 7.39167C56.9856 7.33389 57.0749 7.2761 57.1047 7.21832C57.1344 7.2761 57.2237 7.36278 57.2237 7.42057C57.194 8.02731 57.1344 8.66295 57.1642 9.2697C57.194 10.2809 57.3726 11.2344 57.8786 12.1301C58.325 12.9391 58.3846 13.777 58.2655 14.6726C58.206 15.1349 58.0869 15.5972 57.9976 16.0595C57.8786 16.0884 57.7595 16.0884 57.6702 16.0884Z" fill="#BCBCBC"/>
<path d="M61.0038 7.68018C60.6169 7.65128 60.3192 7.44903 60.1109 7.10232C59.9918 6.90007 60.0811 6.52447 60.2597 6.38C60.7359 6.0044 61.6289 6.14886 61.8967 6.66893C62.0158 6.87118 61.9563 7.10232 61.8372 7.27568C61.6289 7.53571 61.361 7.68018 61.0038 7.68018ZM61.0038 6.38C60.8252 6.43779 60.6764 6.46668 60.5573 6.52447C60.3787 6.64004 60.3192 6.84229 60.4085 7.04454C60.6169 7.39125 61.1824 7.50682 61.5098 7.24679C61.7181 7.07343 61.7479 6.7845 61.5396 6.64004C61.3907 6.52447 61.1824 6.46668 61.0038 6.38Z" fill="#BCBCBC"/>
<path d="M23.8633 8.99509C23.8633 9.25512 23.8336 9.51516 23.8336 9.80408C23.2978 9.77519 22.762 9.7463 22.1667 9.7463C22.1667 10.3242 22.1667 10.8731 22.1965 11.3932C22.1965 11.6821 22.1072 11.9133 21.8096 12.0577C21.6905 12.1155 21.5714 12.3177 21.5714 12.4622C21.5714 13.2134 21.5714 13.9935 21.6012 14.7447C21.631 15.9004 21.1845 16.7094 20.0534 17.1428C19.9939 17.1717 19.9344 17.2295 19.726 17.3162C20.0237 17.3451 20.1725 17.374 20.4404 17.4318C20.4404 18.0963 20.4999 18.7897 20.3809 19.4254C20.3213 19.7143 19.9344 19.9165 19.5772 20.2921C19.5772 21.1011 19.5772 22.1124 19.6367 23.1236C19.6665 23.6437 19.4581 23.8459 18.9224 23.9326C18.8926 23.0658 18.8926 22.1991 18.8628 21.3612C18.8628 21.13 18.8628 20.8989 18.8628 20.6677C18.8628 20.321 18.8926 20.0321 18.4164 19.9165C18.2378 19.8876 18.0294 19.5698 17.9997 19.3676C17.9104 18.7319 17.9401 18.0674 17.9104 17.4318C18.1485 17.4029 18.3271 17.374 18.5057 17.3451C18.1782 17.1717 17.7913 17.0562 17.6127 16.825C17.1662 16.1894 16.69 15.5826 16.8091 14.687C16.9281 13.878 16.8091 13.0401 16.7793 12.2311C16.7793 11.9133 16.8091 11.6532 17.1365 11.451C17.2258 11.3932 17.2853 11.162 17.2853 11.0176C17.2853 10.2086 17.2555 9.37069 17.2555 8.5617C17.2555 7.69492 17.4936 7.26153 18.3568 7.00149C19.1902 6.74146 20.0832 6.53921 20.9761 6.42364C22.1965 6.25028 23.4169 6.13471 24.6372 6.13471C25.5004 6.13471 26.3338 6.30807 27.197 6.42364C27.6732 6.51032 27.9411 6.82814 28.0006 7.29042C28.0602 7.63713 28.1197 7.98384 28.1495 8.33055C28.209 8.9373 27.9411 9.19734 27.316 9.08177C26.185 8.82173 25.0539 8.90841 23.8633 8.99509ZM21.2143 6.62589C20.1427 6.82814 19.101 6.85703 18.1782 7.3771C17.8508 7.55046 17.5532 7.7816 17.5532 8.21499C17.583 10.8731 17.6425 13.5312 17.6722 16.2183C17.6722 16.7672 17.9401 16.9984 18.5057 16.9984C18.7438 16.9984 19.0117 16.9984 19.2498 16.9984C20.5594 16.9695 21.3333 16.2183 21.3333 14.9181C21.3333 14.4269 21.3333 13.9068 21.3036 13.4157C21.2738 11.162 21.244 8.9373 21.2143 6.62589ZM21.5119 9.02398C21.631 9.02398 21.6607 9.05288 21.7203 9.02398C23.655 8.76395 25.5897 8.41724 27.5542 8.82173C27.8518 8.87952 27.9411 8.67727 27.9113 8.44613C27.8816 8.09942 27.7923 7.78159 27.7625 7.46377C27.7328 6.9726 27.4351 6.74145 26.9589 6.59699C25.1432 6.13471 23.3276 6.42364 21.4821 6.59699C21.4821 6.74145 21.4524 6.82814 21.4524 6.94371C21.4821 7.60824 21.5119 8.30167 21.5119 9.02398ZM18.2378 18.8186C18.1783 19.1942 18.1485 19.6276 18.5354 19.7143C18.9819 19.801 19.4879 19.7721 19.9344 19.6565C20.2916 19.5409 20.2023 19.1364 20.113 18.7897C19.5177 18.8186 18.8926 18.8186 18.2378 18.8186ZM20.1725 18.5297C20.1725 18.2119 20.1725 17.9518 20.1725 17.6629C19.4879 17.6629 18.8628 17.6918 18.208 17.6918C18.208 18.0096 18.208 18.2408 18.208 18.5586C18.8628 18.5586 19.4879 18.5586 20.1725 18.5297ZM17.3151 11.7977C16.9876 12.2022 17.0769 15.6693 17.3746 16.016C17.3448 14.5425 17.3448 13.1845 17.3151 11.7977ZM21.8393 9.22623C21.6905 9.3418 21.5119 9.42848 21.5119 9.48626C21.5119 10.2664 21.5119 11.0176 21.5417 11.7977C21.9584 11.6532 22.0477 10.7575 21.8393 9.22623ZM22.1667 9.22623C22.1667 9.31291 22.1667 9.37069 22.1667 9.45737C22.6132 9.48627 23.0894 9.51516 23.5657 9.54405C23.5657 9.3707 23.5359 9.22623 23.5359 9.05287C23.0597 9.11066 22.6132 9.16845 22.1667 9.22623Z" fill="#BCBCBC"/>
<path d="M18.5355 10.527C19.1606 10.5559 19.7261 10.527 20.2619 10.6137C20.3809 10.6426 20.5595 10.9315 20.5893 11.1049C20.6488 11.6539 20.6191 12.2317 20.6191 12.7807C20.6191 13.1563 20.4107 13.3874 20.0238 13.4163C19.6368 13.4452 19.2796 13.4452 18.8927 13.4163C18.5058 13.4163 18.2974 13.2141 18.2974 12.8096C18.2974 12.2606 18.2676 11.7116 18.2974 11.1627C18.2676 10.9604 18.4165 10.7582 18.5355 10.527ZM18.5057 10.7871C18.5057 10.9315 18.5057 11.0471 18.5057 11.1916C18.5057 11.4227 18.5057 11.6828 18.5057 11.9139C18.5355 13.3585 18.3272 13.1274 19.9345 13.1274C20.2321 13.1274 20.3214 12.9829 20.3214 12.7229C20.3214 12.2028 20.3214 11.6828 20.2916 11.1916C20.2916 11.0471 20.1726 10.816 20.1131 10.816C19.6368 10.7871 19.1606 10.7871 18.5057 10.7871Z" fill="#BCBCBC"/>
<path d="M20.5297 9.97795C19.7856 9.97795 19.0415 10.0068 18.2676 10.0068C18.595 9.68902 20.2618 9.66013 20.5297 9.97795Z" fill="#BCBCBC"/>
<path d="M20.6488 15.5541C19.9047 15.5541 19.1308 15.583 18.3867 15.583C18.3867 15.4963 18.3867 15.4097 18.3867 15.323C19.1308 15.2941 19.9047 15.2941 20.6488 15.2652C20.6191 15.4096 20.6191 15.4963 20.6488 15.5541Z" fill="#BCBCBC"/>
<path d="M20.6185 14.311C19.8744 14.311 19.1005 14.3398 18.2969 14.3398C18.535 14.022 20.2613 13.9642 20.6185 14.311Z" fill="#BCBCBC"/>
<path d="M20.6185 15.1493C19.8744 15.1493 19.1005 15.1782 18.2373 15.1782C18.5945 14.8604 20.2018 14.8026 20.6185 15.0049C20.6185 15.0626 20.6185 15.0915 20.6185 15.1493Z" fill="#BCBCBC"/>
<path d="M18.2676 9.34102C19.0117 9.34102 19.7558 9.31213 20.619 9.31213C20.2618 9.62995 18.5652 9.65884 18.2676 9.34102Z" fill="#BCBCBC"/>
<path d="M18.1484 8.90819C19.0116 8.90819 19.7557 8.8793 20.4998 8.8793C20.232 9.22602 18.5354 9.22601 18.1484 8.90819Z" fill="#BCBCBC"/>
<path d="M18.1191 8.50459C19.0121 8.50459 19.7562 8.4757 20.5003 8.4757C20.2324 8.79352 18.5358 8.82241 18.1191 8.50459Z" fill="#BCBCBC"/>
<path d="M18.3271 14.5126C19.0713 14.5126 19.8451 14.4837 20.5893 14.4837C20.5893 14.5704 20.5893 14.6281 20.5893 14.7148C19.8451 14.7726 19.0713 14.7726 18.3271 14.7437C18.3569 14.657 18.3569 14.5993 18.3271 14.5126Z" fill="#BCBCBC"/>
<path d="M32.1786 64.1338C32 63.1803 31.7321 62.2269 31.6726 61.2445C31.5833 59.4532 31.6131 57.6618 31.5535 55.8994C31.5535 55.6393 31.4047 55.3504 31.2261 55.1482C30.7499 54.5992 30.6308 53.2701 31.0178 52.6345C31.0773 52.5189 30.9582 52.2878 30.8987 52.1144C30.8094 51.8833 30.5713 51.6521 30.5713 51.421C30.5118 50.7565 30.5118 50.0919 30.5118 49.4274C30.5118 49.0229 30.5713 48.6184 30.1248 48.3295C30.0058 48.2717 30.0058 48.0117 30.0058 47.8383C29.976 47.3182 29.976 46.7693 29.976 46.2492C28.964 45.8736 28.964 45.8736 28.9342 44.7468C28.9045 43.7933 28.9045 42.8688 28.9045 42.1175C28.5175 41.7997 28.2497 41.5686 27.9818 41.3663C27.8627 41.2797 27.6841 41.2797 27.5353 41.2797C26.6424 41.2797 25.7494 41.2797 24.8565 41.3085C24.3505 41.3374 24.1719 41.1063 24.1719 40.644C24.1719 40.1817 24.3802 40.0084 24.8267 40.0084C25.6006 40.0084 26.4042 40.0084 27.1781 39.9795C27.5353 39.9795 27.952 40.0662 28.1901 39.6328C28.2497 39.5172 28.5473 39.5172 28.845 39.4594C28.845 39.1127 28.845 38.7082 28.845 38.3326C28.845 37.6681 29.1128 37.3791 29.7974 37.3791C31.2261 37.3503 32.6549 37.3214 34.1133 37.3214C34.7979 37.3214 35.0658 37.5525 35.0956 38.2459C35.0956 38.4482 35.1253 38.6793 35.0956 38.8816C35.0658 39.1994 35.2146 39.2861 35.542 39.4883C36.6731 40.1817 37.8637 39.6906 39.0245 39.8061C39.4412 39.8639 39.8282 39.8061 39.8282 40.4129C39.8282 40.9907 39.5603 41.1063 39.0543 41.1063C38.1911 41.1063 37.3577 41.1063 36.4945 41.1641C36.3159 41.1641 36.1076 41.3374 35.929 41.453C35.6909 41.5686 35.4825 41.713 35.1253 41.8864C35.1253 42.811 35.1551 43.8222 35.1849 44.8624C35.1849 45.4113 35.1253 45.8736 34.4407 46.0181C34.3217 46.047 34.2026 46.2781 34.2026 46.3937C34.1729 46.7982 34.2324 47.2316 34.2026 47.6361C34.1729 47.8961 33.9943 48.1561 33.905 48.4162C33.8454 48.5606 33.7561 48.734 33.7561 48.8784C33.7561 49.6296 33.7859 50.3809 33.7859 51.1032C33.7859 51.2476 33.8454 51.4499 33.7561 51.5077C32.8632 52.2589 33.8157 53.1257 33.5776 53.9347C33.4585 54.3392 33.2799 54.7148 33.1311 55.0904C33.0418 55.3215 32.893 55.5815 32.893 55.8416C32.893 57.7485 32.9823 59.6554 32.9525 61.5623C32.9227 62.4002 32.6549 63.2381 32.4763 64.076C32.387 64.1338 32.2977 64.1338 32.1786 64.1338ZM29.2319 39.7194C29.2617 41.6264 29.2914 43.4177 29.3212 45.238C29.3212 45.6425 29.5295 45.8158 29.976 45.8158C31.375 45.7869 32.7739 45.758 34.1431 45.758C34.6789 45.758 34.8575 45.5847 34.8575 45.0646C34.8277 44.0534 34.8277 43.071 34.7979 42.0598C34.7979 41.2508 34.7681 40.4707 34.7384 39.6328C32.893 39.6617 31.1071 39.6906 29.2319 39.7194ZM34.7384 39.2861C34.7384 38.9971 34.7681 38.7371 34.7384 38.4771C34.7384 37.7547 34.6491 37.697 33.8752 37.697C32.8037 37.697 31.7321 37.7259 30.6606 37.7259C29.1128 37.7547 29.1128 37.7547 29.2021 39.1994C29.2021 39.2283 29.2319 39.2572 29.2914 39.3438C31.1071 39.3438 32.893 39.3149 34.7384 39.2861ZM30.869 48.5606C30.869 49.5719 30.869 50.4964 30.9285 51.421C30.9285 51.5655 31.1368 51.7966 31.2261 51.8255C31.9405 51.8544 32.6549 51.8255 33.4585 51.7966C33.4287 50.6987 33.4287 49.6296 33.399 48.5317C32.5358 48.5317 31.7321 48.5606 30.869 48.5606ZM30.363 46.1336C30.363 46.7693 30.3332 47.2893 30.3927 47.8094C30.3927 47.9539 30.6308 48.185 30.7797 48.185C31.7024 48.2139 32.5953 48.185 33.518 48.1561C33.6669 48.1561 33.8752 47.9539 33.8752 47.8383C33.905 47.2893 33.8752 46.7115 33.8454 46.1047C32.6548 46.1047 31.5535 46.1336 30.363 46.1336ZM32.3572 62.9492C32.8334 60.4933 32.4763 58.0374 32.5953 55.5527C32.3572 55.5527 32.2084 55.5527 32.0596 55.5527C32.0596 55.5527 32.0298 55.5815 31.9405 55.6393C32.0595 58.0374 31.8214 60.4933 32.3572 62.9492ZM39.4412 40.8174C39.5603 40.384 39.5008 40.1817 39.0543 40.2106C38.1018 40.2395 37.1493 40.2395 36.1969 40.2684C36.1373 40.2684 36.0778 40.3262 35.9885 40.3551C36.0183 40.5284 36.0183 40.6729 36.048 40.8752C37.1791 40.8463 38.3102 40.8463 39.4412 40.8174ZM24.5588 41.0196C25.7196 40.9907 26.8507 40.9907 28.0413 40.9618C28.0413 40.7307 28.0115 40.5573 28.0115 40.3551C26.8507 40.384 25.7196 40.384 24.5588 40.4129C24.5588 40.644 24.5588 40.8174 24.5588 41.0196ZM33.2204 53.0101C32.506 53.0101 31.8512 53.039 31.1666 53.039C31.1666 53.3568 31.1964 53.5591 31.1964 53.848C31.9107 53.848 32.5656 53.8191 33.2501 53.8191C33.2204 53.5302 33.2204 53.3279 33.2204 53.0101ZM31.2261 54.2236C31.3452 54.9459 31.7321 55.2637 32.4167 55.177C32.893 55.1193 33.2204 54.7437 33.1906 54.1947C32.5358 54.1947 31.9107 54.1947 31.2261 54.2236ZM35.1551 41.4241C35.6909 41.3663 35.7206 41.3085 35.6313 40.2395C35.6016 39.8928 35.5123 39.7772 35.1253 39.9217C35.1253 40.384 35.1253 40.8752 35.1551 41.4241ZM28.8747 39.9217C28.6961 39.9795 28.4282 40.0084 28.4282 40.0373C28.3985 40.4996 28.4283 40.9618 28.458 41.4241C28.458 41.453 28.7259 41.4819 28.9045 41.5397C28.9045 40.9618 28.9045 40.4996 28.8747 39.9217ZM31.5535 52.1722C31.4643 52.779 31.5536 52.8078 32.8632 52.6345C32.8632 52.49 32.8632 52.3456 32.8632 52.1433C32.4167 52.1433 32 52.1433 31.5535 52.1722Z" fill="#BCBCBC"/>
<path d="M29.9763 44.1103C30.3632 44.1103 30.6311 44.1103 30.8692 44.1103C31.7919 44.0814 32.7147 44.0814 33.6671 44.0525C34.1434 44.0525 34.5005 44.2259 34.4708 44.717C34.4708 45.1504 34.1731 45.3527 33.6969 45.3527C32.5956 45.3527 31.5241 45.4105 30.4228 45.3816C30.1549 45.3816 29.7977 45.0926 29.7084 44.8326C29.6191 44.6303 29.887 44.3125 29.9763 44.1103ZM30.3037 44.4281C30.2144 44.5148 30.0656 44.6015 30.0358 44.717C30.0358 44.8326 30.1846 45.0348 30.3037 45.0348C31.4943 45.0348 32.6849 45.006 33.8755 44.9771C33.9648 44.9771 34.1434 44.7748 34.1136 44.717C34.0838 44.6015 33.935 44.4281 33.816 44.4281C32.6849 44.3992 31.5241 44.3992 30.3037 44.4281Z" fill="#BCBCBC"/>
<path d="M30.0056 42.4059C30.4223 42.4059 30.72 42.377 30.9879 42.377C31.8808 42.377 32.8035 42.3481 33.6964 42.3481C34.1132 42.3481 34.4406 42.5215 34.4406 42.9548C34.4703 43.4171 34.1429 43.6483 33.7262 43.6483C32.5951 43.6772 31.4641 43.6772 30.333 43.7061C29.9163 43.7061 29.6484 43.4749 29.6484 43.0993C29.6782 42.8682 29.8865 42.637 30.0056 42.4059ZM34.2917 42.8971C33.9346 42.7815 33.8155 42.7237 33.6667 42.7237C32.5952 42.7237 31.4938 42.7237 30.4223 42.7815C30.2735 42.7815 30.1544 42.9837 30.0056 43.0993C30.1247 43.2149 30.2437 43.3882 30.3628 43.3882C31.4938 43.3882 32.6249 43.3882 33.7262 43.3304C33.875 43.3016 34.0239 43.0993 34.2917 42.8971Z" fill="#BCBCBC"/>
<path d="M27.8541 25.4112C27.3142 25.3563 26.8116 25.1618 26.4552 24.7672C26.3839 24.6882 26.2838 24.6016 26.22 24.4948C25.9809 23.8923 25.633 23.3504 25.6038 22.6546C25.5614 21.0878 25.4902 19.5133 25.4265 17.9109C25.434 17.883 25.4127 17.8474 25.4202 17.8195C25.4099 17.398 25.5709 17.142 25.9096 17.143C26.227 17.1084 26.4484 17.3173 26.5162 17.7542C26.7208 18.9457 26.8892 20.1574 27.0938 21.3488C27.1001 21.4403 27.1139 21.5038 27.1489 21.6029C27.2789 21.5779 27.3726 21.5731 27.4738 21.5404C28.7734 21.2904 29.9527 22.2944 29.8899 23.5638C29.875 23.6196 29.8888 23.6831 29.8813 23.711C29.868 24.3356 29.9346 24.8919 30.3762 25.4289C31.2944 26.6022 31.7928 27.9622 32.1538 29.375C32.1889 29.4742 32.1952 29.5656 32.2228 29.6926C32.3165 29.6878 32.4103 29.683 32.4965 29.7062C32.8852 29.7505 33.2429 30.0258 33.3256 30.4069C33.4084 30.788 33.2387 31.1912 32.8839 31.3654C32.6303 31.5068 32.3554 31.6126 32.0881 31.6905C31.4371 31.9349 30.9282 31.649 30.7615 31.0061C30.373 29.4662 29.7457 28.0119 28.8724 26.6712C28.766 26.4931 28.6372 26.3988 28.4285 26.3727C28.126 26.3515 27.9622 26.1581 27.9145 25.8761C27.8507 25.7692 27.8668 25.5941 27.8541 25.4112ZM32.6488 31.093C32.9024 30.9516 32.9909 30.736 32.907 30.4742C32.8231 30.2124 32.5868 30.0594 32.2831 30.1575C31.987 30.2277 31.8507 30.1613 31.8105 29.8514C31.8042 29.7599 31.7691 29.6608 31.7415 29.5338C31.3805 28.1209 30.9183 26.7408 29.9852 25.6233C29.4723 25.0073 29.4494 24.4029 29.4489 23.7148C29.4425 23.6234 29.465 23.5396 29.4587 23.4482C29.4696 23.0623 29.3357 22.7572 29.108 22.4569C28.6377 21.9121 27.9189 21.7195 27.2317 21.984C26.8556 22.1226 26.7981 22.1072 26.7228 21.6981C26.6815 21.5076 26.6763 21.2968 26.6349 21.1062C26.4654 20.0139 26.3033 18.8937 26.1051 17.7936C26.0987 17.7022 25.9699 17.6078 25.8987 17.5289C25.8687 17.6405 25.8176 17.7166 25.7876 17.8282C25.7802 17.8561 25.794 17.9196 25.7865 17.9475C25.864 19.6135 25.9127 21.2717 25.9901 22.9376C25.9965 23.029 26.0315 23.1281 26.0666 23.2273C26.1229 23.362 26.2368 23.5122 26.2569 23.6671C26.3948 24.3023 26.8439 24.8115 27.4839 24.9531C27.7139 25.0147 28.0313 24.9801 28.1526 25.1023C28.2665 25.2525 28.1917 25.5316 28.2543 25.7577C28.2894 25.8569 28.3958 26.0349 28.4895 26.0301C28.8357 26.0033 28.9633 26.2169 29.1197 26.4383C30.0356 27.8503 30.7128 29.3479 31.1152 30.9513C31.1979 31.3324 31.4918 31.5009 31.8604 31.3902C32.1203 31.3402 32.4026 31.2065 32.6488 31.093Z" fill="#BCBCBC"/>
<path d="M23.2207 31.3178C22.8441 30.7682 23.161 30.0455 23.8608 29.9638C24.0845 29.934 24.1357 29.858 24.188 29.6627C24.4481 28.1171 24.9094 26.6255 25.8232 25.285C26.0792 24.9049 26.0792 24.9049 26.4656 25.1879C26.7231 25.3766 27.0319 25.4892 27.3332 25.6298C27.6345 25.7703 27.7161 26.2708 27.4763 26.4757C27.3964 26.5441 27.3452 26.6201 27.2865 26.724C26.4877 28.0953 26.0051 29.5513 25.7163 31.0892C25.5644 31.886 25.086 32.1766 24.3034 31.8771C23.4271 31.5825 23.3696 31.5671 23.2207 31.3178ZM26.1309 25.517C26.0871 25.5651 26.0434 25.6132 26.0285 25.669C25.9698 25.773 25.8824 25.8692 25.8163 26.001C25.0761 27.2684 24.7097 28.6359 24.487 30.0419C24.4559 30.2729 24.3823 30.4326 24.0948 30.3556C23.7785 30.2708 23.5462 30.4479 23.4789 30.699C23.4041 30.9781 23.5318 31.1918 23.8331 31.3324C24.0556 31.4219 24.2781 31.5114 24.5081 31.5731C24.9607 31.7242 25.2505 31.5626 25.3126 31.1007C25.6176 29.3876 26.21 27.7517 27.1037 26.2563C27.1549 26.1802 27.1773 26.0965 27.1923 26.0407C26.8122 25.8491 26.4822 25.7009 26.1309 25.517Z" fill="#BCBCBC"/>
<path d="M29.8292 17.2358C29.8631 17.4543 29.9195 17.589 29.9183 17.7083C29.9768 19.1 30.0354 20.4916 30.0864 21.9111C30.0927 22.0026 30.0341 22.1065 29.9754 22.2104C29.8679 22.1517 29.7741 22.1565 29.6741 22.0699C29.3665 21.8379 29.0514 21.6338 28.7512 21.3739C28.6512 21.2873 28.5661 21.1448 28.5598 21.0534C28.6214 19.9034 28.7118 18.761 28.8097 17.5908C28.8195 17.3242 28.973 17.0961 29.2542 17.0817C29.4704 17.0798 29.6567 17.1896 29.8292 17.2358ZM29.7012 21.5088C29.649 20.2086 29.5893 18.9363 29.5296 17.664C29.5158 17.6005 29.4445 17.5216 29.402 17.4503C29.3508 17.5264 29.2421 17.587 29.2484 17.6784C29.1517 18.7293 29.0763 19.8159 29.0083 20.8745C28.9934 20.9303 29.0572 21.0371 29.136 21.0881C29.2786 21.246 29.4649 21.3557 29.7012 21.5088Z" fill="#BCBCBC"/>
<path d="M28.4458 23.086C28.666 23.4142 28.5901 23.8126 28.2853 24.0301C27.9517 24.2398 27.513 24.1522 27.2928 23.824C27.0939 23.5314 27.1922 23.0492 27.4821 22.8876C27.8444 22.6856 28.2256 22.7578 28.4458 23.086ZM28.2646 23.187C27.9909 23.1735 27.8472 23.135 27.7098 23.1879C27.5361 23.261 27.4262 23.441 27.5614 23.6267C27.6752 23.7769 27.869 23.8587 28.0288 23.7221C28.1525 23.6057 28.1686 23.4305 28.2646 23.187Z" fill="#BCBCBC"/>
</svg>
